<?xml version="1.0" encoding="UTF-8"?>
<svg version="1.1" fill="#CCC9DC" xmlns="http://www.w3.org/2000/svg" width="320" height="320">
<path d="M0 0 C9.44889435 3.35235498 17.10413914 8.34734549 23.17578125 16.3828125 C26.67629419 20.64430651 31.28369253 22.67654376 36.1328125 25.13671875 C39.17792265 26.72131041 41.99986159 28.43276681 44.86328125 30.3203125 C52.97453848 35.58966939 61.58001744 40.09281041 70.36328125 44.1328125 C74.90746417 46.37165384 78.84488706 49.22475052 82.92578125 52.1953125 C90.26547942 57.5122592 97.87336227 62.27606221 105.67578125 66.8828125 C106.24925293 67.22202728 106.82272461 67.56124207 107.41357422 67.91073608 C113.53278989 71.51990912 119.69644561 75.02886592 125.97265625 78.359375 C126.97917236 78.89433594 127.98568848 79.42929688 129.02270508 79.98046875 C130.90268469 80.96954893 132.7901978 81.94449308 134.6862793 82.90234375 C139.79388193 85.57237153 142.92309727 87.63779945 145.48828125 92.8828125 C145.42220653 96.18654854 145.28169967 98.06529023 142.9453125 100.47265625 C140.65776188 104.25662068 141.13461666 107.9890765 141.23828125 112.3203125 C141.24601562 113.56071289 141.24601562 113.56071289 141.25390625 114.82617188 C141.34012196 121.8689174 141.89250796 128.86723559 142.48828125 135.8828125 C143.34059326 136.16479492 144.19290527 136.44677734 145.07104492 136.73730469 C148.25151339 137.79507847 151.42854623 138.86215008 154.60375977 139.93554688 C155.97490648 140.39695786 157.34729396 140.85469948 158.72094727 141.30859375 C160.7028138 141.96418398 162.67974468 142.63313188 164.65625 143.3046875 C165.84500732 143.70268555 167.03376465 144.10068359 168.25854492 144.51074219 C171.56896607 145.91708937 173.87103038 147.429234 176.48828125 149.8828125 C177.23828125 152.2578125 177.23828125 152.2578125 176.48828125 154.8828125 C173.14266282 159.05353278 168.64727367 161.42550901 163.92578125 163.7578125 C162.90742188 164.27988281 161.8890625 164.80195313 160.83984375 165.33984375 C158.35158552 166.48537056 156.2283926 167.27618795 153.63671875 168.01953125 C149.36169719 169.48030741 145.86465875 170.86317476 143.48828125 174.8828125 C142.24407791 181.06125926 142.34225887 187.26727858 142.56958008 193.53540039 C142.6136499 194.78828857 142.65771973 196.04117676 142.703125 197.33203125 C142.776521 198.46987061 142.84991699 199.60770996 142.92553711 200.7800293 C142.33926349 204.94024784 140.68416221 206.26312448 137.48828125 208.8828125 C135.67749023 210.08618164 135.67749023 210.08618164 133.984375 210.91796875 C133.33629883 211.24595459 132.68822266 211.57394043 132.02050781 211.91186523 C131.32924805 212.25290283 130.63798828 212.59394043 129.92578125 212.9453125 C112.43867439 221.91734262 96.17148874 231.95837273 81.5078125 245.109375 C78.15667821 248.05215057 74.66504191 250.8230138 71.19921875 253.62890625 C68.77646384 255.64321401 66.47633561 257.73192246 64.17578125 259.8828125 C60.10260903 263.55736466 55.65737006 266.42535073 51.01269531 269.30322266 C45.78721277 272.58286719 40.97871326 276.27577146 36.19458008 280.1652832 C33.83064715 282.08017745 31.53273266 283.85699984 28.8984375 285.38671875 C25.94588205 287.21950439 23.87238204 289.41947401 21.48828125 291.9453125 C5.08817244 308.91360056 5.08817244 308.91360056 -3.76171875 310.4453125 C-9.14517599 309.63779391 -11.07166794 306.87139078 -14.51171875 302.8828125 C-15.10855469 302.31949219 -15.70539063 301.75617188 -16.3203125 301.17578125 C-18.71828874 298.81103332 -20.2801057 296.99416587 -20.9765625 293.65234375 C-20.94560048 291.01172546 -20.55604245 289.31141724 -19.51171875 286.8828125 C-17.71020508 285.34130859 -17.71020508 285.34130859 -15.46875 283.96875 C-14.65736572 283.45916748 -13.84598145 282.94958496 -13.01000977 282.42456055 C-11.77335571 281.66139526 -11.77335571 281.66139526 -10.51171875 280.8828125 C-9.05466318 279.9239148 -7.60140541 278.9592169 -6.15234375 277.98828125 C-5.43570557 277.51229492 -4.71906738 277.03630859 -3.98071289 276.54589844 C4.23897618 271.07997251 12.41513355 265.56391644 20.48828125 259.8828125 C21.4421875 259.21765625 22.39609375 258.5525 23.37890625 257.8671875 C32.01774864 251.73795296 39.76993964 244.82109032 47.11328125 237.1953125 C50.0277389 234.4133302 52.6183134 234.79868276 56.48828125 234.8828125 C56.33875 234.16738281 56.18921875 233.45195312 56.03515625 232.71484375 C56.56449798 229.40645793 56.97509018 229.16873451 59.56640625 227.26953125 C60.94573062 226.35256152 62.3372666 225.45378698 63.73828125 224.5703125 C64.46611816 224.09029785 65.19395508 223.6102832 65.94384766 223.11572266 C68.11464959 221.68742553 70.29855951 220.28188646 72.48828125 218.8828125 C79.42759614 214.42782581 85.73782771 209.89784698 91.76953125 204.2578125 C96.06116691 200.50879744 100.71549484 197.30120964 105.38671875 194.046875 C107.79269038 192.3681492 110.15714257 190.66274597 112.48828125 188.8828125 C112.33101562 187.81417969 112.17375 186.74554688 112.01171875 185.64453125 C111.44323731 181.09967172 111.31340278 176.58205641 111.19799805 172.00634766 C110.94414557 162.08488577 110.37112643 152.39456699 108.78564453 142.59692383 C107.84139211 136.6613823 107.12395794 130.72684657 106.5078125 124.75 C106.4234343 123.94152618 106.33905609 123.13305237 106.25212097 122.30007935 C105.91047986 119.01547625 105.57009728 115.73098648 105.25302124 112.44390869 C105.02951145 110.13067248 104.79127655 107.81933545 104.55078125 105.5078125 C104.4882869 104.81283661 104.42579254 104.11786072 104.36140442 103.40182495 C103.82120974 98.37964389 102.6774925 94.74203235 98.76171875 91.41650391 C98.13523437 91.02640137 97.50875 90.63629883 96.86328125 90.234375 C96.16243408 89.79013184 95.46158691 89.34588867 94.73950195 88.88818359 C93.62514771 88.2048999 93.62514771 88.2048999 92.48828125 87.5078125 C91.33815552 86.78392334 91.33815552 86.78392334 90.16479492 86.04541016 C88.63532867 85.08368203 87.10307407 84.126372 85.56787109 83.17382812 C82.96438653 81.55757708 80.38207463 79.90922291 77.80078125 78.2578125 C76.94484375 77.71511719 76.08890625 77.17242187 75.20703125 76.61328125 C72.6506383 74.98615183 70.10272565 73.34632241 67.55664062 71.703125 C61.1564978 67.5740006 54.72089082 63.50608899 48.25268555 59.484375 C43.56425085 56.56717755 38.91889757 53.59045614 34.30859375 50.55078125 C31.82830816 49.08390875 29.34693454 47.80633989 26.76171875 46.5390625 C21.66116833 44.02089592 16.83215388 41.17119714 11.98828125 38.1953125 C2.62319513 32.50364671 -6.89364356 27.13325935 -16.51171875 21.8828125 C-17.02430292 14.69133307 -17.02430292 14.69133307 -14.71875 11.0546875 C-13.92855469 10.25546875 -13.13835937 9.45625 -12.32421875 8.6328125 C-11.54691406 7.82328125 -10.76960938 7.01375 -9.96875 6.1796875 C-8.75251953 5.04273438 -8.75251953 5.04273438 -7.51171875 3.8828125 C-6.69058594 3.10421875 -5.86945313 2.325625 -5.0234375 1.5234375 C-2.51171875 -0.1171875 -2.51171875 -0.1171875 0 0 Z " transform="translate(130.51171875,6.1171875)"/>
<path d="M0 0 C3.25390625 1.03125 3.25390625 1.03125 6.5625 2.5 C7.16473389 2.76699707 7.76696777 3.03399414 8.38745117 3.30908203 C13.27302875 5.53308992 17.90588703 8.13670692 22.51318359 10.89208984 C25.78803534 12.82510477 29.07804399 14.53262671 32.5546875 16.078125 C33.32449951 16.42117676 34.09431152 16.76422852 34.88745117 17.11767578 C36.38546241 17.77374142 37.89068753 18.41365008 39.40356445 19.03466797 C42.75839876 20.50563681 44.65333617 21.52952766 46.859375 24.5234375 C48.47461546 29.44660193 49.28636243 34.38510669 50.0625 39.5 C50.23241455 40.57064697 50.4023291 41.64129395 50.57739258 42.74438477 C51.06314198 45.827949 51.5346164 48.91330405 52 52 C52.17644043 53.15798096 52.17644043 53.15798096 52.35644531 54.33935547 C52.80096758 57.27531919 53.22307878 60.21148986 53.60546875 63.15625 C53.85827858 64.97848327 54.16864559 66.79418916 54.55078125 68.59375 C55.14790045 71.7091545 55.49517951 73.92598051 54.14453125 76.85546875 C49.81907032 82.60160893 43.1798728 85.62024272 37 89 C33.75150023 90.72226496 33.75150023 90.72226496 33 94 C32.88778499 95.42440109 32.8224169 96.85282493 32.7890625 98.28125 C32.07154589 121.15594364 32.07154589 121.15594364 27.72035217 126.60148621 C25.52760429 128.38402132 24.36261211 128.37455646 21.56030273 128.37231445 C20.66605087 128.37854324 19.77179901 128.38477203 18.85044861 128.39118958 C17.88788651 128.38197983 16.9253244 128.37277008 15.93359375 128.36328125 C14.94375992 128.36377975 13.95392609 128.36427826 12.93409729 128.36479187 C10.841868 128.36245128 8.74963591 128.35272367 6.6574707 128.33618164 C3.44652272 128.31256636 0.23640349 128.31562368 -2.97460938 128.32226562 C-5.00521331 128.31668977 -7.03581373 128.30958047 -9.06640625 128.30078125 C-10.03099258 128.30169266 -10.99557892 128.30260406 -11.98939514 128.30354309 C-12.88049484 128.29401108 -13.77159454 128.28447906 -14.68969727 128.2746582 C-15.47562759 128.27005081 -16.26155792 128.26544342 -17.07130432 128.26069641 C-19 128 -19 128 -21 126 C-21.65264977 123.42150149 -22.20261957 120.891355 -22.69140625 118.28125 C-22.841577 117.50873901 -22.99174774 116.73622803 -23.14646912 115.94030762 C-23.46356967 114.30010884 -23.77686585 112.65917072 -24.08666992 111.01757812 C-24.55571734 108.5358865 -25.03753989 106.05694948 -25.52148438 103.578125 C-27.03609357 95.73080309 -28.40786498 87.98165565 -29 80 C-29.66531738 79.98018066 -30.33063477 79.96036133 -31.01611328 79.93994141 C-34.05278268 79.84423582 -37.08880678 79.73474192 -40.125 79.625 C-41.17171875 79.5940625 -42.2184375 79.563125 -43.296875 79.53125 C-48.5344783 79.33235367 -53.10505369 79.08331625 -58 77 C-59.72156911 66.67058534 -58.57987795 59.76908829 -54.8125 50 C-53.98018252 47.77972722 -53.15075377 45.55836939 -52.32421875 43.3359375 C-51.7216626 41.71896973 -51.7216626 41.71896973 -51.10693359 40.06933594 C-49.18963002 34.75298381 -47.61477998 29.34829993 -46.0703125 23.9140625 C-44.79792472 20.44982424 -43.4617407 18.78859692 -40.21337891 17.03613281 C-39.55772949 16.76124023 -38.90208008 16.48634766 -38.2265625 16.203125 C-37.49002441 15.88754639 -36.75348633 15.57196777 -35.99462891 15.24682617 C-35.21265137 14.91787354 -34.43067383 14.5889209 -33.625 14.25 C-20.61929745 8.99096921 -20.61929745 8.99096921 -9.0859375 1.30078125 C-5.95771839 -0.64996213 -3.6230354 -0.34026373 0 0 Z M-38 37 C-38 40.3 -38 43.6 -38 47 C-31.66282862 49.67767805 -25.75133875 51.69328927 -19 53 C-19.28484846 51.26969709 -19.57819938 49.54079286 -19.875 47.8125 C-20.11863281 46.36810547 -20.11863281 46.36810547 -20.3671875 44.89453125 C-21.00829419 41.58167916 -21.00829419 41.58167916 -23 37 C-27.95 37 -32.9 37 -38 37 Z M14.3125 38.5 C13.31863281 38.7784375 12.32476562 39.056875 11.30078125 39.34375 C10.54152344 39.5603125 9.78226562 39.776875 9 40 C8.61161386 42.79040505 8.23879954 45.58137886 7.875 48.375 C7.76285156 49.1690625 7.65070313 49.963125 7.53515625 50.78125 C7.27278733 52.84521885 7.12849262 54.92339351 7 57 C7.66 57.66 8.32 58.32 9 59 C14.5478286 58.78949488 18.40792413 56.94854986 22.9375 53.9375 C23.52595703 53.56044922 24.11441406 53.18339844 24.72070312 52.79492188 C26.15421463 51.87421123 27.5781572 50.93863006 29 50 C27.02 45.71 25.04 41.42 23 37 C19.7997785 37 17.38516529 37.63242392 14.3125 38.5 Z M-4.375 76.0625 C-8.77746986 81.47087543 -11 91.08618604 -11 98 C-3.90272572 98.10808032 2.96094956 97.93854006 10 97 C9.49657198 91.27007382 7.16867537 87.06035518 4.4375 82.125 C4.01275391 81.34125 3.58800781 80.5575 3.15039062 79.75 C2.10789462 77.82899613 1.05767555 75.9126751 0 74 C-2.27258186 73.78143778 -2.27258186 73.78143778 -4.375 76.0625 Z " transform="translate(163,90)"/>
<path d="M0 0 C2.0360882 1.27754554 4.04109119 2.60699818 6 4 C7.98507948 5.02930047 9.98114251 6.03863929 12 7 C11.98828125 9.21484375 11.98828125 9.21484375 11 12 C8.59440337 13.88872994 5.91470584 15.19531807 3.1875 16.5625 C1.7401722 17.30739137 0.29605113 18.05855184 -1.14453125 18.81640625 C-1.78753174 19.14068604 -2.43053223 19.46496582 -3.09301758 19.79907227 C-5.12361797 20.9725174 -5.12361797 20.9725174 -6.89819336 22.96069336 C-9.27830972 25.27003381 -11.48584754 26.41069599 -14.484375 27.8125 C-20.92053168 30.92311367 -27.08371334 34.38854311 -33.25 38 C-34.27351563 38.59039062 -35.29703125 39.18078125 -36.3515625 39.7890625 C-41.65830341 42.8857982 -46.67826199 46.07782311 -51.46777344 49.93359375 C-53 51 -53 51 -55 51 C-55.06058594 51.75925781 -55.12117188 52.51851562 -55.18359375 53.30078125 C-55.30927734 54.79158203 -55.30927734 54.79158203 -55.4375 56.3125 C-55.55931641 57.79169922 -55.55931641 57.79169922 -55.68359375 59.30078125 C-56 62 -56 62 -57 65 C-57.26506277 67.33592225 -57.4860996 69.67692862 -57.68359375 72.01953125 C-57.77423851 73.06206306 -57.77423851 73.06206306 -57.86671448 74.12565613 C-58.12409054 77.0864837 -58.37318906 80.04798991 -58.62231445 83.00952148 C-59.25935892 90.53002132 -59.95016513 97.99534262 -61.0859375 105.4609375 C-61.9091478 110.96042325 -62.27840346 116.25782034 -62.1875 121.8125 C-62.18685547 122.58013672 -62.18621094 123.34777344 -62.18554688 124.13867188 C-62.1681766 126.42961798 -62.09563776 128.7110695 -62 131 C-61.970271 132.18795166 -61.970271 132.18795166 -61.93994141 133.39990234 C-61.69533852 137.55128543 -61.4426929 139.46374829 -58.7265625 142.75390625 C-57.82679687 143.49511719 -56.92703125 144.23632812 -56 145 C-55.26523438 145.79277344 -54.53046875 146.58554688 -53.7734375 147.40234375 C-46.16039635 155.44935305 -37.53292812 161.74944071 -28.54345703 168.1796875 C-17.59558697 176.01490723 -6.81005852 183.75778918 3 193 C4.97590692 194.69936011 6.98047092 196.35248944 9 198 C8.9296875 200.26953125 8.9296875 200.26953125 8 203 C5.67299043 204.48488207 3.62284903 205.59313301 1.125 206.6875 C-4.07802631 209.07731815 -4.07802631 209.07731815 -9 212 C-13.1272515 212.4585835 -15.2424291 212.49930809 -18.75 210.1875 C-19.99704493 208.9750952 -21.23245626 207.74892156 -22.4140625 206.47265625 C-24.09593566 204.91091689 -25.53060621 204.16360388 -27.625 203.25 C-31.78981437 201.2551529 -35.15211147 198.65942133 -38.73828125 195.7734375 C-40.81339505 194.14631891 -42.91450795 192.68495356 -45.125 191.25 C-48.59107679 188.99343959 -51.91022621 186.59389785 -55.21777344 184.11499023 C-60.94280418 179.83001139 -66.71214166 175.82032639 -72.875 172.1875 C-73.50003418 171.81866699 -74.12506836 171.44983398 -74.76904297 171.06982422 C-76.51177732 170.04498683 -78.25585283 169.0224311 -80 168 C-90.06825289 162.03670972 -90.06825289 162.03670972 -92 156 C-93.42791905 148.60078311 -94.06033466 139.99988574 -92.4921875 132.60546875 C-91.46615556 127.17401396 -91.16155809 123.53382353 -93.80859375 118.69140625 C-94.65572343 117.62460708 -95.53408573 116.58207433 -96.4375 115.5625 C-97.15546753 114.72900024 -97.15546753 114.72900024 -97.88793945 113.87866211 C-103.57106879 107.73811665 -110.69535915 104.50876618 -118.12988281 100.93603516 C-121.65526735 99.17150196 -125.55276736 97.15236746 -128 94 C-128.18359375 91.328125 -128.18359375 91.328125 -128 89 C-120.16386588 86.41868523 -112.01659129 85.62230752 -103.87109375 84.5 C-98.09286776 83.68093807 -92.54928751 82.82800059 -87 81 C-86.27684519 75.37051798 -85.99049577 70.60835683 -87 65 C-87.23920443 59.00217042 -87.08688215 52.99168962 -86.75 47 C-86.70359375 46.13375 -86.6571875 45.2675 -86.609375 44.375 C-85.7934189 41.19486339 -84.48236101 40.14520299 -82 38 C-78.95068359 36.37182617 -78.95068359 36.37182617 -75.3984375 34.79296875 C-74.0898419 34.19987388 -72.78124821 33.60677478 -71.47265625 33.01367188 C-69.43369668 32.10289111 -67.39322983 31.19558968 -65.35205078 30.28979492 C-56.97505266 26.55636787 -49.35922097 22.54375763 -42 17 C-35.91811701 12.97937374 -29.69492781 9.20386865 -23.42578125 5.484375 C-20.17856816 3.4973525 -17.04090617 1.36403857 -13.91015625 -0.80078125 C-8.77498445 -4.02470302 -5.19849062 -2.18836804 0 0 Z " transform="translate(141,52)"/>
<path d="M0 0 C1.94458008 1.29760742 1.94458008 1.29760742 3.76953125 3.10546875 C4.43017578 3.75966797 5.09082031 4.41386719 5.77148438 5.08789062 C6.44501953 5.78076172 7.11855469 6.47363281 7.8125 7.1875 C8.50537109 7.86103516 9.19824219 8.53457031 9.91210938 9.22851562 C10.56630859 9.88916016 11.22050781 10.54980469 11.89453125 11.23046875 C12.78942261 12.13381958 12.78942261 12.13381958 13.70239258 13.05541992 C15.36133093 15.54148652 15.35436667 17.06732073 15 20 C13.53125 21.625 13.53125 21.625 11.5 23 C10.77039063 23.50015625 10.04078125 24.0003125 9.2890625 24.515625 C8.53367188 25.00546875 7.77828125 25.4953125 7 26 C6.30648437 26.46921875 5.61296875 26.9384375 4.8984375 27.421875 C0.29368312 30.44430066 -4.02821447 33.24233444 -9.73046875 32.77734375 C-13.61720329 31.85325752 -16.77718304 30.19292652 -20.1875 28.1875 C-20.80302734 27.84396484 -21.41855469 27.50042969 -22.05273438 27.14648438 C-25.44754862 25.18609868 -28.01556992 23.4224229 -30 20 C-30.0625 18.0625 -30.0625 18.0625 -29 16 C-23.56299821 10.56299821 -16.55788518 6.92324045 -10 3 C-9.14535156 2.42507812 -8.29070312 1.85015625 -7.41015625 1.2578125 C-4.59123291 -0.2133274 -3.1429722 -0.33157347 0 0 Z " transform="translate(202,4)"/>
<path d="M0 0 C0.97582031 0.65484375 1.95164063 1.3096875 2.95703125 1.984375 C5.1875 4.25 5.1875 4.25 5.93359375 7.1953125 C4.8627146 11.57974964 2.06485504 13.09350884 -1.5625 15.375 C-2.83044651 16.20741204 -4.09613084 17.04328148 -5.359375 17.8828125 C-5.96330078 18.27629883 -6.56722656 18.66978516 -7.18945312 19.07519531 C-9.01941215 20.31420646 -9.01941215 20.31420646 -10.953125 22.6171875 C-12.8125 24.25 -12.8125 24.25 -15.265625 24.3125 C-18.61548618 22.9150119 -20.22572869 21.01021309 -22.5625 18.25 C-23.34109375 17.3425 -24.1196875 16.435 -24.921875 15.5 C-25.54578125 14.7575 -26.1696875 14.015 -26.8125 13.25 C-27.1425 12.92 -27.4725 12.59 -27.8125 12.25 C-28.2109375 9.484375 -28.2109375 9.484375 -27.8125 6.25 C-25.4765625 3.765625 -25.4765625 3.765625 -22.4375 1.5 C-20.94089844 0.36304688 -20.94089844 0.36304688 -19.4140625 -0.796875 C-18.55554688 -1.44140625 -17.69703125 -2.0859375 -16.8125 -2.75 C-16.1525 -3.41 -15.4925 -4.07 -14.8125 -4.75 C-9.23138787 -7.05942571 -4.5125732 -3.11711884 0 0 Z " transform="translate(194.8125,291.75)"/>
<path d="M0 0 C0.33 0.66 0.66 1.32 1 2 C0.13568359 2.17208984 0.13568359 2.17208984 -0.74609375 2.34765625 C-3.19218425 3.05562352 -4.93139112 4.05371639 -7.0625 5.4375 C-7.73410156 5.86933594 -8.40570313 6.30117187 -9.09765625 6.74609375 C-10.73523887 7.82548599 -12.3680856 8.91205706 -14 10 C-14.99 9.67 -15.98 9.34 -17 9 C-16.67 9.99 -16.34 10.98 -16 12 C-16.99 12.66 -17.98 13.32 -19 14 C-19.16669318 17.54171978 -19.16669318 17.54171978 -19 21 C-19.33 21.33 -19.66 21.66 -20 22 C-19.34 22.66 -18.68 23.32 -18 24 C-17.29289322 25.64991582 -16.62056011 27.31562256 -16 29 C-20.61662448 27.68096443 -24.22973959 25.99907078 -28 23 C-29.375 20.25 -29.375 20.25 -30 18 C-26.34790693 13.13288365 -22.7788313 10.27596272 -17.5 7.3125 C-16.84902344 6.93544922 -16.19804687 6.55839844 -15.52734375 6.16992188 C-14.26402853 5.43873034 -12.99745684 4.71312879 -11.72729492 3.99389648 C-10.19835654 3.11413561 -8.69994489 2.1817835 -7.20703125 1.2421875 C-4.61456007 -0.21693787 -2.92916718 -0.25107147 0 0 Z " transform="translate(202,4)"/>
<path d="M0 0 C0.99 0.33 1.98 0.66 3 1 C3 1.66 3 2.32 3 3 C2.41992188 3.24234375 1.83984375 3.4846875 1.2421875 3.734375 C-2.50630363 5.34263852 -6.07910377 6.91662296 -9.4375 9.25 C-12 11 -12 11 -14 11 C-14 11.66 -14 12.32 -14 13 C-15.65 13.33 -17.3 13.66 -19 14 C-19.08131463 15.43655854 -19.13933559 16.8744483 -19.1875 18.3125 C-19.22230469 19.11300781 -19.25710937 19.91351563 -19.29296875 20.73828125 C-18.93801608 23.47851584 -18.10633718 24.29171079 -16 26 C-16.33 26.66 -16.66 27.32 -17 28 C-19.7201993 25.94326394 -21.73410797 24.32702078 -22.42578125 20.875 C-22.34731495 17.30176543 -21.94002803 14.92021479 -19.33203125 12.3671875 C-16.95151834 10.78017889 -14.49138844 9.40648596 -12 8 C-9.86868558 6.5299463 -7.74379182 5.05054578 -5.625 3.5625 C-2.6015625 1.44140625 -2.6015625 1.44140625 0 0 Z " transform="translate(132,279)"/>
<path d="M0 0 C0 3 0 6 0 9 C2.78823655 10.0326802 3.8677274 10.04509293 6.75 9.0625 C7.4925 8.711875 8.235 8.36125 9 8 C9 8.66 9 9.32 9 10 C9.99 10.33 10.98 10.66 12 11 C11.67 12.65 11.34 14.3 11 16 C6.1725201 14.58707905 2.2837641 12.57025846 -2 10 C-2.1953125 3.9453125 -2.1953125 3.9453125 -2 2 C-1.34 1.34 -0.68 0.68 0 0 Z " transform="translate(116,18)"/>
<path d="M0 0 C0.99 0.66 1.98 1.32 3 2 C3.4140625 4.43359375 3.4140625 4.43359375 3 7 C1.4609375 8.66015625 1.4609375 8.66015625 -0.625 10.0625 C-1.71167969 10.81080078 -1.71167969 10.81080078 -2.8203125 11.57421875 C-3.89925781 12.27998047 -3.89925781 12.27998047 -5 13 C-5.61617187 13.41894531 -6.23234375 13.83789062 -6.8671875 14.26953125 C-8.23442061 15.19519386 -9.61563396 16.10016207 -11 17 C-11.66 16.67 -12.32 16.34 -13 16 C-11.76600937 14.63122884 -10.51219377 13.28030834 -9.25 11.9375 C-8.55390625 11.18339844 -7.8578125 10.42929687 -7.140625 9.65234375 C-6.43421875 9.10707031 -5.7278125 8.56179687 -5 8 C-3.68 8.33 -2.36 8.66 -1 9 C-0.67 6.03 -0.34 3.06 0 0 Z " transform="translate(214,17)"/>
<path d="M0 0 C0.763125 0.309375 1.52625 0.61875 2.3125 0.9375 C4.18789677 1.67893593 6.08684652 2.36228217 8 3 C8.33 3.66 8.66 4.32 9 5 C9.99 4.67 10.98 4.34 12 4 C14.6875 4.4375 14.6875 4.4375 17 5 C16.67 5.66 16.34 6.32 16 7 C16 7.66 16 8.32 16 9 C16 9.99 16 10.98 16 12 C12.21751528 10.31991577 9.0307578 7.92161446 5.75 5.4375 C5.19570312 5.02564453 4.64140625 4.61378906 4.0703125 4.18945312 C2.69298825 3.15306751 1.3437077 2.07961421 0 1 C0 0.67 0 0.34 0 0 Z " transform="translate(79,230)"/>
<path d="M0 0 C1.5625 1.125 1.5625 1.125 3 3 C2.86183312 6.24692174 2.59690472 8.27874013 0.5 10.8125 C-1.83567555 14.2186935 -1.74926399 17.95363959 -2 22 C-2.66 22 -3.32 22 -4 22 C-4.19573608 20.56359829 -4.38127816 19.12580496 -4.5625 17.6875 C-4.71912109 16.48673828 -4.71912109 16.48673828 -4.87890625 15.26171875 C-5 13 -5 13 -4 10 C-2.66666667 9.33333333 -1.33333333 8.66666667 0 8 C1.09658936 4.71023192 0.79953138 3.28696233 0 0 Z " transform="translate(273,96)"/>
<path d="M0 0 C-0.96099609 0.47179687 -0.96099609 0.47179687 -1.94140625 0.953125 C-6.04006274 2.98107426 -10.08527744 5.00795845 -14 7.375 C-14.99 7.91125 -15.98 8.4475 -17 9 C-17.66 8.67 -18.32 8.34 -19 8 C-18.01 7.67 -17.02 7.34 -16 7 C-16 5.35 -16 3.7 -16 2 C-14.68 1.34 -13.36 0.68 -12 0 C-11.67 0.66 -11.34 1.32 -11 2 C-9.9275 1.484375 -8.855 0.96875 -7.75 0.4375 C-4.74745101 -1.00603317 -3.16753501 -1.05818094 0 0 Z " transform="translate(298,168)"/>
<path d="M0 0 C0 3.52032428 -0.70351351 4.4385343 -3 7 C-3.66 7 -4.32 7 -5 7 C-5.33 7.99 -5.66 8.98 -6 10 C-7.9375 11.0625 -7.9375 11.0625 -10 12 C-10.66 12.66 -11.32 13.32 -12 14 C-14.125 13.625 -14.125 13.625 -16 13 C-13.17872611 10.02125966 -10.26855585 7.67451397 -6.875 5.375 C-4.36842501 3.67171908 -2.14353028 2.14353028 0 0 Z " transform="translate(218,214)"/>
<path d="M0 0 C0.66 0.33 1.32 0.66 2 1 C-2.70253576 8.90881014 -2.70253576 8.90881014 -5.3828125 9.73046875 C-6.28773438 9.88128906 -7.19265625 10.03210938 -8.125 10.1875 C-9.03507813 10.34605469 -9.94515625 10.50460938 -10.8828125 10.66796875 C-11.58148438 10.77753906 -12.28015625 10.88710937 -13 11 C-9.0299782 6.78185183 -4.69159716 3.38772897 0 0 Z " transform="translate(232,203)"/>
<path d="M0 0 C0.66 0.33 1.32 0.66 2 1 C2 1.66 2 2.32 2 3 C1.37351562 3.26554687 0.74703125 3.53109375 0.1015625 3.8046875 C-1.12433594 4.33449219 -1.12433594 4.33449219 -2.375 4.875 C-3.18710938 5.22304688 -3.99921875 5.57109375 -4.8359375 5.9296875 C-7.13802299 6.92446067 -7.13802299 6.92446067 -9 9 C-8.67 9.66 -8.34 10.32 -8 11 C-10.66666667 11.66666667 -13.33333333 12.33333333 -16 13 C-17.12148437 13.28037109 -17.12148437 13.28037109 -18.265625 13.56640625 C-18.83796875 13.70949219 -19.4103125 13.85257813 -20 14 C-17.53359571 11.2861304 -14.79464022 9.49210713 -11.6875 7.5625 C-7.74958117 5.0973837 -3.84925844 2.6008503 0 0 Z " transform="translate(116,58)"/>
<path d="M0 0 C0.66 0.33 1.32 0.66 2 1 C2.66666667 3 3.33333333 5 4 7 C4.66 7.33 5.32 7.66 6 8 C6 7.01 6 6.02 6 5 C6.66 5 7.32 5 8 5 C8 5.66 8 6.32 8 7 C8.99 7.33 9.98 7.66 11 8 C12.1875 10.5625 12.1875 10.5625 13 13 C8.38337552 11.68096443 4.77026041 9.99907078 1 7 C-0.4375 4.375 -0.4375 4.375 -1 2 C-0.67 1.34 -0.34 0.68 0 0 Z " transform="translate(173,20)"/>
<path d="M0 0 C3.3 1.65 6.6 3.3 10 5 C9.67 6.65 9.34 8.3 9 10 C8.01 10.33 7.02 10.66 6 11 C6 9 6 9 7 8 C6.21625 7.79375 5.4325 7.5875 4.625 7.375 C2 6 2 6 0.6875 2.875 C0.460625 1.92625 0.23375 0.9775 0 0 Z " transform="translate(143,54)"/>
<path d="M0 0 C5.47361889 0.5439085 9.58317001 2.55393801 14.375 5.0625 C15.11105469 5.43955078 15.84710938 5.81660156 16.60546875 6.20507812 C18.40739646 7.12944364 20.20423099 8.06372614 22 9 C19 10 19 10 16.73046875 9.0390625 C15.89128906 8.57242188 15.05210937 8.10578125 14.1875 7.625 C11.11092986 5.98804942 9.03402252 5.00556732 5.5625 4.4375 C3 4 3 4 1.125 1.9375 C0.75375 1.298125 0.3825 0.65875 0 0 Z " transform="translate(160,90)"/>
<path d="M0 0 C0.66015625 1.77734375 0.66015625 1.77734375 1 4 C-1.66300974 8.8182861 -5.8631081 12.13203931 -11 14 C-11.66 13.67 -12.32 13.34 -13 13 C-7.25 9 -7.25 9 -5 9 C-4.731875 7.88625 -4.46375 6.7725 -4.1875 5.625 C-3 2 -3 2 0 0 Z " transform="translate(217,161)"/>
<path d="M0 0 C3 0 3 0 4.5625 1.4375 C5.036875 1.953125 5.51125 2.46875 6 3 C6.66 3.33 7.32 3.66 8 4 C8.309375 4.639375 8.61875 5.27875 8.9375 5.9375 C9.95345922 8.31971493 9.95345922 8.31971493 13 10 C14.9896995 10.39013716 16.99019869 10.73202649 19 11 C19 11.33 19 11.66 19 12 C14.94605634 12.31795637 12.7021582 12.46278608 9.25 10.1875 C7.96139541 8.93468998 6.68317559 7.67050262 5.4375 6.375 C3.77453673 4.78433948 2.08968466 3.93675519 0 3 C0 2.01 0 1.02 0 0 Z " transform="translate(113,252)"/>
<path d="M0 0 C1.32 0.33 2.64 0.66 4 1 C3.85890014 3.10448938 3.71195825 5.2085877 3.5625 7.3125 C3.48128906 8.48425781 3.40007813 9.65601563 3.31640625 10.86328125 C3 14 3 14 2 17 C1.77820215 18.89212737 1.59385985 20.78884472 1.4375 22.6875 C1.35371094 23.68136719 1.26992188 24.67523438 1.18359375 25.69921875 C1.12300781 26.45847656 1.06242187 27.21773437 1 28 C0.67 28 0.34 28 0 28 C-0.02717692 25.93757383 -0.0464758 23.87504297 -0.0625 21.8125 C-0.07410156 20.66394531 -0.08570313 19.51539063 -0.09765625 18.33203125 C-0.01148218 15.39177185 0.38295459 12.86041207 1 10 C1.39338864 4.85121834 1.39338864 4.85121834 0 0 Z " transform="translate(48,172)"/>
<path d="M0 0 C0.66 0 1.32 0 2 0 C2 2.31 2 4.62 2 7 C1.29875 6.773125 0.5975 6.54625 -0.125 6.3125 C-3.87488575 5.90490372 -5.69456291 7.31211723 -9 9 C-11.18359375 8.59375 -11.18359375 8.59375 -13 8 C-12.22914062 7.59007813 -11.45828125 7.18015625 -10.6640625 6.7578125 C-9.66117187 6.21898438 -8.65828125 5.68015625 -7.625 5.125 C-6.62726563 4.59132813 -5.62953125 4.05765625 -4.6015625 3.5078125 C-1.94651605 2.1179862 -1.94651605 2.1179862 0 0 Z " transform="translate(94,72)"/>
<path d="M0 0 C3.3 1.65 6.6 3.3 10 5 C6 8 6 8 3.25 7.6875 C2.5075 7.460625 1.765 7.23375 1 7 C0.67 4.69 0.34 2.38 0 0 Z " transform="translate(178,39)"/>
<path d="M0 0 C0.99 0 1.98 0 3 0 C3 1.32 3 2.64 3 4 C3.99 4 4.98 4 6 4 C6.33 7.3 6.66 10.6 7 14 C4.69 14.66 2.38 15.32 0 16 C1.66666667 14.33333333 3.33333333 12.66666667 5 11 C3.35 7.37 1.7 3.74 0 0 Z " transform="translate(186,128)"/>
<path d="M0 0 C1.33332095 2.6666419 0.67102033 4.16680303 0 7 C-0.721875 6.731875 -1.44375 6.46375 -2.1875 6.1875 C-5.26390537 5.65105845 -5.26390537 5.65105845 -7.8125 8.4375 C-8.534375 9.283125 -9.25625 10.12875 -10 11 C-9.69593558 7.75480334 -9.43719323 6.38099448 -6.93359375 4.19921875 C-6.10988281 3.70035156 -5.28617188 3.20148438 -4.4375 2.6875 C-3.61121094 2.17574219 -2.78492188 1.66398438 -1.93359375 1.13671875 C-1.29550781 0.76160156 -0.65742188 0.38648438 0 0 Z " transform="translate(197,229)"/>
<path d="M0 0 C0.79664063 0.26425781 1.59328125 0.52851562 2.4140625 0.80078125 C4.375 1.6875 4.375 1.6875 5.375 3.6875 C2.735 4.0175 0.095 4.3475 -2.625 4.6875 C-2.955 3.6975 -3.285 2.7075 -3.625 1.6875 C-5.275 1.6875 -6.925 1.6875 -8.625 1.6875 C-6.60754323 -2.34741353 -3.58700831 -1.23266898 0 0 Z " transform="translate(136.625,50.3125)"/>
<path d="M0 0 C-0.8125 1.9375 -0.8125 1.9375 -2 4 C-2.99 4.33 -3.98 4.66 -5 5 C-4.67 6.32 -4.34 7.64 -4 9 C-6.31 8.67 -8.62 8.34 -11 8 C-3.21621622 0 -3.21621622 0 0 0 Z " transform="translate(148,269)"/>
<path d="M0 0 C-1.4566677 1.14795006 -2.91538937 2.29329419 -4.375 3.4375 C-5.18710938 4.07558594 -5.99921875 4.71367187 -6.8359375 5.37109375 C-9 7 -9 7 -11 8 C-11.33 6.68 -11.66 5.36 -12 4 C-11.01 3.67 -10.02 3.34 -9 3 C-9 2.01 -9 1.02 -9 0 C-5.5657338 -0.85856655 -3.38317487 -0.97591583 0 0 Z " transform="translate(214,250)"/>
<path d="M0 0 C1.48285242 0.95262034 2.96118201 1.91228405 4.4375 2.875 C5.67306641 3.67550781 5.67306641 3.67550781 6.93359375 4.4921875 C9 6 9 6 10 8 C5.25 9.125 5.25 9.125 3 8 C2.67 7.01 2.34 6.02 2 5 C1.34 4.67 0.68 4.34 0 4 C0 2.68 0 1.36 0 0 Z " transform="translate(113,221)"/>
<path d="M0 0 C1.65 0 3.3 0 5 0 C2.89033452 1.64085093 0.82020851 3.10338011 -1.5 4.4375 C-4.06046626 6.03779141 -5.94905301 7.79713101 -8 10 C-9.32 9.34 -10.64 8.68 -12 8 C-11.2575 7.7525 -10.515 7.505 -9.75 7.25 C-6.90002735 6.14873979 -6.90002735 6.14873979 -4.875 3.875 C-4.25625 3.25625 -3.6375 2.6375 -3 2 C-2.01 2 -1.02 2 0 2 C0 1.34 0 0.68 0 0 Z " transform="translate(140,67)"/>
<path d="M0 0 C0 0.99 0 1.98 0 3 C-0.99 3.66 -1.98 4.32 -3 5 C-2.67039784 10.01535052 -2.67039784 10.01535052 0 14 C-3 14 -3 14 -4.6875 12.875 C-6 11 -6 11 -6.5625 8.125 C-5.75031971 3.61288729 -3.67658388 2.60424692 0 0 Z " transform="translate(173,293)"/>
<path d="M0 0 C0.66 0.33 1.32 0.66 2 1 C-2.19589312 3.96782684 -6.13615422 6.28864685 -11 8 C-13.2109375 7.57421875 -13.2109375 7.57421875 -15 7 C-12.54595776 5.80283341 -10.08748321 4.6170654 -7.625 3.4375 C-6.57699219 2.92413086 -6.57699219 2.92413086 -5.5078125 2.40039062 C-3.69947784 1.53969288 -1.85148044 0.76347564 0 0 Z " transform="translate(79,81)"/>
<path d="M0 0 C0.33 0.66 0.66 1.32 1 2 C1.99 2.33 2.98 2.66 4 3 C4 3.66 4 4.32 4 5 C5.32 5 6.64 5 8 5 C8.33 5.99 8.66 6.98 9 8 C4.1725201 6.58707905 0.2837641 4.57025846 -4 2 C-2.68 1.34 -1.36 0.68 0 0 Z " transform="translate(29,152)"/>
<path d="M0 0 C-0.33 0.66 -0.66 1.32 -1 2 C-3.28515625 2.4140625 -3.28515625 2.4140625 -6.0625 2.625 C-7.44115234 2.73714844 -7.44115234 2.73714844 -8.84765625 2.8515625 C-9.55792969 2.90054688 -10.26820312 2.94953125 -11 3 C-10.67 4.65 -10.34 6.3 -10 8 C-10.99 7.67 -11.98 7.34 -13 7 C-13 5.35 -13 3.7 -13 2 C-8.46298506 0.54815522 -4.81938524 -0.23509196 0 0 Z " transform="translate(26,139)"/>
<path d="M0 0 C1.46275935 0.17456799 2.92056353 0.39100549 4.375 0.625 C5.18710938 0.74101563 5.99921875 0.85703125 6.8359375 0.9765625 C9 2 9 2 10.2890625 5.0859375 C10.52367187 6.04757813 10.75828125 7.00921875 11 8 C9.16399255 6.85845641 7.33125195 5.71165684 5.5 4.5625 C4.4790625 3.92441406 3.458125 3.28632812 2.40625 2.62890625 C1.6121875 2.09136719 0.818125 1.55382812 0 1 C0 0.67 0 0.34 0 0 Z " transform="translate(219,90)"/>
<path d="M0 0 C6.26480445 1.74732641 10.88233868 3.97120279 16 8 C14.68 8.33 13.36 8.66 12 9 C11.67 8.34 11.34 7.68 11 7 C8.97536745 6.34786708 8.97536745 6.34786708 7 6 C7 5.34 7 4.68 7 4 C6.030625 3.71125 5.06125 3.4225 4.0625 3.125 C1 2 1 2 0 0 Z " transform="translate(131,7)"/>
<path d="M0 0 C5.44769874 0.35146444 5.44769874 0.35146444 8 1 C9.375 3 9.375 3 10 5 C10.66 5.33 11.32 5.66 12 6 C11.67 6.99 11.34 7.98 11 9 C10.113125 8.236875 9.22625 7.47375 8.3125 6.6875 C5.68601772 4.48524764 2.95645515 2.73909127 0 1 C0 0.67 0 0.34 0 0 Z " transform="translate(95,242)"/>
<path d="M0 0 C1.485 0.99 1.485 0.99 3 2 C3.29296875 4.3828125 3.29296875 4.3828125 3.1875 7.125 C3.16042969 8.03507813 3.13335937 8.94515625 3.10546875 9.8828125 C3.07066406 10.58148438 3.03585938 11.28015625 3 12 C1 11 1 11 0 8 C-0.12781786 5.32605036 -0.04391871 2.67904143 0 0 Z " transform="translate(49,200)"/>
<path d="M0 0 C1.7936743 1.1217963 3.5848773 2.24754483 5.375 3.375 C6.37273437 4.00148438 7.37046875 4.62796875 8.3984375 5.2734375 C11 7 11 7 13 9 C11.68 9 10.36 9 9 9 C9 8.34 9 7.68 9 7 C8.443125 6.896875 7.88625 6.79375 7.3125 6.6875 C4.49885978 5.85101237 2.37853021 4.71782737 0 3 C0 2.01 0 1.02 0 0 Z " transform="translate(215,60)"/>
<path d="M0 0 C0 3.16785869 -0.55555175 4.28103859 -2 7 C-2.33 7.99 -2.66 8.98 -3 10 C-3 9.34 -3 8.68 -3 8 C-4.98 8.33 -6.96 8.66 -9 9 C-6 6 -3 3 0 0 Z " transform="translate(169,252)"/>
<path d="M0 0 C0.86625 0.4640625 0.86625 0.4640625 1.75 0.9375 C3.88371067 1.9450856 5.6614904 2.68819872 8 3 C8.66 2.34 9.32 1.68 10 1 C11.32 1.66 12.64 2.32 14 3 C10.26744552 5.48836965 8.41559065 5.54226552 4 5 C1.5625 2.5 1.5625 2.5 0 0 Z " transform="translate(119,311)"/>
<path d="M0 0 C1.32 0.33 2.64 0.66 4 1 C4.33 1.99 4.66 2.98 5 4 C5.33 3.34 5.66 2.68 6 2 C6.66 2.33 7.32 2.66 8 3 C8 3.66 8 4.32 8 5 C7.01 5.495 7.01 5.495 6 6 C5.01 7.485 5.01 7.485 4 9 C2.68 6.03 1.36 3.06 0 0 Z " transform="translate(167,172)"/>
<path d="M0 0 C0.99 0.33 1.98 0.66 3 1 C3 1.66 3 2.32 3 3 C3.78375 3.144375 4.5675 3.28875 5.375 3.4375 C8 4 8 4 10 5 C9.67 5.99 9.34 6.98 9 8 C5.7 6.02 2.4 4.04 -1 2 C-0.67 1.34 -0.34 0.68 0 0 Z " transform="translate(142,41)"/>
<path d="M0 0 C-2.96283313 2.38672669 -5.94270509 4.7353371 -9 7 C-9 6.01 -9 5.02 -9 4 C-8.34 4 -7.68 4 -7 4 C-7 2.68 -7 1.36 -7 0 C-4.3333581 -1.33332095 -2.83319697 -0.67102033 0 0 Z " transform="translate(192,307)"/>
<path d="M0 0 C0.5775 0.226875 1.155 0.45375 1.75 0.6875 C1.069375 1.05875 0.38875 1.43 -0.3125 1.8125 C-3.93069009 4.12198304 -7.05033575 6.83823126 -10.25 9.6875 C-5.22307002 -0.72542639 -5.22307002 -0.72542639 0 0 Z " transform="translate(160.25,289.3125)"/>
<path d="M0 0 C0.99 0 1.98 0 3 0 C1.77946141 3.66161578 0.63217696 4.16270474 -2.5625 6.1875 C-3.38878906 6.71730469 -4.21507812 7.24710937 -5.06640625 7.79296875 C-5.70449219 8.19128906 -6.34257812 8.58960938 -7 9 C-6.67 7.68 -6.34 6.36 -6 5 C-4.68 4.67 -3.36 4.34 -2 4 C-2 3.34 -2 2.68 -2 2 C-1.34 2 -0.68 2 0 2 C0 1.34 0 0.68 0 0 Z " transform="translate(193,263)"/>
<path d="M0 0 C2.91517292 1.07401108 4.77810176 1.77810176 7 4 C7.125 6.625 7.125 6.625 7 9 C5.02 9.99 5.02 9.99 3 11 C3 10.01 3 9.02 3 8 C3.99 8 4.98 8 6 8 C5.2575 7.071875 5.2575 7.071875 4.5 6.125 C3 4 3 4 3 2 C2.01 1.67 1.02 1.34 0 1 C0 0.67 0 0.34 0 0 Z " transform="translate(300,152)"/>
<path d="M0 0 C0.66 0.33 1.32 0.66 2 1 C1.21625 1.53625 0.4325 2.0725 -0.375 2.625 C-3.33426299 5.30242842 -4.04608256 7.18433025 -5 11 C-5.33 11 -5.66 11 -6 11 C-6.33 8.36 -6.66 5.72 -7 3 C-5.5459375 2.5359375 -5.5459375 2.5359375 -4.0625 2.0625 C-1.15934208 1.30476658 -1.15934208 1.30476658 0 0 Z " transform="translate(200,176)"/>
<path d="M0 0 C0.7425 0.66 1.485 1.32 2.25 2 C4.97242945 4.39211447 4.97242945 4.39211447 9 4 C9 5.32 9 6.64 9 8 C4.89041233 6.54955729 1.56741255 4.48889248 -2 2 C-1.34 1.34 -0.68 0.68 0 0 Z " transform="translate(190,69)"/>
<path d="M0 0 C0.66 0.66 1.32 1.32 2 2 C1.67 2.99 1.34 3.98 1 5 C1.33 6.32 1.66 7.64 2 9 C-0.31 7.02 -2.62 5.04 -5 3 C-2 2 -2 2 0 2 C0 1.34 0 0.68 0 0 Z " transform="translate(46,162)"/>
<path d="M0 0 C0.33 0.66 0.66 1.32 1 2 C-1.87164566 4.70272533 -3.30991841 5.94791837 -7.3125 6.25 C-8.199375 6.1675 -9.08625 6.085 -10 6 C-6.87567603 3.47650757 -3.61939504 1.72743854 0 0 Z " transform="translate(149,95)"/>
<path d="M0 0 C0.66 0.33 1.32 0.66 2 1 C2 4.3 2 7.6 2 11 C0.35 11 -1.3 11 -3 11 C-2.505 10.67 -2.01 10.34 -1.5 10 C0.88179561 6.82427253 0.19168226 3.89753934 0 0 Z " transform="translate(243,187)"/>
<path d="M0 0 C3.5786304 1.65167557 6.74820188 3.78286492 10 6 C7 7 7 7 3.875 5.8125 C1 4 1 4 0.125 1.8125 C0.08375 1.214375 0.0425 0.61625 0 0 Z " transform="translate(189,289)"/>
<path d="M0 0 C1.07310858 3.27185553 0.89263102 5.42947592 0.0625 8.75 C-0.22947266 9.94882813 -0.22947266 9.94882813 -0.52734375 11.171875 C-0.68332031 11.77515625 -0.83929688 12.3784375 -1 13 C-1.33 12.34 -1.66 11.68 -2 11 C-2.66 10.67 -3.32 10.34 -4 10 C-3.01 9.67 -2.02 9.34 -1 9 C-1.020625 7.700625 -1.04125 6.40125 -1.0625 5.0625 C-1.08399454 3.70834367 -1.07148199 2.35243917 -1 1 C-0.67 0.67 -0.34 0.34 0 0 Z " transform="translate(80,146)"/>
<path d="M0 0 C1.875 0.25 1.875 0.25 4 1 C5.25 3.0625 5.25 3.0625 6 5 C5.01 5.66 4.02 6.32 3 7 C2.01 4.69 1.02 2.38 0 0 Z " transform="translate(145,16)"/>
<path d="M0 0 C0.33 0 0.66 0 1 0 C1 1.98 1 3.96 1 6 C-0.32 6.33 -1.64 6.66 -3 7 C-2.67 5.35 -2.34 3.7 -2 2 C-1.34 2 -0.68 2 0 2 C0 1.34 0 0.68 0 0 Z " transform="translate(199,296)"/>
<path d="M0 0 C0.721875 0.103125 1.44375 0.20625 2.1875 0.3125 C2.1875 0.9725 2.1875 1.6325 2.1875 2.3125 C-2.7625 3.7975 -2.7625 3.7975 -7.8125 5.3125 C-3.50480769 0.38942308 -3.50480769 0.38942308 0 0 Z " transform="translate(183.8125,240.6875)"/>
<path d="M0 0 C2.31 0.33 4.62 0.66 7 1 C6.67 2.65 6.34 4.3 6 6 C3.96166576 4.7260411 1.96147874 3.38938077 0 2 C0 1.34 0 0.68 0 0 Z " transform="translate(107,249)"/>
<path d="M0 0 C0.66 0.33 1.32 0.66 2 1 C1 4 1 4 -0.8125 5.25 C-3 6 -3 6 -7 5 C-4.69 3.35 -2.38 1.7 0 0 Z " transform="translate(232,203)"/>
<path d="M0 0 C0 0.66 0 1.32 0 2 C-6.96428571 5.34821429 -6.96428571 5.34821429 -11 4 C-9.5437455 3.32880451 -8.08492133 2.66318193 -6.625 2 C-5.81289062 1.62875 -5.00078125 1.2575 -4.1640625 0.875 C-2 0 -2 0 0 0 Z " transform="translate(139,101)"/>
<path d="M0 0 C0.66 0.33 1.32 0.66 2 1 C1.34 1.66 0.68 2.32 0 3 C0 4.32 0 5.64 0 7 C-2.97 6.505 -2.97 6.505 -6 6 C-4 4 -2 2 0 0 Z " transform="translate(128,6)"/>
<path d="M0 0 C5.75 0.875 5.75 0.875 8 2 C8 2.66 8 3.32 8 4 C6.68 4 5.36 4 4 4 C4 3.34 4 2.68 4 2 C2.68 2 1.36 2 0 2 C0 1.34 0 0.68 0 0 Z " transform="translate(195,49)"/>
<path d="M0 0 C0.66 0 1.32 0 2 0 C1.67 2.97 1.34 5.94 1 9 C0.67 9 0.34 9 0 9 C-0.87890625 2.84765625 -0.87890625 2.84765625 -1 1 C-0.67 0.67 -0.34 0.34 0 0 Z " transform="translate(83,108)"/>
<path d="M0 0 C2 1 2 1 2.6328125 2.84765625 C2.79523438 3.57855469 2.95765625 4.30945313 3.125 5.0625 C3.29257813 5.79597656 3.46015625 6.52945312 3.6328125 7.28515625 C3.75398437 7.85105469 3.87515625 8.41695312 4 9 C1.4375 6.75 1.4375 6.75 -1 4 C-0.8125 1.6875 -0.8125 1.6875 0 0 Z " transform="translate(173,20)"/>
<path d="M0 0 C3.16115776 1.36983503 3.9927092 1.9890638 6 5 C3.69 4.34 1.38 3.68 -1 3 C-0.67 2.01 -0.34 1.02 0 0 Z " transform="translate(203,7)"/>
</svg>
