<svg xmlns="http://www.w3.org/2000/svg" fill="#CCC9DC" viewBox="0 0 800 800" class="icon"><g id="Calque_264" data-name="Calque 264"><path d="M141.69,447.77c-9.83-2.22-32.8,5.71-33.28-4.91-1.82-57.25,6.5-113.37,16.82-169.51,2.69-8.33,16-7.87,18.93-15.81,2.45-46.4,27.8-88.09,37-133.46,5.14-9.78,24.14-3.76,29.83-12.58,9.54-25.51-16.87-11.87-13.48-41.72,18.27-67.32,186-76.55,244.73-66.21,62.75,11.68,91.37,0,131.47,58.42C498.07,78.7,419.53,77.37,343.06,89.67c-53.41-7.8-80.06,10.43-11.34,24.41,24.2,5.51,52.9-4.1,69.25,19.36,20.09-25,53.6-16.43,82-20.46,42-4.36,84-10.16,125.94-15.33,17.49,4.47,22.39,27.59,30.12,41.6,14.32,24.81,22.5,48.93,4.38,74C600.61,229.6,553.88,259,507,246.81c-12.2-2.32-22.93,8.22-34.48,11.16-18.75,3.59-38.52-1.65-57.6-1-63,19.2-129.53-34.51-189.59-14.63-10.86,28-14.15,61-15.84,91.43,2.62,21.38-10.93,33.44-24.47,48.52,27.22,17.09,21.44,48.23,26.23,76.12,6.54,41.22,9.52,83.17,19.77,123.7-.71,9.68-22.71,9-31.14,14.28-15.72-3.84-30.51-13.59-45.73-19.71-16.32-22.81-22.91-52.29-34.1-78C113.2,479.35,134.84,465,141.69,447.77ZM365,160.05c-37.7-6.72-34.4-4.11-51.44,28.08C358.05,205.72,356.38,207.93,365,160.05Zm182.67,28.5c4.21-10.74,8.23-21,12.37-31.55-23.19-1.05-32.27,2.33-43.5,23.21Z"></path><path d="M562.59,692.05c-12.9-15.11-16.41-58.1-38.78-36,1.41-7.91-3.35-18.62,2.77-23.34,40.15-16.77,80-34,120.32-50.3-3,58-44.26,43-18.31,65.62,2.34,3,.58,6.86.07,10.17C630,679.5,592.84,677.78,609.59,699c-30.28,43.15-83.08,89.29-141.58,76.24-8.87,1.79-6.64,19.46-15.41,21.94-74,9.9-148.79-7.55-217.56-32.2-10.63-15.76-17.22-28.58-34.39-11.87-9.3-25.54-47.53-54.3-7.93-67.67-15.09-10.6-29.94-21-45.06-31.62,43.26-54.63,112-16.12,168.89-10.35,15.38.37,34.17,13.08,47.13,2.13,16.16-3.1,33,7,49.5,6.47,27.89-5.1,55.76-10.29,83.67-15.33,9.73,4.47,14.55,18.25,21.36,26.62,1.91,3.12,1.83,7.62,2.09,11.53C520.24,692.67,549.25,686.23,562.59,692.05ZM329.32,737.66c3.07-13.61,6.05-26.83,9.11-40.45L294.1,703C295.36,728.82,307.33,730.45,329.32,737.66Z"></path><path d="M508.54,606.56c-24.05-49.76-26-29.22-34.28,10.68-8.28,8.37-26.26,6.81-37.92,9.93-23.68,2.47-38.85,3.22-35.62-25.43-.52-35.25-10.29-71.46-4.13-106.24,17.07-41.73-22.71-98.09,19.48-128.91,6.23-32.44-7.07-17.23-20.36-27.86-3.14-12-11.07-23.94-6.62-36.56,2.23-14.95,52.34-10.3,66.71-15.32,31.62-3.68,67.49-7.41,95.79,8.19,42.55,63.92,31,143.75,20.33,215.69-3.19,27.18-9.27,53.78-15.32,80.41C547.23,603.74,523.21,600.25,508.54,606.56Z"></path><path d="M243,267.41c24.22,6.6,47.29,15.16,72.47,15.57,8.81,2.72,25.24-2.42,30.13,5.15,1.07,63.3,30.78,123.6,18.68,186.23-36.5-10.22-51.85,14.61-63.77-32.2-8,8.67-10.14,28.21-21.54,30.91-12.79-5.17-32.28-3.17-41.83-12.08-3.63-29.27-10.88-58.57-12.61-87.86C237.27,338.56,232.78,302.37,243,267.41Z"></path><path d="M663.11,250.64c-4.24,18.26,9.24,28.85,10.95,45.47,4.69,41.55,19.83,86,17.55,126.58-23.72,14.09-10.26,43.49-13.61,63.81-21,32.45-38.72,73.26-78.16,85.65-15.65-34.95,4.08-69.37,2.9-105.63.28-23-3.44-46.19,1.42-69,10.69-23.6,20-24.29-2.87-45.25-9.07-23.21-4.32-50.62-14.7-74.1-1.33-5.77,22.09-19.14,26.93-17.62C641.05,279.68,621.78,249.19,663.11,250.64Z"></path><path d="M364.59,501.87c-14.1,31.79,2.86,68.9,2.65,102.7-1.18,7.5-8,19.88-15.25,21.73-32.16-9-68.74-12.13-98.78-24.28,11-28.6-50-151,17.61-100,9.27,2.35,18.1-8,27.4-7.34C318.79,504.49,345.32,497,364.59,501.87Z"></path></g></svg>