

<svg xmlns="http://www.w3.org/2000/svg" fill="#CCC9DC" viewBox="0 0 800 800" class="icon"><g id="Layer_213" data-name="Layer 213"><path d="M397.09,326.28c-18,0-36,0-54,0-4.47,0-8.94.24-13.41.47-3.55.18-4.35,1.08-4.56,4.58-.89,14.79-1.71,29.59-2.82,44.36-.13,1.76-1.71,3.54-2.92,5.07a34.59,34.59,0,0,1-4.68,4.77c-1.54,1.31-1.15,2.35.07,3.43a22.55,22.55,0,0,0,3.27,2.61c2.45,1.43,3,3.54,2.78,6.17q-1.36,19.8-2.6,39.61c-.37,5.77-.6,11.54-.94,17.31-.14,2.17.79,3.12,2.93,3q16.49-.7,33-1.38c23.36-.93,46.72-2.75,70.08.49,6.08.85,12.28.75,18.41,1.22,10.31.78,20.61,1.72,30.92,2.5,4.49.33,4.87-.07,4.81-4.5-.16-11.74-.67-23.49-.48-35.23.34-21.81,1-43.62,1.67-65.42.65-22.37,1.24-44.73,2.2-67.08.23-5.39-1.84-9.75-4-14.26-2.66-5.61-5.46-11.15-8.15-16.75s-5.38-11.4-8.08-17.1q-4.29-9-8.58-18.08c-2.52-5.27-5.07-10.52-7.6-15.77q-4.25-8.78-8.47-17.54c-2.78-5.76-5.59-11.49-8.35-17.26-2.68-5.6-5.32-11.22-8-16.83-1.82-3.86-3.77-7.66-5.41-11.59a10.07,10.07,0,0,1-.71-4.82q1.94-17.78,4.13-35.51c1.17-9.52,2.6-19,3.72-28.53,1.25-10.64,2.29-21.3,3.42-32,.12-1.11.21-2.23.42-3.32.81-4.2,1.23-4.7,5.58-4.31,14.94,1.33,29.86,2.82,44.79,4.22,2.79.26,5.59.35,8.37.57,2.29.18,3,1.34,2.4,3.61-2.14,8.76-4.08,17.56-6.23,26.31-1.89,7.67-4,15.27-5.94,22.93-1.12,4.5-2,9.07-3.08,13.59s-2.43,9.15-3.57,13.75c-.85,3.42-1.64,6.87-2.32,10.33a4.73,4.73,0,0,0,.42,2.42c2.76,7.38,5.49,14.77,8.37,22.11,3.46,8.8,7.11,17.52,10.57,26.32,2.72,6.9,5.2,13.89,7.9,20.79s5.6,13.73,8.31,20.63,5.16,13.71,7.81,20.54c1.91,4.93,4.16,9.73,5.88,14.73,2.83,8.26,7.59,16,6.62,25.35-.37,3.55.93,4.44,4.54,4.23l61.12-3.63c2-.12,4.1-.16,6.15-.22,4-.11,6.72-4.93,4.6-8.33-7.07-11.34-14.24-22.62-21.35-33.94-4.88-7.78-9.71-15.6-14.58-23.39q-8.88-14.16-17.78-28.29c-5.76-9.2-11.49-18.42-17.27-27.62s-11.6-18.36-17.39-27.54c-1.73-2.75-3.61-5.44-5.05-8.33a6.12,6.12,0,0,1-.19-4.28c1.74-5,3.82-9.85,5.69-14.79s3.57-9.75,5.38-14.62C517,86.74,519,81.38,521,76c1.91-5.13,3.74-10.28,5.64-15.41.8-2.18,1.26-4.67,2.66-6.38a7.46,7.46,0,0,1,5-2.1c15.47-.53,30.94-.84,46.41-1.22,4.1-.1,8.2-.28,12.3-.24,3.36,0,3.65.85,2.18,3.79-3.53,7-6.88,14.19-10.35,21.28-2.65,5.41-5.39,10.78-8,16.19-2.75,5.58-5.44,11.19-8.17,16.77-1.88,3.83-3.89,7.6-5.61,11.5a4.81,4.81,0,0,0-.09,3.77c6.35,11,12.88,21.91,19.31,32.87,7.29,12.4,14.48,24.85,21.79,37.23s14.87,24.84,22.24,37.29q9.3,15.67,18.38,31.48a7.8,7.8,0,0,1,.68,4c-.44,10.34-1,20.67-1.5,31-.15,3.16-.53,6.34-.39,9.49.18,4.26-1.58,7.68-3.72,11.13-3.74,6.08-7.27,12.29-10.92,18.42-1.32,2.22-1.1,3.61,1.54,4.74a50.9,50.9,0,0,1,9,4.94,5.43,5.43,0,0,1,1.76,4.06c-.46,13.69-1.13,27.37-1.72,41.06q-.47,10.49-.9,21c-1,24-1.73,48.07-3,72.08-.43,8.34-2.1,16.62-3.17,24.93q-1.39,10.81-2.73,21.62-2.41,20-4.77,40c-.21,1.75-.31,3.53-.39,5.29a32.62,32.62,0,0,1-7.32,20c-14.15,17.62-27.78,35.65-41.66,53.49-11.24,14.45-22.56,28.85-33.81,43.3-4.92,6.31-9.77,12.66-14.61,19a8.14,8.14,0,0,1-6.61,3.44c-23,1-46,2.2-69,3.35q-19.39,1-38.8,2.07c-16.94,1-33.86,2.28-50.81,2.79-9.09.27-18.23-.7-27.33-1.36-20.63-1.5-41.24-3.26-61.87-4.67-4.65-.32-7.72-2.38-10.5-5.85-7.4-9.22-15-18.27-22.52-27.38Q226.36,668.56,213,652.43c-9.63-11.59-19.32-23.14-28.95-34.73-6.78-8.15-13.59-16.28-20.2-24.58a9.13,9.13,0,0,1-1.89-5.53c.33-8.66,1.1-17.3,1.56-26,.62-11.54,1.1-23.09,1.66-34.64.51-10.7.92-21.41,1.63-32.11.8-12-.72-23.78-2.33-35.61-1.19-8.76-1.87-17.59-2.74-26.39a8.22,8.22,0,0,1,1.88-6.44c3.92-4.83,7.44-10,11.17-15a2.93,2.93,0,0,0-.37-4.42c-4.92-4.69-9.94-9.27-14.68-14.14a13.12,13.12,0,0,1-3-5.67c-2.61-10-1.64-20.21-1.72-30.34-.21-28.07-.12-56.14-.44-84.2-.06-5,1.56-9.27,3.34-13.64,2.8-6.86,5.71-13.68,8.59-20.51,2.78-6.57,5.61-13.13,8.38-19.71,1.84-4.35,3.59-8.74,5.41-13.11,2-4.78,4.05-9.55,6-14.34,1.92-4.62,3.77-9.28,5.7-13.9s3.93-9.2,5.87-13.81,3.73-9.09,5.63-13.62c2-4.79,4.07-9.54,6.06-14.33s4.1-9.37,5.64-14.21a9.4,9.4,0,0,0-.44-6.38c-3.27-6.75-7-13.27-10.5-19.92S197.55,82,194.13,75.42c-1.87-3.63-3.93-7.16-5.71-10.82a17.25,17.25,0,0,1-.89-4.12,13.13,13.13,0,0,1,3.61-.55C201.57,61.3,212,62.8,222.4,64.22c4.8.65,9.61,1.21,14.42,1.77,3,.34,4.8,2.23,6.17,4.66,5.72,10.1,11.38,20.23,17.12,30.31,2.61,4.59,5.57,9,7.91,13.72a8.61,8.61,0,0,1,.56,6.31c-2.32,5.54-5.32,10.79-8,16.19s-5.28,11-8,16.52-5.48,10.93-8.19,16.4c-2.63,5.32-5.2,10.67-7.81,16-2.78,5.65-5.58,11.3-8.35,17q-4,8.12-8,16.24c-2.73,5.58-5.48,11.16-8.2,16.74s-5.5,11.35-8.28,17c-2.61,5.32-5.15,10.69-7.92,15.94-2.21,4.18-4.08,8.2-2.25,13.16.88,2.39.91,5.13,1.05,7.73.13,2.27,1.16,3.22,3.33,3.1,8.84-.46,17.68-.91,26.52-1.41,9.31-.52,18.61-1.05,27.91-1.66,8.56-.56,17.1-1.25,25.65-1.85,1.79-.13,2.76-1,2.77-2.8.05-8.45,3.2-16.16,5.7-24,2-6.19,3.64-12.47,5.57-18.68s4-12.35,6-18.55,3.64-12.27,5.52-18.38c1.95-6.3,4-12.56,6-18.84,1-3,1.94-6,2.87-9q4.53-14.62,9-29.24c1.54-5,3.09-9.92,4.57-14.9a5.25,5.25,0,0,0,.08-2.49c-1.81-8.46-3.69-16.9-5.54-25.34-.86-3.91-1.75-7.8-2.53-11.72-1.07-5.38-2-10.79-3.1-16.16s-2.41-10.7-3.59-16.05c-.91-4.09-1.82-8.17-2.64-12.27-1.1-5.47-2-11-3.17-16.44-1.1-5.28-2.39-10.51-3.55-15.77-1-4.63-2.07-9.26-2.92-13.92-.54-2.92.32-3.78,3.39-3.34,5.53.78,11,1.76,16.54,2.67,8.81,1.46,17.61,3,26.43,4.39,4.15.67,5.72,1.86,6.6,6,1.9,9,3.58,18.05,5.5,27.05,1.88,8.82,4,17.59,5.9,26.4,1.13,5.18,2.07,10.4,3.16,15.58,1.16,5.46,2.4,10.9,3.61,16.34.91,4.08,1.88,8.15,2.73,12.25,1.08,5.28,2,10.59,3.12,15.88.61,3,1.82,6,1.95,9a28.32,28.32,0,0,1-1.31,8.92c-1.62,5.51-3.6,10.92-5.48,16.36-2,5.78-4.08,11.54-6.08,17.33-1.88,5.44-3.68,10.9-5.55,16.34-2,5.7-4,11.38-6,17.08-1.88,5.44-3.71,10.89-5.58,16.33l-6,17.34q-2.79,8-5.57,16c-2.07,5.95-4.15,11.91-6.18,17.88-.57,1.67-1,3.38-1.5,5.09-.83,3-.39,3.64,2.81,3.74,7.18.23,14.36.38,21.53.58q41.24,1.13,82.47,2.23a91.62,91.62,0,0,0,10.61-.38c2.86-.26,4.43.88,5.1,3.53.21.82.49,1.62.63,2.44q2.3,13,4.55,26.12c.41,2.35-.39,3.2-3.27,3.15-5.59-.09-11.18-.43-16.77-.46-13.15-.08-26.29,0-39.44,0ZM266.27,606.56v.37c-5.5,0-11-.18-16.49.07-3.2.15-5-1.32-6.54-3.78-2.77-4.4-5.66-8.72-8.5-13.07-4.07-6.22-8.2-12.39-12.17-18.66-1.22-1.93-1.58-3.85,1.06-5.38,3.36-2,6.51-4.28,9.74-6.47,1.61-1.1,2.71-2.19,1.92-4.59-1.91-5.81-3.54-11.71-5.06-17.64a3.14,3.14,0,0,1,1.39-2.77,54.32,54.32,0,0,1,10.53-2.44c10.41-1,20.61,1.13,30.84,2.57,3.75.53,4.3.17,4.11-3.67-.39-8-.87-16-1.26-24q-.72-14.65-1.34-29.32c-.62-15.46-1.84-30.93-1.61-46.37.29-18.53,1.82-37,2.84-55.55.78-14.05,1.64-28.1,2.39-42.15.21-4-.35-4.42-4.29-4.06-10.85,1-21.7,1.95-32.54,3.1-12.32,1.29-24.61,2.8-36.92,4.14-2.07.22-2.8,1.11-2.46,3.1.66,3.85,1.35,7.7,1.9,11.57,1.14,8,2.18,16.05,3.29,24.07q1.11,8,2.31,16,2.66,17.67,5.32,35.34a10.35,10.35,0,0,1-.07,2.22c-.62,7.61-1.3,15.22-1.87,22.84-.25,3.33.5,3.94,3.83,3.67,10.68-.85,21.35-1.75,32-2.51,4.53-.32,5.33.43,5.92,5,.49,3.88.74,7.79,1.26,11.67,1.41,10.7,3,21.38,4.35,32.09.46,3.5-.6,4.38-4,4.12-7.34-.56-14.69-1.06-22-1.55-6.79-.44-13.59-.7-20.36-1.3-4.81-.42-5.38-.28-5.86,4.58-.85,8.53-1.43,17.08-2.22,25.61-1.25,13.45-2.65,26.89-3.77,40.34A8.78,8.78,0,0,0,203.6,579c3,4.15,6.28,8.06,9.45,12.08L253.12,642c1.26,1.6,2.77,2.17,4.63,1.13,5.83-3.26,11.7-6.43,17.43-9.83,4.17-2.48,5.2-2.31,7.77,1.87,1.94,3.16,4.06,6.21,6.08,9.33,1.87,2.88,3.86,5.69,5.49,8.7.9,1.65,1.31,3.91-1.2,4.64a37.48,37.48,0,0,1-8.75,1.61c-3.62.16-4.33.45-3.85,4.12.5,3.86,1.48,7.66,2.1,11.51s1.05,4.72,5,5c8.36.59,16.74,1,25.12,1.37,2.14.11,2.94-1.09,2.26-3-1-2.89-2.08-5.75-3.23-8.58-2.75-6.79-5.59-13.53-8.32-20.32-2.66-6.63-5.16-13.31-7.83-19.92s-5.72-13.3-8.22-20.08c-.87-2.36-2.08-2.94-4.27-2.91C277.65,606.6,272,606.56,266.27,606.56Zm175.57,52.22a25.16,25.16,0,0,0,1.47-2.52c1.74-4.29,3.45-8.61,5.17-12.92,2-5.07,4.08-10.14,6.1-15.22,1.91-4.83,3.76-9.68,5.68-14.51s3.89-9.62,5.81-14.44c2.05-5.18,4.05-10.37,6.08-15.55q2.75-7,5.52-14c2.16-5.42,1.32-11,1-16.56-.21-3.38-1-3.76-4.46-3.5-6.68.5-13.38.73-20.08,1a6,6,0,0,1-2.72-.49q-9.54-4.54-19-9.23a9.36,9.36,0,0,1-5.18-5.88c-1.79-6.15-3.67-12.26-5.43-18.42-1.29-4.52-2.12-5.23-6.79-5.13-8.56.18-17.12.7-25.67.51-13.42-.3-26.83-1.07-40.24-1.65-10.52-.45-21-.9-31.56-1.41-4.13-.2-4.54-.07-4.92,4.05-.84,9.09-1.44,18.21-2.24,27.3-1.14,13-2.46,26-3.48,39a12.25,12.25,0,0,0,1.47,6.29c2,3.85,4.55,7.43,6.81,11.16,5.1,8.41,10.11,16.87,15.24,25.27,4.26,7,8.65,13.85,12.94,20.79,4.14,6.72,8.18,13.5,12.34,20.2a7.54,7.54,0,0,0,6.09,3.73c10.08,1.11,20.11,2.62,30.17,4a14.46,14.46,0,0,0,2.29-.17,23.49,23.49,0,0,0-2.5-3.15c-2.93-2.58-6-5-8.93-7.59s-5.25-5.58-4.81-9.87c.37-3.71,2.59-6.29,5.32-8.51,3.21-2.61,6.47-5.16,10.07-8a14,14,0,0,0-2-.81c-9.63-1.66-19.25-3.37-28.9-4.89a8.7,8.7,0,0,1-6.26-3.59c-5.72-7.79-11.58-15.48-17.47-23.14-2.78-3.62-5.09-7-2.85-12,2-4.45,3-9.32,4.52-14,1.68-5.25,9.94-9.08,15.6-6.88,3.79,1.47,7.86,2.23,11.81,3.28,5.2,1.39,10.48,2.54,15.59,4.19,7.86,2.52,9.31,2.27,14.7-3.78,3-3.4,6.11-6.75,9.19-10.1,1.27-1.37,2.38-1.46,4-.11,4.45,3.65,9,7.17,13.75,10.46,4.47,3.12,7.8,6.35,5,12.39-.93,2,.16,3.15,2.38,3.69,6.05,1.45,12.05,3.13,18.07,4.72,2.76.73,3.57,2.17,2.72,4.94-.92,3-1.79,6.06-2.83,9-2.3,6.56-4.13,13.36-7.21,19.53A19.64,19.64,0,0,1,428.37,637c-2.51.41-5.07.48-7.62.71l-.43.84Zm79.66-272.4H522c0,5.31.14,10.62,0,15.93-.57,19.23.92,38.37,2.62,57.5.23,2.51,1.1,3.62,3.76,3.63,14.36.06,28.71.26,43.06.38,3.51,0,4-.44,4-4.09,0-4.66-.15-9.32-.15-14,0-7.45-.22-14.91.17-22.34.27-5,1.48-9.93,2.21-14.9,1-7.18,2-14.38,3-21.56,1.37-9.11,2.84-18.2,4.27-27.29,1-6.16,1.81-12.35,3-18.47,1-5.19.67-5.69-4.68-6.05q-23.15-1.56-46.29-3.22c-4.08-.3-8.15-.86-12.23-1.28-2.1-.22-3.16.75-3.15,2.87,0,1,0,2.05,0,3.08ZM578.17,544.3h-1c0-9.22,0-18.45,0-27.67,0-4-.64-4.63-4.75-4.91-4.37-.29-8.76-.33-13.13-.63-8.82-.62-17.64-1.37-26.47-2-1.49-.1-3.33-.53-3.72,1.83-.63,3.82.53,8.54,2.27,9.16.09,0,.19,0,.27.08,10,3.32,20.1,6.58,30.1,10,2,.7,4.55,1.64,4.38,4.42-.35,6-.85,12.06-1.57,18-.93,7.79-11.21,17.3-20,17.09-2.61-.06-5.22,0-7.83-.14-2-.1-2.85.75-2.8,2.79s.35,4.28-.36,6.08c-2.22,5.59-4.86,11-7.35,16.51q-4.24,9.38-8.52,18.72c-2,4.3-4,8.57-5.94,12.88-2.67,5.92-5.3,11.85-7.94,17.77s-5.15,11.71-7.8,17.52-5.56,11.73-8.2,17.65c-1.16,2.61-.58,3.44,2.37,3.86,5.53.79,11.09,1.37,16.59,2.32,2.72.47,4.24-.68,5.51-2.74q5.75-9.36,11.51-18.73c1.37-2.22,1.79-4.43.34-6.8-1.88-3.08-3.64-6.25-5.59-9.29s-1.88-5-.15-8c2.81-4.9,5.46-9.9,8.2-14.85s5.46-10.13,8.45-15c1.81-3,2.78-2.92,5.46-.57,2.31,2,4.58,4.08,6.91,6.08,3.66,3.13,4.14,3,6.66-1.12,7-11.49,13.93-23,21.09-34.42a19.51,19.51,0,0,0,3.13-11.56C578,560.52,578.17,552.4,578.17,544.3Z"></path><path d="M408.16,800c-8.19-.69-17.94-1.49-27.67-2.35-11.41-1-22.84-1.92-34.22-3.16-7.77-.85-15.48-2.18-23.21-3.34-5.15-.77-10.28-1.76-15.45-2.37-2.89-.34-4.52-2-5.74-4.27-4.2-7.74-8.3-15.54-12.47-23.3-2.64-4.89-5.27-9.8-8-14.62-1.93-3.36-1.14-5,2.68-5.25,17.83-1.39,35.65-2.87,53.49-4.23,7.25-.55,14.52-.72,21.77-1.29,12.25-1,24.49-2.26,36.75-3.13,5.66-.4,11.46-.76,17,0,4,.58,7.66,3.1,11.44,4.81,6,2.73,11.93,5.54,17.93,8.24,2.19,1,4.65,1.49,6.66,2.73,4.56,2.82,8.33.59,12.27-1.33,5.75-2.8,11.5-5.58,17.3-8.27,4.21-1.95,8.47-3.78,12.76-5.55a11.17,11.17,0,0,1,4-.93c6.43-.09,12.87-.07,19.3,0,3.44,0,4.35,1,3.17,4.31-1.8,5-4,9.78-6,14.65-1.86,4.45-3.78,8.87-5.64,13.31s-3.74,9.09-5.65,13.62c-.94,2.22-2.19,4.33-2.9,6.61-1.21,3.83-4.26,4.56-7.58,5.09-4,.64-8.07,1.39-12.12,2-7.46,1.08-14.92,2.09-22.39,3.1-8.86,1.2-17.7,2.53-26.58,3.5C422.62,799.28,416.19,799.47,408.16,800Z"></path><path d="M407.63,437.15c-3.67-.83-8.66-1.86-13.6-3.08-4.32-1.07-8.57-2.44-12.89-3.54-4.14-1-8.34-1.88-12.49-2.91a15.82,15.82,0,0,1-2.86-1.35c.59-1.1.92-2.52,1.81-3.23,3.91-3.15,8-6.12,12-9.1q13.66-10.12,27.38-20.19c8.07-5.93,17.14-3.86,22.3,3.47,7.43,10.56,14.48,21.38,21.69,32.09,1.44,2.14,1.18,2.81-1.4,3.18-5,.71-10,1.41-15,1.95C426.08,435.36,417.55,436.16,407.63,437.15Z"></path><path d="M354.37,529.43c12.17.86,24.33,1.7,36.5,2.61a13.66,13.66,0,0,1,2.83.85,9.07,9.07,0,0,1-1.29,2.52c-5.52,5.49-10.58,11.68-16.88,16.1a19.7,19.7,0,0,1-16.75,2.66c-8.54-2.35-13.24-8-16.08-15.87-.69-1.91-1.65-3.73-2.42-5.61-1.07-2.63-.27-3.73,2.63-3.62,3.82.15,7.63.38,11.45.57Z"></path></g></svg>