<svg xmlns="http://www.w3.org/2000/svg" fill="#CCC9DC" viewBox="0 0 800 800" class="icon"><title>pirate</title><g id="Layer_203" data-name="Layer 203"><path d="M413.85,687.48c-86.17,11.65-174.8-154.29-174.8-154.29l12.28,105S361,793.26,429.59,795.23,637.07,651.92,637.07,651.92L593,515.21c-44.11,154.62-93,160.57-179.16,172.27Z"></path><path d="M779.37,232C715.88,209.28,669,166.56,635.21,108.55,626.71,94,615.52,81,605.69,67.19c-22.07-31-53.21-48-89.22-56.71C472-.24,471.28.49,456.25,44.42c-3,8.83-5.89,17.7-8.83,26.55l-5.73.61c-1.09-11.5-3.12-23-3.07-34.5C438.75,10.68,429,4.22,402,9.84,301.5,30.75,221.1,78.69,168,169.09c-29,49.47-66.58,90.23-124.63,107.12-10.78,3.14-19.81,12-29.92,17.77C-7.72,306.1-.46,325.3,11.72,332.57c29.52,17.6,45.66,46.57,68.07,69.93,35.73,37.23,61.81,43,105.09,14.5,19.13-12.57,39.06-20.4,60.69-25.31l8.46,28.9c24.79,80.91,81.41,221.78,177.25,231.05,134.91,13,141.87-242.22,141.87-242.22a743.47,743.47,0,0,0-178-33.75q9.22-.72,18.44-1.55c85.16-7.73,170.62-22.71,254.92,6.54,22.6,7.85,40.92,1.87,56.51-16.68,24.58-29.24,48.54-58.74,68-91.84C804.59,252.34,803,240.43,779.37,232Zm-272.46-8.76c-1.18,7.26-2.74,14.52-3.15,21.83-1.59,28.5-11,34.93-41.61,25.18-.5,18.1,13.11,43.15-16.85,41.15-17.94-1.2-50.07,14.74-51.63-25.26-.34-8.63,1.56-25.17-16.1-11.36-6.55-14.53-29.64-15.51-24.88-41.37,11.58-62.83,21.77-75.28,84.82-81.78C475.72,147.68,512.94,186.11,506.91,223.23Z"></path><path d="M422.87,222.66c-6.07,9.58-14,16.27-25.7,14.43-9.41-1.48-22.06-5.49-21.57-15.13.55-10.54,12.11-16.75,23.54-17.35C411.45,204,417.75,212.32,422.87,222.66Z"></path><path d="M464.2,248.15c-11-5.1-19.38-14.63-19.53-25.37s13.35-12.05,21.5-12.15c10.73-.13,16,10.34,16.52,19.33C483.33,240.59,473.82,245,464.2,248.15Z"></path><path d="M427,281.39c-6-.21-12.16-2.17-11-8.25,1.61-8.28-1.6-20.29,10.5-23.07,6.81-1.57,7.72,5.64,7.92,10.62C434.75,268.53,437.75,277.8,427,281.39Z"></path></g></svg>