<?xml version="1.0" encoding="UTF-8"?>
<svg version="1.1" fill="#CCC9DC"  xmlns="http://www.w3.org/2000/svg" width="320" height="320">
<path d="M0 0 C4.47082672 1.3291647 7.70803779 3.63070645 11.44921875 6.36328125 C12.56756104 7.167052 12.56756104 7.167052 13.70849609 7.98706055 C20.38358907 12.86821332 26.41974745 18.20318495 32.32421875 23.98828125 C32.99839844 24.63539062 33.67257813 25.2825 34.3671875 25.94921875 C37.88196363 29.37864712 41.12329237 32.99965566 44.3359375 36.7109375 C46.6584727 39.37113008 49.01415951 41.99756074 51.38671875 44.61328125 C51.83990479 45.11674072 52.29309082 45.6202002 52.76000977 46.13891602 C55.44023113 49.0751367 58.20744037 51.83905091 61.14453125 54.51953125 C72.23976737 64.73692696 72.23976737 64.73692696 72.63671875 70.36328125 C71.728539 75.96830981 68.31936918 79.23268529 64.32421875 82.98828125 C63.79183594 83.67664063 63.25945312 84.365 62.7109375 85.07421875 C60.19717521 87.99827328 58.17761814 89.81453843 54.20947266 90.18652344 C48.87096054 90.2147983 43.61452108 89.66087311 38.32421875 88.98828125 C39.06946534 93.52890741 40.6742376 96.21406567 43.32421875 99.98828125 C44.00882821 101.31249124 44.67961127 102.64414457 45.32421875 103.98828125 C40.2515435 110.80728733 35.29940917 117.43487043 29.015625 123.20703125 C27.1927026 124.96216652 27.1927026 124.96216652 26.03833008 127.46435547 C23.9870959 130.48467435 22.5641454 130.88630563 19.20703125 132.15234375 C16.4129159 133.5658106 16.4129159 133.5658106 14.32421875 135.98828125 C12.88208548 142.10919779 13.05979028 148.10702982 13.19921875 154.36328125 C13.20116187 156.07031338 13.19860472 157.77735694 13.19140625 159.484375 C13.18360006 163.65427782 13.23732575 167.81932014 13.32421875 171.98828125 C11.34421875 171.98828125 9.36421875 171.98828125 7.32421875 171.98828125 C8.20324693 176.89848609 8.20324693 176.89848609 11.37101841 180.41120338 C13.32421875 181.98828125 13.32421875 181.98828125 13.82479 184.23316002 C13.82499928 185.11619616 13.82520857 185.99923229 13.82542419 186.9090271 C13.83525833 187.92403793 13.84509247 188.93904877 13.85522461 189.9848175 C13.84555664 191.09761581 13.83588867 192.21041412 13.82592773 193.35693359 C13.83403221 195.11581657 13.83403221 195.11581657 13.84230042 196.91023254 C13.85267533 200.12746665 13.8450712 203.34403478 13.8285892 206.56122541 C13.8147429 209.92881157 13.82119854 213.2963666 13.82472229 216.66397095 C13.82742551 222.32164103 13.81394201 227.97909912 13.79077148 233.63671875 C13.76418654 240.17319281 13.76240595 246.7093118 13.77415985 253.24582136 C13.78495045 259.53615627 13.77873889 265.82636302 13.76460457 272.11668777 C13.75885324 274.79202944 13.75892076 277.46727707 13.76366997 280.14262009 C13.76657764 283.88224492 13.75009414 287.62128842 13.72827148 291.36083984 C13.73277313 292.46958969 13.73727478 293.57833954 13.74191284 294.72068787 C13.65094051 304.09518574 13.65094051 304.09518574 10.32421875 307.98828125 C6.45569814 311.39626369 3.20696305 312.71037163 -1.99609375 312.53125 C-5.33122579 311.85547252 -7.93891328 310.43638039 -10.98828125 308.92578125 C-22.71862834 303.40645016 -38.32362586 305.39890624 -50.78881836 307.51733398 C-54.48662632 308.12055357 -57.93456421 308.05278499 -61.67578125 307.98828125 C-62.86361099 304.82915961 -64.02202758 301.65999017 -65.17578125 298.48828125 C-65.50964844 297.60140625 -65.84351562 296.71453125 -66.1875 295.80078125 C-68.18136678 290.26678366 -69.06050614 285.86907597 -68.67578125 279.98828125 C-54.96787271 279.8616628 -41.35666257 280.10360532 -27.67578125 280.98828125 C-27.34578125 276.36828125 -27.01578125 271.74828125 -26.67578125 266.98828125 C-36.23339385 264.10296424 -45.07169312 264.88902968 -54.86328125 265.98828125 C-66.46143983 267.29016111 -78.02031025 267.18445049 -89.67578125 266.98828125 C-90.90234375 260.32421875 -90.90234375 260.32421875 -88.86328125 257.30078125 C-84.74349126 254.31191401 -80.4600407 252.65115978 -75.67578125 250.98828125 C-75.67578125 250.32828125 -75.67578125 249.66828125 -75.67578125 248.98828125 C-76.59101562 248.529375 -77.50625 248.07046875 -78.44921875 247.59765625 C-79.65005465 246.97847524 -80.85055833 246.35864963 -82.05078125 245.73828125 C-82.6540625 245.43792969 -83.25734375 245.13757813 -83.87890625 244.828125 C-87.43482819 242.97114354 -89.26527915 241.74232206 -90.67578125 237.98828125 C-90.87109375 235.62890625 -90.87109375 235.62890625 -90.80078125 233.23828125 C-90.78273438 232.4390625 -90.7646875 231.63984375 -90.74609375 230.81640625 C-90.72289063 230.213125 -90.6996875 229.60984375 -90.67578125 228.98828125 C-57.41623554 228.39749865 -57.41623554 228.39749865 -42.79248047 230.92114258 C-36.46408287 232.00905812 -31.37485287 231.98828125 -24.67578125 231.98828125 C-23.68578125 224.06828125 -22.69578125 216.14828125 -21.67578125 207.98828125 C-31.90578125 207.65828125 -42.13578125 207.32828125 -52.67578125 206.98828125 C-52.67578125 192.98828125 -52.67578125 192.98828125 -51.67578125 187.98828125 C-42.43578125 187.65828125 -33.19578125 187.32828125 -23.67578125 186.98828125 C-24.00578125 185.00828125 -24.33578125 183.02828125 -24.67578125 180.98828125 C-23.75146484 178.85766602 -23.75146484 178.85766602 -22.67578125 176.98828125 C-22.26878077 169.4436983 -23.19049258 162.04108311 -24.05078125 154.55078125 C-24.17710937 153.38740234 -24.3034375 152.22402344 -24.43359375 151.02539062 C-24.81080135 147.67390108 -25.23449921 144.3318709 -25.67578125 140.98828125 C-25.77898682 140.05628906 -25.88219238 139.12429687 -25.98852539 138.1640625 C-26.94373831 131.5234776 -29.40151697 128.25193852 -34.36328125 123.86328125 C-35.57812053 122.73847839 -36.79035542 121.61085627 -38 120.48046875 C-38.91712769 119.63186279 -38.91712769 119.63186279 -39.8527832 118.76611328 C-41.70881999 116.95606106 -43.39078844 115.06848966 -45.07421875 113.09765625 C-48.2748394 109.36098211 -51.72997286 105.98810961 -55.2878418 102.59423828 C-63.1780545 95.0246043 -70.88145307 87.48446879 -74.67578125 76.98828125 C-74.26516792 67.86924365 -59.94156514 56.83114927 -53.90234375 50.4375 C-51.50072524 47.88843775 -49.18252477 45.29249572 -46.92578125 42.61328125 C-42.96142033 38.04367438 -38.68346622 33.40223064 -33.67578125 29.98828125 C-28.89170918 30.00696903 -25.51765591 34.31987879 -22.2265625 37.3671875 C-12.67578125 47.18123684 -12.67578125 47.18123684 -12.67578125 52.98828125 C-14.63959755 54.70063326 -16.57003509 56.22020531 -18.67578125 57.73828125 C-19.86876522 58.62418141 -21.06017235 59.51220892 -22.25 60.40234375 C-22.83442871 60.83836914 -23.41885742 61.27439453 -24.02099609 61.72363281 C-27.39224101 64.30006371 -30.54312825 67.13009029 -33.67578125 69.98828125 C-29.12981239 84.38758164 -24.01625571 93.49917104 -10.67578125 100.98828125 C-8.73728565 102.17415532 -6.7996751 103.36147836 -4.86328125 104.55078125 C-3.47021535 105.36801705 -2.07553496 106.18255394 -0.67578125 106.98828125 C8.74150659 99.9664962 8.74150659 99.9664962 17.26171875 91.92578125 C21.33436178 87.60361086 26.19911488 84.59221294 31.22241211 81.48803711 C35.81556334 78.61813343 35.81556334 78.61813343 38.32421875 73.98828125 C37.42960938 73.22644531 36.535 72.46460937 35.61328125 71.6796875 C30.06595933 66.94563393 24.5280135 62.21304335 19.13671875 57.30078125 C15.60683395 54.1098589 12.02983331 50.98714191 8.38671875 47.92578125 C7.49082031 47.17167969 6.59492188 46.41757812 5.671875 45.640625 C3.39381281 43.70050084 3.39381281 43.70050084 0.32421875 43.98828125 C-0.44664062 44.22417969 -1.2175 44.46007813 -2.01171875 44.703125 C-5.78405971 45.1069093 -7.24751155 43.72757326 -10.30078125 41.55078125 C-11.33976562 40.81988281 -12.37875 40.08898438 -13.44921875 39.3359375 C-14.51398438 38.56121094 -15.57875 37.78648438 -16.67578125 36.98828125 C-17.74054688 36.22386719 -18.8053125 35.45945313 -19.90234375 34.671875 C-22.50490367 32.79224839 -25.0953918 30.8981758 -27.67578125 28.98828125 C-27.20870238 24.64241697 -24.60918874 22.65501864 -21.55078125 19.73828125 C-20.54232465 18.76242386 -19.53581588 17.78454961 -18.53125 16.8046875 C-17.79527588 16.08756592 -17.79527588 16.08756592 -17.04443359 15.35595703 C-15.22553811 13.53835936 -13.5366298 11.62739451 -11.86328125 9.67578125 C-11.321875 9.051875 -10.78046875 8.42796875 -10.22265625 7.78515625 C-9.18106765 6.57523009 -8.14994903 5.3562203 -7.12890625 4.12890625 C-3.44114693 -0.01507072 -3.44114693 -0.01507072 0 0 Z " transform="translate(169.67578125,4.01171875)"/>
<path d="M0 0 C0 2 0 4 0 6 C-3.33333333 9 -3.33333333 9 -6 9 C-5.34 11.31 -4.68 13.62 -4 16 C-6 16 -6 16 -7.625 14.5 C-8.07875 14.005 -8.5325 13.51 -9 13 C-9.99 14.98 -10.98 16.96 -12 19 C-12.66 19 -13.32 19 -14 19 C-13.7215625 20.60875 -13.7215625 20.60875 -13.4375 22.25 C-13.0695432 25.40391546 -12.95534657 27.09818492 -14 30 C-17 29 -17 29 -18.25 27.1875 C-19.17044952 24.50285555 -18.96760105 23.65141659 -18 21 C-16.25 18.5546875 -16.25 18.5546875 -14 15.875 C-13.19691406 14.91722656 -12.39382812 13.95945312 -11.56640625 12.97265625 C-7.77901958 8.58574414 -3.91825582 4.27025044 0 0 Z "  transform="translate(114,56)"/>
<path d="M0 0 C0.33 0.66 0.66 1.32 1 2 C-0.28062485 3.7074998 -1.61767557 5.37373596 -3 7 C-3.66 7 -4.32 7 -5 7 C-5.103125 7.639375 -5.20625 8.27875 -5.3125 8.9375 C-5.539375 9.618125 -5.76625 10.29875 -6 11 C-6.99 11.33 -7.98 11.66 -9 12 C-9.33 12.99 -9.66 13.98 -10 15 C-10.66 14.67 -11.32 14.34 -12 14 C-12 11 -12 11 -10.13671875 8.80859375 C-8.92435547 7.63490234 -8.92435547 7.63490234 -7.6875 6.4375 C-6.88699219 5.65246094 -6.08648437 4.86742187 -5.26171875 4.05859375 C-3 2 -3 2 0 0 Z "  transform="translate(133,37)"/>
<path d="M0 0 C2.31 0 4.62 0 7 0 C7 0.66 7 1.32 7 2 C7.99 2.33 8.98 2.66 10 3 C10 3.66 10 4.32 10 5 C11.32 5 12.64 5 14 5 C14 6.65 14 8.3 14 10 C13.45730469 9.59007812 12.91460937 9.18015625 12.35546875 8.7578125 C11.64003906 8.21898437 10.92460937 7.68015625 10.1875 7.125 C9.47980469 6.59132813 8.77210938 6.05765625 8.04296875 5.5078125 C6.39543703 4.29185219 4.70375789 3.13583859 3 2 C2.01 2.33 1.02 2.66 0 3 C0 2.01 0 1.02 0 0 Z "  transform="translate(168,45)"/>
<path d="M0 0 C-0.66 1.32 -1.32 2.64 -2 4 C-2.66 4 -3.32 4 -4 4 C-4.103125 4.598125 -4.20625 5.19625 -4.3125 5.8125 C-5.11209475 8.35666511 -5.81974318 9.4657452 -8 11 C-10.10546875 10.57421875 -10.10546875 10.57421875 -12 10 C-10.38113585 8.32737283 -8.7547271 6.66204463 -7.125 5 C-6.22007812 4.071875 -5.31515625 3.14375 -4.3828125 2.1875 C-2 0 -2 0 0 0 Z "  transform="translate(193,92)"/>
<path d="M0 0 C0.125 2.375 0.125 2.375 0 5 C-0.66 5.66 -1.32 6.32 -2 7 C-1.01 8.65 -0.02 10.3 1 12 C-1.91517292 10.92598892 -3.77810176 10.22189824 -6 8 C-5.80432431 5.06486471 -4.97311755 3.96975725 -3 1.75 C-1 0 -1 0 0 0 Z "  transform="translate(148,25)"/>
<path d="M0 0 C1.98 0 3.96 0 6 0 C6.33 1.65 6.66 3.3 7 5 C7.639375 5.103125 8.27875 5.20625 8.9375 5.3125 C9.618125 5.539375 10.29875 5.76625 11 6 C11.33 6.99 11.66 7.98 12 9 C11.34 9.66 10.68 10.32 10 11 C8.33035479 9.35718838 6.6643536 7.71067239 5 6.0625 C4.071875 5.14597656 3.14375 4.22945312 2.1875 3.28515625 C0 1 0 1 0 0 Z "  transform="translate(132,124)"/>
<path d="M0 0 C1.32 0.99 2.64 1.98 4 3 C2.8141763 6.37503669 1.72426311 8.64722731 -1 11 C-1.14285714 3.57142857 -1.14285714 3.57142857 0 0 Z "  transform="translate(211,103)"/>
<path d="M0 0 C-4.95 0.33 -9.9 0.66 -15 1 C-14 -1 -14 -1 -10.625 -2.1875 C-5.83334591 -3.26149143 -4.40254865 -2.20127433 0 0 Z "  transform="translate(114,270)"/>
<path d="M0 0 C0 0.99 0 1.98 0 3 C-3.96 3 -7.92 3 -12 3 C-12.33 2.34 -12.66 1.68 -13 1 C-11.20843648 0.83222817 -9.4167455 0.66581706 -7.625 0.5 C-6.62726563 0.4071875 -5.62953125 0.314375 -4.6015625 0.21875 C-2 0 -2 0 0 0 Z "  transform="translate(147,236)"/>
<path d="M0 0 C1.13199353 0.9080162 2.25532363 1.82683826 3.375 2.75 C4.00148437 3.26046875 4.62796875 3.7709375 5.2734375 4.296875 C7.08312318 6.08199481 8.00117455 7.67949644 9 10 C8.34 10 7.68 10 7 10 C7 9.34 7 8.68 7 8 C5.35 7.67 3.7 7.34 2 7 C1.34 4.69 0.68 2.38 0 0 Z "  transform="translate(210,38)"/>
<path d="M0 0 C0.99 0.66 1.98 1.32 3 2 C3 2.99 3 3.98 3 5 C-0.33333333 8 -0.33333333 8 -3 8 C-3 7.01 -3 6.02 -3 5 C-2.34 5 -1.68 5 -1 5 C-1.33 4.01 -1.66 3.02 -2 2 C-1.34 2 -0.68 2 0 2 C0 1.34 0 0.68 0 0 Z "  transform="translate(154,52)"/>
<path d="M0 0 C0.268125 0.639375 0.53625 1.27875 0.8125 1.9375 C1.88667752 4.33131686 1.88667752 4.33131686 5 5 C4.67 6.32 4.34 7.64 4 9 C1 8 1 8 -0.25 6.1875 C-1.11637742 3.66056586 -0.88492145 2.47778006 0 0 Z "  transform="translate(96,77)"/>
<path d="M0 0 C1.65 0 3.3 0 5 0 C5 0.66 5 1.32 5 2 C3.02 2.99 3.02 2.99 1 4 C1.99 5.485 1.99 5.485 3 7 C0.5625 6.625 0.5625 6.625 -2 6 C-2.33 5.34 -2.66 4.68 -3 4 C-2.34 3.67 -1.68 3.34 -1 3 C-0.67 2.01 -0.34 1.02 0 0 Z "  transform="translate(165,42)"/>
<path d="M0 0 C1.32 0.33 2.64 0.66 4 1 C2.02 3.31 0.04 5.62 -2 8 C-2.33 6.68 -2.66 5.36 -3 4 C-1.5625 1.75 -1.5625 1.75 0 0 Z "  transform="translate(197,124)"/>
<path d="M0 0 C1.31611677 0.95336021 2.62778961 1.91285774 3.9375 2.875 C4.66839844 3.40867187 5.39929688 3.94234375 6.15234375 4.4921875 C8 6 8 6 9 8 C7.35 7.67 5.7 7.34 4 7 C4 6.34 4 5.68 4 5 C3.01 5 2.02 5 1 5 C0.67 3.35 0.34 1.7 0 0 Z "  transform="translate(188,16)"/>
<path d="M0 0 C2.9375 0.375 2.9375 0.375 6 1 C6.33 1.66 6.66 2.32 7 3 C3.7 3.33 0.4 3.66 -3 4 C-2.01 2.68 -1.02 1.36 0 0 Z "  transform="translate(167,4)"/>
<path d="M0 0 C2.88575819 0.39803561 3.82189513 0.79009069 5.75 3.0625 C6.36875 4.0215625 6.36875 4.0215625 7 5 C2.545 4.01 2.545 4.01 -2 3 C-1.34 2.01 -0.68 1.02 0 0 Z "  transform="translate(136,34)"/>
<path d="M0 0 C2.64465038 3.1254959 3.84414715 6.08788267 5 10 C4.01 10 3.02 10 2 10 C2 8.35 2 6.7 2 5 C1.34 5 0.68 5 0 5 C0 3.35 0 1.7 0 0 Z "  transform="translate(139,85)"/>
<path d="M0 0 C0.66 0 1.32 0 2 0 C1.42655063 2.86724686 1.1385485 3.8614515 -1 6 C-2.32 4.35 -3.64 2.7 -5 1 C-2.525 1.495 -2.525 1.495 0 2 C0 1.34 0 0.68 0 0 Z "  transform="translate(206,70)"/>
<path d="M0 0 C0.66 0.33 1.32 0.66 2 1 C1.3125 2.9375 1.3125 2.9375 0 5 C-2.625 5.75 -2.625 5.75 -5 6 C-3.35 4.02 -1.7 2.04 0 0 Z "  transform="translate(120,50)"/>
<path d="M0 0 C2.97 0.495 2.97 0.495 6 1 C6 2.65 6 4.3 6 6 C3.97945196 4.35830472 1.97956942 2.69088222 0 1 C0 0.67 0 0.34 0 0 Z "  transform="translate(176,49)"/>
</svg>
