<svg id="journal" xmlns="http://www.w3.org/2000/svg" fill="#CCC9DC" viewBox="0 0 800 800" class="icon"><title>journal</title><path d="M442.61,758.48c3.58-3.2,6.71-2.68,9.57-2.47,57.44,4.31,114.55-2.16,171.77-4.92,4.15-.2,5.4-1.68,5.87-5.6,3.83-32.21,10.5-64.18,11.41-96.61.65-23.24,4.6-46.08,5.26-69.31,1.4-49.67,3.52-99.36,11-148.62.65-4.28,1-8.66,3.74-13,2.82,7.43,3.73,14.71,4.23,22,1.7,24.57,2.54,49.19,4.94,73.73,1.28,13.1-2.57,26-4.73,39-5.13,30.68-6.33,61.85-11.06,92.49-4.25,27.51-1.6,55-3.86,82.48-.89,10.77-1.34,21.57-2.62,32.33-.66,5.58-3.13,7.21-8.5,7.41-11.78.44-23.45-1.14-35.19-1.31A398.17,398.17,0,0,0,534.23,771c-21,3.41-41.21-1-61.43-5.66C463,763.12,453,762,442.61,758.48Z"></path><path d="M718.43,92.53c-.06-3.07-.11-6.14-2.71-8.2-8.14-6.44-16.41-12.71-27-14.71-12.51-2.37-15.36,0-16.09,12.59-.3,5.08.55,8.78,6.58,8.89,3,.05,3.14,2,3,4.27-1.82,22.26-.64,44.7-3.84,66.88-.24,1.69.12,3.77-2.54,4.06q-2.41-19.58-4.83-39.08l-2,.16c-.58,12.48-1.61,25-1.65,37.46A1110.69,1110.69,0,0,1,656.53,317c-4.4,31.21.54,61.42,10.17,91.08.8,2.48,1,5.52,4.18,6.5,2.27-2.06,1.92-4.69,1.91-7.2-.06-14.51-.23-29-.23-43.54,0-21.65-3.2-43.25-1.54-64.88,2.25-29.41,9.8-58,13.94-87.19,3.84-27.1,9.84-53.87,9.07-81.47-.18-6.63,0-13.27,0-19.91,4.82,4.55,6.47,9.49,6.23,14.91-1.31,28.6,1.06,57.09,2.52,85.6.65,12.89,1.72,25.82-.24,38.64-6.69,43.73-9.67,87.86-14.51,131.79-4,36-3.17,72.24-5.34,108.34-2.43,40.45-5.25,80.9-6.49,121.43-1.49,48.41-11.59,96-15.53,144.17-1.3,15.84-7,21.38-22.48,24.21-4.24.78-8.73.54-13.07.27-7.35-.46-14.67-1.28-22-2-43.31-4.31-86.44-2.33-129.49,3.35-5.45.72-10.82,1.88-16.46,1.35-54.93-5.17-110-2.81-165.07-3.09a404.77,404.77,0,0,1-66.53-5.51c-13.83-2.35-27.78-5.86-41.63-5.67s-27.56-.26-41.34-.52c-2,0-4.33.28-5.91-1.32-5.13-5.18-11.77-8-17.79-11.78-1.34-.83-3.29-1.35-2.74-4.07,1.27-6.32,5.8-10.54,12.33-10.46,13,.15,25.95.48,39,2.62,19,3.11,38.39,1.42,57.69,3.55,39.81,4.39,80,4.86,120,4.31,53-.73,105.67-7.34,158.75-6.49,31.05.5,62.12-3,93.2.19,5.47.56,11.05,0,16.58-.09,1.58,0,4-.22,2.73-2.49-3.59-6.31.16-11,2.93-15.92a5.51,5.51,0,0,0,.17-5.86c-3.49-6.26-2.52-12.86-1.48-19.53,2.42-15.46,5.65-30.88,6.6-46.44.57-9.27,2.53-19.6-3.44-28.15-3.2-4.57-2.88-8.19.9-11.46,6.58-5.7,8-12.9,7.78-21.13-1.2-54,2.32-107.77,7.07-161.43,2.79-31.45,5.46-62.86,6.34-94.39,1.4-50.65.24-101.37,4.59-151.92,4-46.54,6.05-93.24,11.75-139.64,1.5-12.28,2.54-24.79.92-37.24C659.78,2.18,656.15-1,650.29.27c-20.82,4.49-42.14,3.59-63.16,6.26-40.43,5.14-81.42,4.14-121.83,10-16.44,2.41-33.17.51-49.58,3.52C394.57,24,374.89,32.7,354.35,38.59c-5.68,1.63-10.79,3.06-16.38-.58-3.24-2.1-7.46-2-11.43-2-11.34-.19-22.44,2.36-33.72,2.75-32,1.12-63.85,4.45-95.73,7.22-8.67.75-18.37,1.21-24.12,9.72-7.08,10.47-11.91,21.59-11.16,34.8.4,7-.88,14.22-1.58,21.32s-2.36,14.33-.43,21.29c2,7.39,2.92,13.94-3,20.15-2.33,2.43-2.22,6.39-2.71,9.83-2.6,18.47-3.9,37-5,55.65-1.94,32.88-8.92,65.19-12.33,97.94-4.37,41.89-9.52,83.68-15.87,125.33-5.82,38.22-7.56,76.9-12.43,115.21C103.8,593.71,98.2,630.11,93.27,666.6c-3,22.29-8.55,44.25-13.22,66.31-1.57,7.44,0,13.25,5.47,18.74A153,153,0,0,0,126,780.09a24.53,24.53,0,0,0,9.94,2.35c17.48.91,35,1.93,52.21,5.18,39.29,7.43,78.88,9.88,118.8,10.1q105.77.59,211.42-3.79a671.58,671.58,0,0,1,109,4.68c24.59,3,26.41,2.42,44.3-14.78,11.28-10.85,16.81-23.49,18.4-39.72,4.69-47.9,10.19-95.7,9.29-143.93-.69-36.64,6.57-72.75,5.65-109.58-1-39.75,2.15-79.64,4.24-119.43,1.58-30.12,2.91-60.27,6-90.3,2.14-20.61,5.16-41.27,5.26-61.92C720.72,176.82,719.19,134.67,718.43,92.53ZM561.58,59h33.81c8.58,0,8.58,0,8.05,9.61-1.18,13.26-2.44,27.69-3.75,42.12-.64,7.06-5.36,10.57-11.53,7.08-16.93-9.58-35-17.43-40-40.2C544,58.66,542.45,59,561.58,59ZM517.67,688.5c8.61-15.41,13.19-34.19,30.32-43.94a58.68,58.68,0,0,0,9-6.39c4.58-3.89,10.28-3.66,15.62-4.65,3.79-.69,3.14,2.48,3.16,4.56.09,9.65,0,19.31,0,29h1.61c0,8.27-.62,16.61.19,24.8.71,7.22-2.86,8.54-8.62,9.2a166.62,166.62,0,0,1-37.15.39c-1.82-.2-3.67-.15-5.51-.2C513.52,700.89,511.41,699.71,517.67,688.5ZM266.5,559.81c16.05-21.91,32.7-43.38,48.38-65.54,24.92-35.2,43.78-73.25,51.69-116.1.45-2.08.91-4.16,1.36-6.24q.76-3.57,1.55-7.14c-5.63.4-5.4,5-6.28,8.78-.62,1.28-1.25,2.56-1.88,3.84q-18.79,39.13-37.6,78.28c-3.53,7.36-6.37,15.15-12.65,20.85L308,475.17c-1-18-2-35.93-2.87-53.89a27.11,27.11,0,0,1,2.9-14.18c18.5-36.57,33.41-74.92,54.49-110.23,17.11-30.85,49.49-48.5,67.77-78.34l46.5-48.44c.56,1.85,1.13,3.7,1.69,5.55a87.9,87.9,0,0,0-11.86,28.16,288.32,288.32,0,0,0-21.16,117.66l.27,10.55c-.06,6.48-1.86,13.58.16,19.32,5.58,15.8-2.61,25.28-12.49,35.45-9,9.28-18.52,18.5-26,32.34,17.63-4.2,30.07-13.46,43.92-19.48,1.18,7.37-5.62,12.4-5.7,19.4-10.55,31-36.11,47.3-62.22,62.62-16.53,9.7-33.52,19-51.26,26.19-20.29,8.18-33.56,21.56-40.65,41.9C289,557,285.84,564,282.69,571c-2.16,4.77-1.48,12.43-8.07,13.15-7.12.79-5.07-8.43-9.25-11.46C258.46,567.7,263.71,563.62,266.5,559.81ZM191.59,104.45c.71-8.44.4-18.18,5.12-27.09,1.58-3,3.4-4.55,6.88-4.56,12.66,0,25.2-1.62,37.73-3.18,3.45-.43,4.35.16,3.61,4-3.08,15.83-13.61,27.31-22.64,39.66-1.07,1.46-3.48,2.19-5.42,2.71-3.54.93-7.19,1.45-10.79,2.15C190.85,121.1,190.85,121.1,191.59,104.45ZM133.18,699.4c1.16-19.89,4.73-39.63,2.8-59.85,21.84,5.45,37.7,16.68,44.72,38.27,2.06,6.32,4.76,12.42,7,18.67,1.78,4.93.78,8.08-5.34,8-14.72-.1-29.44-.14-44.16,0C134.28,704.61,133,703.3,133.18,699.4Z"></path></svg>