<?xml version="1.0" encoding="UTF-8"?>
<svg version="1.1" fill="#CCC9DC" xmlns="http://www.w3.org/2000/svg" width="320" height="320">
<path d="M0 0 C6.52562483 5.66077117 6.52562483 5.66077117 6.96850586 10.40161133 C6.70277726 12.96830805 6.40862587 15.27233005 5.62475586 17.72192383 C8.26475586 17.72192383 10.90475586 17.72192383 13.62475586 17.72192383 C26.04597004 40.5857517 33.3963632 68.63559707 30.62475586 94.72192383 C29.3058266 98.7592569 27.22888026 101.41544222 24.62475586 104.72192383 C23.62181524 106.47002113 22.62035238 108.21912139 21.64306641 109.98168945 C17.59770842 117.19699252 12.82667515 123.36375737 7.22998047 129.44726562 C4.48187236 132.45452569 2.30390655 135.21986838 0.38647461 138.82348633 C-2.75870573 144.01272125 -7.38655972 145.83626099 -12.81274414 148.15942383 C-13.84592773 148.61679932 -14.87911133 149.0741748 -15.94360352 149.54541016 C-24.57785446 153.23385902 -33.3992727 156.18872388 -42.37524414 158.90942383 C-43.33719193 159.20416092 -43.33719193 159.20416092 -44.318573 159.50485229 C-55.74877298 162.96734336 -55.74877298 162.96734336 -60.79321289 162.72973633 C-65.34476357 162.71980928 -67.82410899 164.2135929 -71.68774414 166.40942383 C-76.17097438 168.69200697 -79.69710037 170.40764458 -84.75024414 169.03442383 C-86.63525044 168.28839415 -88.50892737 167.5135492 -90.37524414 166.72192383 C-91.82165917 166.25839035 -93.27262556 165.80892387 -94.72680664 165.37036133 C-96.27670992 164.88473366 -97.82618949 164.39775168 -99.37524414 163.90942383 C-100.11822754 163.68617432 -100.86121094 163.4629248 -101.62670898 163.23291016 C-105.52194892 161.91583719 -107.02568004 161.24831821 -109.37524414 157.71020508 C-110.37524414 154.72192383 -110.37524414 154.72192383 -110.37524414 151.72192383 C-111.21829102 152.28911133 -112.06133789 152.85629883 -112.92993164 153.44067383 C-116.37524414 154.72192383 -116.37524414 154.72192383 -119.88305664 153.44067383 C-121.10360825 152.72581714 -122.30932967 151.98513353 -123.50024414 151.22192383 C-124.10739258 150.8687207 -124.71454102 150.51551758 -125.34008789 150.15161133 C-132.45640859 145.84150859 -135.62066303 139.69777322 -139.31274414 132.47192383 C-145.25709831 120.88791286 -145.25709831 120.88791286 -151.93774414 109.72192383 C-156.90223166 101.7723242 -159.03739575 95.34076544 -158.81274414 85.90942383 C-158.79735596 84.90967529 -158.78196777 83.90992676 -158.76611328 82.87988281 C-158.35181321 66.55697622 -156.04718138 52.2324122 -148.37524414 37.72192383 C-147.79258789 36.61977539 -147.20993164 35.51762695 -146.60961914 34.38208008 C-140.96182207 24.29491098 -135.3544739 17.13591665 -125.81274414 10.55004883 C-122.81939513 8.30503707 -121.27370055 5.92966052 -119.37524414 2.72192383 C-115.06673675 -2.59287894 -110.41323717 -7.39955791 -105.16040039 -11.78198242 C-103.2432791 -13.34422469 -103.2432791 -13.34422469 -101.12524414 -15.52807617 C-70.24021717 -35.18218424 -25.46233972 -21.41011256 0 0 Z M-68.19946289 -5.49291992 C-68.8143457 -4.74139648 -69.42922852 -3.98987305 -70.06274414 -3.21557617 C-73.71440819 0.60452257 -73.71440819 0.60452257 -76.50805664 1.10083008 C-79.82434792 0.71452375 -82.90645368 -0.14279664 -86.10961914 -1.06713867 C-91.43390868 -2.52548002 -91.43390868 -2.52548002 -96.57055664 -1.16479492 C-98.71512137 0.66439264 -100.52613852 2.5947007 -102.37524414 4.72192383 C-103.11258789 5.4927832 -103.84993164 6.26364258 -104.60961914 7.05786133 C-109.42650149 11.68098742 -109.42650149 11.68098742 -111.37524414 17.72192383 C-108.69445518 22.1068324 -105.0606197 26.65065594 -100.19165039 28.59301758 C-97.87724372 28.86904773 -95.70336439 28.81189949 -93.37524414 28.72192383 C-92.48192383 28.83536133 -91.58860352 28.94879883 -90.66821289 29.06567383 C-80.7299307 30.02358055 -74.23027773 25.11435086 -66.37524414 19.72192383 C-59.11847403 14.88407709 -46.40949337 19.17902577 -38.25024414 20.78442383 C-37.33774902 20.97085449 -36.42525391 21.15728516 -35.48510742 21.34936523 C-34.62127441 21.52516113 -33.75744141 21.70095703 -32.86743164 21.88208008 C-31.71283447 22.12390015 -31.71283447 22.12390015 -30.53491211 22.37060547 C-28.081903 22.82896506 -28.081903 22.82896506 -24.37524414 22.72192383 C-24.58793945 21.48055664 -24.58793945 21.48055664 -24.80493164 20.21411133 C-25.37524414 16.72192383 -25.37524414 16.72192383 -25.69555664 12.91723633 C-26.49120918 8.02676811 -27.6369124 4.14451809 -31.37524414 0.72192383 C-38.65063373 -2.66497067 -62.17009437 -11.39317991 -68.19946289 -5.49291992 Z M-67.37524414 34.72192383 C-70.32815012 39.93945864 -70.32815012 39.93945864 -71.37524414 45.72192383 C-69.62889249 46.25486218 -67.87796762 46.77283046 -66.12524414 47.28442383 C-65.15071289 47.57446289 -64.17618164 47.86450195 -63.17211914 48.16333008 C-60.32521304 48.73191607 -59.01406327 48.85047541 -56.37524414 47.72192383 C-53.80602554 45.61682213 -51.61687699 43.16881463 -49.37524414 40.72192383 C-48.71524414 40.02067383 -48.05524414 39.31942383 -47.37524414 38.59692383 C-46.11818088 36.66681117 -46.11818088 36.66681117 -46.68774414 33.97192383 C-46.91461914 33.22942383 -47.14149414 32.48692383 -47.37524414 31.72192383 C-58.40298796 28.66480518 -58.40298796 28.66480518 -67.37524414 34.72192383 Z M-20.12524414 52.97192383 C-21.03790039 53.56553711 -21.03790039 53.56553711 -21.96899414 54.17114258 C-25.78923478 56.66082932 -29.5847835 59.18719862 -33.37524414 61.72192383 C-33.30305664 62.4309082 -33.23086914 63.13989258 -33.15649414 63.87036133 C-32.88684833 66.96379801 -32.68273026 70.055332 -32.51733398 73.15600586 C-32.41326437 75.03533866 -32.29429016 76.91386219 -32.16674805 78.79174805 C-30.80423016 100.468169 -30.80423016 100.468169 -34.50024414 105.22192383 C-37.18774414 107.53442383 -37.18774414 107.53442383 -39.89477539 109.17895508 C-42.84985837 111.0171563 -43.95335281 112.56590151 -45.37524414 115.72192383 C-45.44311138 117.86559953 -45.44311138 117.86559953 -45.06274414 119.97192383 C-44.89644164 123.29243042 -45.16765757 124.44109784 -47.17993164 127.16333008 C-48.65231528 128.70958764 -50.16598294 130.21784793 -51.72290039 131.67895508 C-53.61290382 133.56123658 -53.61290382 133.56123658 -53.30883789 135.85864258 C-52.3950625 138.06650841 -52.3950625 138.06650841 -49.37524414 139.72192383 C-48.83770508 139.39973877 -48.30016602 139.07755371 -47.74633789 138.74560547 C-44.85352273 137.49667899 -42.58489868 137.41863293 -39.43774414 137.34301758 C-38.29563477 137.30885742 -37.15352539 137.27469727 -35.97680664 137.23950195 C-34.78829102 137.21307617 -33.59977539 137.18665039 -32.37524414 137.15942383 C-30.02097765 137.09941812 -27.66680044 137.03576976 -25.31274414 136.96801758 C-24.26989258 136.94408936 -23.22704102 136.92016113 -22.15258789 136.89550781 C-19.71121328 136.7429219 -17.66008626 136.58954364 -15.37524414 135.72192383 C-14.29172342 133.10961668 -14.29172342 133.10961668 -13.50024414 129.90942383 C-10.04489567 120.13357768 -2.02581837 114.34841176 6.50366211 108.87426758 C10.39364634 106.33297772 12.31180566 105.07591244 13.39038086 100.40942383 C13.65753925 97.14727925 13.74764771 93.99084705 13.62475586 90.72192383 C13.05885742 90.39579102 12.49295898 90.0696582 11.90991211 89.73364258 C11.17643555 89.29665039 10.44295898 88.8596582 9.68725586 88.40942383 C8.95635742 87.98016602 8.22545898 87.5509082 7.47241211 87.10864258 C5.62475586 85.72192383 5.62475586 85.72192383 4.62475586 82.72192383 C3.61863757 72.76135279 3.61863757 72.76135279 5.63647461 68.67114258 C7.68324699 66.19411775 9.95839039 64.49950081 12.62475586 62.72192383 C12.44649987 60.78900904 12.44649987 60.78900904 11.62475586 58.72192383 C2.05584098 51.87238005 -10.08647121 46.35545985 -20.12524414 52.97192383 Z M-139.06274414 68.15942383 C-140.52260742 69.39499023 -140.52260742 69.39499023 -142.01196289 70.65551758 C-143.72827024 72.15165287 -143.72827024 72.15165287 -145.37524414 73.72192383 C-145.49329798 84.39399054 -142.45338916 95.31186715 -140.37524414 105.72192383 C-137.07524414 105.72192383 -133.77524414 105.72192383 -130.37524414 105.72192383 C-130.06071289 106.57915039 -129.74618164 107.43637695 -129.42211914 108.31958008 C-128.99415039 109.46297852 -128.56618164 110.60637695 -128.12524414 111.78442383 C-127.70758789 112.90977539 -127.28993164 114.03512695 -126.85961914 115.19458008 C-126.36977539 116.35860352 -125.87993164 117.52262695 -125.37524414 118.72192383 C-124.65594727 120.54530273 -124.65594727 120.54530273 -123.92211914 122.40551758 C-120.9222079 127.47548089 -115.22746763 128.28982457 -109.87524414 129.72192383 C-108.82981445 130.03258789 -107.78438477 130.34325195 -106.70727539 130.66333008 C-100.55816843 132.65333409 -100.55816843 132.65333409 -94.37524414 131.72192383 C-92.04855479 130.12864742 -89.83941683 128.51926463 -87.62524414 126.78442383 C-87.02325195 126.32874023 -86.42125977 125.87305664 -85.80102539 125.40356445 C-84.28378453 124.22864891 -82.82407559 122.98022975 -81.37524414 121.72192383 C-81.37524414 121.06192383 -81.37524414 120.40192383 -81.37524414 119.72192383 C-85.17951906 117.52053723 -85.17951906 117.52053723 -89.37524414 116.72192383 C-89.53814941 116.10260986 -89.70105469 115.4832959 -89.86889648 114.84521484 C-91.86597102 107.37827687 -94.09127679 99.9898565 -96.3918457 92.61181641 C-97.00885691 90.63178485 -97.62190139 88.65055332 -98.23461914 86.66918945 C-99.98650045 80.57217265 -99.98650045 80.57217265 -102.37524414 74.72192383 C-105.48286334 73.8634862 -108.58430667 73.13725059 -111.74047852 72.4855957 C-116.65547108 71.32771378 -118.46940914 69.73749273 -121.37524414 65.72192383 C-123.32271148 64.72325761 -123.32271148 64.72325761 -125.37524414 64.40942383 C-126.03524414 64.26891602 -126.69524414 64.1284082 -127.37524414 63.98364258 C-133.05184037 63.24080674 -134.84296363 64.54810299 -139.06274414 68.15942383 Z " transform="translate(241.375244140625,91.278076171875)"/>
<path d="M0 0 C5.47578932 11.69396394 8.73659178 21.68910523 8.859375 34.625 C8.92668463 39.75848119 10.0323219 44.49182248 11.37890625 49.43359375 C12 52 12 52 12 56 C10.1640625 57.28125 10.1640625 57.28125 7.625 58.5 C2.50142837 61.34164477 -0.4191458 64.72718808 -3.96630859 69.32739258 C-7.68416987 73.96791908 -11.94043282 77.10627567 -16.8293457 80.43188477 C-22.34796764 84.18658413 -27.17365106 88.38440865 -32 93 C-33.17536122 94.05385406 -34.35117565 95.10720279 -35.52734375 96.16015625 C-54.27905894 113.35564264 -61.20525695 131.61400708 -62.89355469 156.56274414 C-63.14997418 164.84285897 -61.80383061 172.73673222 -60.125 180.8125 C-58.9610317 186.4866524 -57.93485368 192.09298521 -57.38671875 197.86328125 C-56.25152475 209.63522322 -54.79251718 216.52338164 -46 225 C-44.03522278 227.23109557 -42.14631084 229.5231697 -40.25 231.8125 C-39.36086532 232.86194157 -38.47028788 233.91016283 -37.578125 234.95703125 C-35.88052014 236.96071941 -34.22375186 238.99984826 -32.61328125 241.07421875 C-20.99090495 254.08641583 -3.45387483 257.03068699 12.96508789 259.66229248 C15.05550719 260.0092118 17.13758088 260.38961813 19.22070312 260.77783203 C39.05634714 264.42450769 55.27621389 264.45039664 74.59399414 258.14233398 C87.1026811 254.09171782 87.1026811 254.09171782 92.89916992 256.88256836 C93.59244385 257.2513208 94.28571777 257.62007324 95 258 C96.31738159 258.46708374 96.31738159 258.46708374 97.66137695 258.94360352 C101.48346918 260.42724872 104.26234326 261.5717325 106.19433594 265.3125 C106.98640576 268.20728904 107.47026619 271.02639278 107.875 274 C108.05442139 275.05276123 108.23384277 276.10552246 108.41870117 277.19018555 C108.78953755 279.37189329 109.14350454 281.5565323 109.48095703 283.74365234 C110.28596385 288.79406674 111.31324679 293.79768018 112.3125 298.8125 C112.64646661 300.52646546 112.97627471 302.24124956 113.30078125 303.95703125 C113.43653564 304.66835205 113.57229004 305.37967285 113.7121582 306.11254883 C114 308 114 308 114 311 C110.07642552 309.38386099 107.28612468 306.68664661 104.25 303.8125 C103.1803035 302.81574476 102.10999018 301.81965107 101.0390625 300.82421875 C100.26030762 300.0979126 100.26030762 300.0979126 99.46582031 299.35693359 C96.37627604 296.49689244 93.20275056 293.73214231 90 291 C88.75887451 289.6864856 88.75887451 289.6864856 87.49267578 288.34643555 C84.73610929 286.06990178 83.02181447 285.69802645 79.47363281 285.9831543 C77.71249598 286.23508365 75.95552672 286.51736447 74.203125 286.82421875 C73.25548279 286.96446976 72.30784058 287.10472076 71.33148193 287.2492218 C68.29946995 287.70171659 65.27525267 288.19198031 62.25 288.6875 C37.15770994 292.66095718 19.72939169 292.47195152 -4.6875 284.6875 C-6.95439294 283.98800995 -9.221969 283.29072981 -11.49023438 282.59570312 C-35.06969144 275.30802783 -35.06969144 275.30802783 -37.55859375 271.80859375 C-37.84863281 271.02613281 -38.13867188 270.24367188 -38.4375 269.4375 C-38.74558594 268.65246094 -39.05367187 267.86742187 -39.37109375 267.05859375 C-40 265 -40 265 -40 263 C-40.88429687 263.23074219 -41.76859375 263.46148437 -42.6796875 263.69921875 C-47.83657197 264.16637181 -50.05085432 261.64924923 -53.98828125 258.58203125 C-64.86060333 249.26088352 -74.03903702 239.8106282 -79.0625 226.1875 C-79.69638901 224.51324881 -80.33313073 222.84007503 -80.97265625 221.16796875 C-81.27370773 220.36157455 -81.57475922 219.55518036 -81.88493347 218.72434998 C-82.93089718 216.02311073 -82.93089718 216.02311073 -84.26838684 213.68507385 C-88.78007708 205.29600358 -88.73234219 197.29590934 -88.6640625 188.046875 C-88.66744085 186.41700887 -88.67230189 184.78714522 -88.67855835 183.1572876 C-88.68589024 179.7548403 -88.67535038 176.35305347 -88.65185547 172.95068359 C-88.62346045 168.63271415 -88.639735 164.31630554 -88.66971779 159.99839401 C-88.68796999 156.63497619 -88.68195035 153.27191525 -88.66907883 149.90848541 C-88.66578921 148.31879737 -88.66967152 146.7290748 -88.68147659 145.13942719 C-88.76644244 130.47948063 -85.46784364 118.43938069 -78.1875 105.5625 C-77.78080078 104.81935547 -77.37410156 104.07621094 -76.95507812 103.31054688 C-75.98101264 101.53430982 -74.99224205 99.76614761 -74 98 C-69.71 98 -65.42 98 -61 98 C-61.061875 96.06125 -61.12375 94.1225 -61.1875 92.125 C-60.74705788 86.16607723 -59.38029146 83.60142109 -54.9375 79.625 C-52.9814445 78.05411373 -51.00343675 76.50999271 -49 75 C-47.65434264 73.88977072 -46.31950212 72.76619102 -45 71.625 C-44.3709375 71.08101563 -43.741875 70.53703125 -43.09375 69.9765625 C-40.41576235 67.44846222 -37.96186552 64.73521951 -35.5 62 C-27.00673588 52.56369171 -27.00673588 52.56369171 -22 49 C-21.34 49 -20.68 49 -20 49 C-22.87334871 43.54208134 -26.04962509 38.33933316 -29.4375 33.1875 C-33.48600872 27.01112341 -36.87158275 20.69849341 -40 14 C-37.75692972 12.79749842 -35.5071209 11.6130838 -33.25 10.4375 C-32.61578125 10.09525391 -31.9815625 9.75300781 -31.328125 9.40039062 C-26.56511377 6.94446296 -26.56511377 6.94446296 -23.734375 7.22265625 C-22.87585938 7.60744141 -22.87585938 7.60744141 -22 8 C-21.01 8.33 -20.02 8.66 -19 9 C-18.70222656 7.83404297 -18.70222656 7.83404297 -18.3984375 6.64453125 C-17 4 -17 4 -14.1015625 2.63671875 C-12.95429687 2.32347656 -11.80703125 2.01023437 -10.625 1.6875 C-8.91183594 1.19830078 -8.91183594 1.19830078 -7.1640625 0.69921875 C-4 0 -4 0 0 0 Z " transform="translate(135,4)"/>
<path d="M0 0 C0.33 0 0.66 0 1 0 C0.67 2.64 0.34 5.28 0 8 C0.66 8 1.32 8 2 8 C2.66 7.34 3.32 6.68 4 6 C6 12.625 6 12.625 6 16 C1.87582937 14.3383196 -1.06554039 11.37661982 -4.25 8.375 C-4.80429688 7.859375 -5.35859375 7.34375 -5.9296875 6.8125 C-7.2902712 5.54574965 -8.64565837 4.27342185 -10 3 C-8.125 1.9375 -8.125 1.9375 -6 1 C-5.34 1.33 -4.68 1.66 -4 2 C-4 3.32 -4 4.64 -4 6 C-3.360625 5.01 -2.72125 4.02 -2.0625 3 C-1.381875 2.01 -0.70125 1.02 0 0 Z " transform="translate(243,299)"/>
<path d="M0 0 C0 0.66 0 1.32 0 2 C0.66 2 1.32 2 2 2 C2.70147833 5.41395062 3.38372236 8.83146969 4.0625 12.25 C4.26166016 13.21808594 4.46082031 14.18617188 4.66601562 15.18359375 C4.84970703 16.11816406 5.03339844 17.05273438 5.22265625 18.015625 C5.48187866 19.30388184 5.48187866 19.30388184 5.74633789 20.61816406 C6.00554788 23.05209351 5.75084609 24.68898463 5 27 C4.49193553 25.27318563 3.99389533 23.54342021 3.5 21.8125 C3.2215625 20.84957031 2.943125 19.88664062 2.65625 18.89453125 C2.03322392 16.14654124 1.87697188 13.80401584 2 11 C1.01 10.67 0.02 10.34 -1 10 C-1 9.01 -1 8.02 -1 7 C-1.99 6.67 -2.98 6.34 -4 6 C-4 4.35 -4 2.7 -4 1 C-2 0 -2 0 0 0 Z " transform="translate(69,162)"/>
<path d="M0 0 C5 5 5 5 6.5 7.09375 C10.48973329 10.13592163 14.85504294 9.93713989 19.75 10.25 C20.73355469 10.32734375 21.71710938 10.4046875 22.73046875 10.484375 C25.15290563 10.67252544 27.5753296 10.84377451 30 11 C30 11.33 30 11.66 30 12 C26.99900412 12.10890711 24.00203622 12.18773555 21 12.25 C19.74123047 12.30027344 19.74123047 12.30027344 18.45703125 12.3515625 C12.19006171 12.44872482 8.42327096 11.13070642 3 8 C2.67 8 2.34 8 2 8 C1.34 5.36 0.68 2.72 0 0 Z " transform="translate(130,109)"/>
<path d="M0 0 C14.56 1.56 14.56 1.56 17 4 C17.04092937 6.33297433 17.04241723 8.66705225 17 11 C15.02 11.99 15.02 11.99 13 13 C13.33 10.03 13.66 7.06 14 4 C9.05 3.67 4.1 3.34 -1 3 C-0.67 2.01 -0.34 1.02 0 0 Z " transform="translate(180,119)"/>
<path d="M0 0 C0.66 0 1.32 0 2 0 C1.67 0.99 1.34 1.98 1 3 C0.90622311 4.83140741 0.87007043 6.66619987 0.875 8.5 C0.87242187 9.4590625 0.86984375 10.418125 0.8671875 11.40625 C0.89007028 14.11571152 0.89007028 14.11571152 2 17 C3.65 17.33 5.3 17.66 7 18 C7 18.99 7 19.98 7 21 C1.50194553 19.65603113 1.50194553 19.65603113 -0.6796875 16.8046875 C-2.20217371 13.57053041 -2.36995608 11.37035743 -2.3125 7.8125 C-2.30863281 6.76707031 -2.30476562 5.72164062 -2.30078125 4.64453125 C-2 2 -2 2 0 0 Z " transform="translate(247,160)"/>
<path d="M0 0 C0.66 0.33 1.32 0.66 2 1 C1.38125 1.5775 0.7625 2.155 0.125 2.75 C-2.59206465 6.90551064 -2.97059194 10.58771392 -3.60546875 15.453125 C-4 18 -4 18 -5 19 C-7.01964199 19.07244053 -9.04167124 19.08377188 -11.0625 19.0625 C-12.16722656 19.05347656 -13.27195312 19.04445313 -14.41015625 19.03515625 C-15.69212891 19.01775391 -15.69212891 19.01775391 -17 19 C-17 18.67 -17 18.34 -17 18 C-13.37 18 -9.74 18 -6 18 C-5.97873047 16.67935547 -5.97873047 16.67935547 -5.95703125 15.33203125 C-5.51896425 4.66450784 -5.51896425 4.66450784 -2.4375 1.6875 C-1.633125 1.130625 -0.82875 0.57375 0 0 Z " transform="translate(80,84)"/>
<path d="M0 0 C0 0.99 0 1.98 0 3 C1.1446875 3.0928125 1.1446875 3.0928125 2.3125 3.1875 C5 4 5 4 6.8125 6.25 C8.04572782 9.10589601 8.26317349 10.92964256 8 14 C6.00902154 11.01353231 5.05875074 8.40312738 4 5 C3.113125 5.268125 2.22625 5.53625 1.3125 5.8125 C-2 6 -2 6 -4.875 3.5625 C-5.57625 2.716875 -6.2775 1.87125 -7 1 C-4.53721199 -0.231394 -2.7204945 -0.07159196 0 0 Z " transform="translate(91,262)"/>
<path d="M0 0 C0.66 0 1.32 0 2 0 C2.44995976 3.09347335 2.67983335 4.99781623 2 8 C0.06172113 10.55519344 -2.0242146 12.71361251 -4.34765625 14.921875 C-6.26233452 16.83963394 -6.26233452 16.83963394 -5.80859375 19.140625 C-5.24201895 20.44347332 -4.63536143 21.72927714 -4 23 C-5.32 22.67 -6.64 22.34 -8 22 C-8 19.69 -8 17.38 -8 15 C-7.34 15 -6.68 15 -6 15 C-5.731875 14.401875 -5.46375 13.80375 -5.1875 13.1875 C-4 11 -4 11 -2.4375 9.75 C-0.06970784 6.86747041 -0.29987295 3.65844994 0 0 Z " transform="translate(195,208)"/>
<path d="M0 0 C2.97 0 5.94 0 9 0 C9 0.66 9 1.32 9 2 C13.5838914 3.09315246 18.12511007 3.32282625 22.8125 3.5625 C23.99489258 3.62727539 23.99489258 3.62727539 25.20117188 3.69335938 C27.13394215 3.79878321 29.06695026 3.89983094 31 4 C31 4.33 31 4.66 31 5 C19.81157547 5.45205756 10.54925711 5.17497101 0 1 C0 0.67 0 0.34 0 0 Z " transform="translate(143,291)"/>
<path d="M0 0 C9.67883193 0.21040939 9.67883193 0.21040939 13.4375 3.3125 C15.49195503 5.46717235 17.35102568 7.52653852 19 10 C17.1875 9.75 17.1875 9.75 15 9 C14.5875 8.360625 14.175 7.72125 13.75 7.0625 C11.09836502 3.93735877 7.95095041 3.5803656 4 3 C0.66605561 2.8309611 0.66605561 2.8309611 -2 3 C-1.34 2.01 -0.68 1.02 0 0 Z " transform="translate(108,153)"/>
<path d="M0 0 C0.66 0 1.32 0 2 0 C2 0.66 2 1.32 2 2 C2.66 2 3.32 2 4 2 C4.33 3.32 4.66 4.64 5 6 C7.31 6.66 9.62 7.32 12 8 C12.33 9.65 12.66 11.3 13 13 C8.46924626 11.44659872 4.38243478 9.56108435 2.01953125 5.18359375 C1.28656854 3.48022971 0.63640628 1.74174351 0 0 Z " transform="translate(105,228)"/>
<path d="M0 0 C1.58015913 2.01111162 2.89448806 3.72404569 3.8125 6.125 C5.59028199 8.9320242 7.89068731 9.18887495 11 10 C11 10.33 11 10.66 11 11 C9.906875 10.979375 8.81375 10.95875 7.6875 10.9375 C4.05615809 10.81455548 4.05615809 10.81455548 1 12 C1.33 9.69 1.66 7.38 2 5 C0.35 4.67 -1.3 4.34 -3 4 C-2.01 2.68 -1.02 1.36 0 0 Z " transform="translate(115,208)"/>
<path d="M0 0 C0.33 0.66 0.66 1.32 1 2 C0.21625 2.886875 -0.5675 3.77375 -1.375 4.6875 C-3.11096163 6.74260777 -4.01832024 8.05129667 -4.9375 10.625 C-6.4520136 14.01038333 -8.87025632 15.16297654 -12 17 C-12.66 16.67 -13.32 16.34 -14 16 C-13.2575 15.46375 -12.515 14.9275 -11.75 14.375 C-8.78890221 11.81768827 -7.10243296 9.28505151 -5 6 C-3.38165002 3.95381038 -1.69834588 1.98140353 0 0 Z " transform="translate(127,88)"/>
<path d="M0 0 C3.9252025 3.70090521 6.94580156 7.54959656 10 12 C9.4225 11.690625 8.845 11.38125 8.25 11.0625 C6.0661063 9.9327131 6.0661063 9.9327131 3.8125 9.5 C3.214375 9.335 2.61625 9.17 2 9 C1.67 8.34 1.34 7.68 1 7 C0.34 7 -0.32 7 -1 7 C-0.67 4.69 -0.34 2.38 0 0 Z " transform="translate(89,230)"/>
<path d="M0 0 C0 2 0 2 -1.375 3.4375 C-1.91125 3.953125 -2.4475 4.46875 -3 5 C-3.99 6.485 -3.99 6.485 -5 8 C-6.65391846 8.39171753 -8.32345271 8.72057545 -10 9 C-12.23408113 9.99083967 -12.23408113 9.99083967 -14 11 C-3.32352941 0 -3.32352941 0 0 0 Z " transform="translate(160,213)"/>
<path d="M0 0 C2.98291012 5.11356021 4.36844835 11.10482642 4 17 C2.5625 16 2.5625 16 1 14 C0.68359375 12.08984375 0.68359375 12.08984375 0.5 9.9375 C0.335 8.638125 0.17 7.33875 0 6 C-0.99 5.34 -1.98 4.68 -3 4 C-2.01 3.67 -1.02 3.34 0 3 C0 2.01 0 1.02 0 0 Z " transform="translate(266,139)"/>
<path d="M0 0 C1.21346851 3.64040554 1.21346851 5.35959446 0 9 C-1.32 8.67 -2.64 8.34 -4 8 C-4.33 9.32 -4.66 10.64 -5 12 C-5.33 11.01 -5.66 10.02 -6 9 C-4.1875 6 -4.1875 6 -2 3 C-1.34 2.01 -0.68 1.02 0 0 Z " transform="translate(103,113)"/>
<path d="M0 0 C2.31 0.33 4.62 0.66 7 1 C6.67 2.32 6.34 3.64 6 5 C6.99 5.33 7.98 5.66 9 6 C9.6875 8.0625 9.6875 8.0625 10 10 C2.51708428 3.84965831 2.51708428 3.84965831 0 0 Z " transform="translate(70,251)"/>
<path d="M0 0 C3.26460973 1.80412643 4.88929795 2.83394693 7 6 C6 7 6 7 3.4375 7.0625 C2.2309375 7.0315625 2.2309375 7.0315625 1 7 C0 2.25 0 2.25 0 0 Z " transform="translate(232,85)"/>
<path d="M0 0 C-1.423125 0.61875 -1.423125 0.61875 -2.875 1.25 C-6.00716624 3.0040131 -6.86500606 3.70851757 -8 7 C-8.99 6.67 -9.98 6.34 -11 6 C-10.375 3.625 -10.375 3.625 -9 1 C-5.37169613 -0.69835501 -3.84489875 -1.28163292 0 0 Z " transform="translate(127,7)"/>
<path d="M0 0 C0.33 0 0.66 0 1 0 C1.63019694 8.19256018 1.63019694 8.19256018 -1 11.5625 C-1.99 12.2740625 -1.99 12.2740625 -3 13 C-4 11 -4 11 -3.22265625 8.3984375 C-2.83980469 7.40070313 -2.45695313 6.40296875 -2.0625 5.375 C-1.68222656 4.37210938 -1.30195313 3.36921875 -0.91015625 2.3359375 C-0.60980469 1.56507813 -0.30945313 0.79421875 0 0 Z " transform="translate(230,214)"/>
<path d="M0 0 C2.03819846 2.03819846 2.67841059 3.29417798 3.6875 5.9375 C3.95949219 6.62714844 4.23148437 7.31679687 4.51171875 8.02734375 C5 10 5 10 4 13 C3.9175 12.21625 3.835 11.4325 3.75 10.625 C3.27193661 7.85250896 3.27193661 7.85250896 0.9375 6.6875 C0.298125 6.460625 -0.34125 6.23375 -1 6 C-1 3 -1 3 0 0 Z " transform="translate(260,122)"/>
<path d="M0 0 C4.18126888 2.87462236 4.18126888 2.87462236 6 5 C6.5 8.6875 6.5 8.6875 6 12 C5.34 12.66 4.68 13.32 4 14 C4.04125 12.88625 4.0825 11.7725 4.125 10.625 C4.41121859 6.95633975 4.41121859 6.95633975 2 5 C1.01 4.67 0.02 4.34 -1 4 C-0.67 2.68 -0.34 1.36 0 0 Z " transform="translate(242,93)"/>
<path d="M0 0 C0.99 0.33 1.98 0.66 3 1 C0.36 3.97 -2.28 6.94 -5 10 C-5 7.28070943 -4.94379835 5.5167956 -4 3 C-2.125 1.1875 -2.125 1.1875 0 0 Z " transform="translate(134,65)"/>
<path d="M0 0 C1.4540625 0.0309375 1.4540625 0.0309375 2.9375 0.0625 C-0.89191989 3.39243034 -5.43772222 5.11574525 -10.0625 7.0625 C-10.0625 6.4025 -10.0625 5.7425 -10.0625 5.0625 C-8.09527992 3.68126037 -6.09381672 2.34761874 -4.0625 1.0625 C-3.0625 0.0625 -3.0625 0.0625 0 0 Z " transform="translate(176.0625,251.9375)"/>
<path d="M0 0 C3.28788824 3.11016455 5.83735988 6.01618925 8 10 C6.35 10 4.7 10 3 10 C2.87625 9.195625 2.7525 8.39125 2.625 7.5625 C2.315625 6.2940625 2.315625 6.2940625 2 5 C1.34 4.67 0.68 4.34 0 4 C0 2.68 0 1.36 0 0 Z " transform="translate(79,218)"/>
<path d="M0 0 C1 2 1 2 1 6 C-0.29103643 7.3743291 -1.6256709 8.70896357 -3 10 C-3.33 10.99 -3.66 11.98 -4 13 C-4.66 13 -5.32 13 -6 13 C-4.58707905 8.1725201 -2.57025846 4.2837641 0 0 Z " transform="translate(61,103)"/>
<path d="M0 0 C0.66 0.33 1.32 0.66 2 1 C-1.96 4.465 -1.96 4.465 -6 8 C-6.66 6.68 -7.32 5.36 -8 4 C-6.865625 3.525625 -5.73125 3.05125 -4.5625 2.5625 C-1.24259834 1.36377917 -1.24259834 1.36377917 0 0 Z " transform="translate(104,156)"/>
<path d="M0 0 C0 0.66 0 1.32 0 2 C-0.99 2.33 -1.98 2.66 -3 3 C-3.33 4.98 -3.66 6.96 -4 9 C-6.2477975 6.94766315 -7.0022242 5.99332739 -8 3 C-2.25 0 -2.25 0 0 0 Z " transform="translate(103,15)"/>
<path d="M0 0 C2.97 0.495 2.97 0.495 6 1 C2.55549263 3.29633824 0.06187717 3.54016485 -4 4 C-4.33 3.34 -4.66 2.68 -5 2 C-3.35 2 -1.7 2 0 2 C0 1.34 0 0.68 0 0 Z " transform="translate(202,245)"/>
<path d="M0 0 C0 3 0 3 -1.75 5.125 C-3.95974524 6.96645436 -5.20090866 7.60012981 -8 8 C-5.58443874 4.80800833 -3.31996462 2.25283313 0 0 Z " transform="translate(90,76)"/>
<path d="M0 0 C1.32 1.65 2.64 3.3 4 5 C3.34 5.66 2.68 6.32 2 7 C0.35 5.02 -1.3 3.04 -3 1 C-2.01 0.67 -1.02 0.34 0 0 Z " transform="translate(227,292)"/>
<path d="M0 0 C0.33 0 0.66 0 1 0 C1.33 2.97 1.66 5.94 2 9 C-2 7 -2 7 -4 4 C-3.01 4.33 -2.02 4.66 -1 5 C-0.67 3.35 -0.34 1.7 0 0 Z " transform="translate(247,306)"/>
<path d="M0 0 C2.97 0.495 2.97 0.495 6 1 C6 1.99 6 2.98 6 4 C3.69 4 1.38 4 -1 4 C-0.67 2.68 -0.34 1.36 0 0 Z " transform="translate(182,290)"/>
<path d="M0 0 C-1.65 0.33 -3.3 0.66 -5 1 C-5 1.99 -5 2.98 -5 4 C-6.65 4 -8.3 4 -10 4 C-4.75 -1.425 -4.75 -1.425 0 0 Z " transform="translate(182,109)"/>
<path d="M0 0 C0.33 0.99 0.66 1.98 1 3 C-1.97 5.475 -1.97 5.475 -5 8 C-5.66 7.67 -6.32 7.34 -7 7 C-4.69 4.69 -2.38 2.38 0 0 Z " transform="translate(139,77)"/>
<path d="M0 0 C0.33 0.99 0.66 1.98 1 3 C0.34 3 -0.32 3 -1 3 C-1.33 4.32 -1.66 5.64 -2 7 C-2.33 5.35 -2.66 3.7 -3 2 C-3.99 1.67 -4.98 1.34 -6 1 C-3 0 -3 0 0 0 Z " transform="translate(142,164)"/>
<path d="M0 0 C0.66 0 1.32 0 2 0 C2 2.31 2 4.62 2 7 C0.68 6.34 -0.64 5.68 -2 5 C-1.34 3.35 -0.68 1.7 0 0 Z " transform="translate(269,157)"/>
<path d="M0 0 C1.98 0 3.96 0 6 0 C4.92598892 2.91517292 4.22189824 4.77810176 2 7 C2 5.02 2 3.04 2 1 C1.34 0.67 0.68 0.34 0 0 Z " transform="translate(81,112)"/>
<path d="M0 0 C0.66 0 1.32 0 2 0 C2 0.99 2 1.98 2 3 C2.99 3 3.98 3 5 3 C4.34 4.32 3.68 5.64 3 7 C1.5 5.75 1.5 5.75 0 4 C0 2.68 0 1.36 0 0 Z " transform="translate(243,217)"/>
<path d="M0 0 C0.99 0.33 1.98 0.66 3 1 C1.07423885 3.43929746 -0.80090595 5.80090595 -3 8 C-3 6.35 -3 4.7 -3 3 C-2.01 2.67 -1.02 2.34 0 2 C0 1.34 0 0.68 0 0 Z " transform="translate(175,122)"/>
<path d="M0 0 C0.99 0.33 1.98 0.66 3 1 C1.02 2.32 -0.96 3.64 -3 5 C-3.66 4.67 -4.32 4.34 -5 4 C-2.6875 1.9375 -2.6875 1.9375 0 0 Z " transform="translate(118,100)"/>
<path d="M0 0 C0.598125 0.20625 1.19625 0.4125 1.8125 0.625 C-1.1575 3.1 -1.1575 3.1 -4.1875 5.625 C-4.5175 4.305 -4.8475 2.985 -5.1875 1.625 C-2.1875 -0.375 -2.1875 -0.375 0 0 Z " transform="translate(142.1875,91.375)"/>
</svg>
