<?xml version="1.0" encoding="UTF-8"?>
<svg version="1.1" fill="#CCC9DC" xmlns="http://www.w3.org/2000/svg" width="320" height="320">
<path d="M0 0 C12.19981585 5.64930265 23.66378596 12.68752312 35.13183594 19.6706543 C40.46921138 22.91652331 45.79378882 26.00860581 51.375 28.8125 C53.26372683 29.8504028 55.13951175 30.91228923 57 32 C58.06089844 32.60199219 59.12179688 33.20398437 60.21484375 33.82421875 C63.59285954 36.19692341 66.31219034 38.20195469 68 42 C69.30319514 49.58596751 68.68188262 57.37245147 68 65 C72.48117611 63.2346882 75.87108074 61.62864423 79.4375 58.3125 C80.45650391 57.37857422 80.45650391 57.37857422 81.49609375 56.42578125 C82.24052734 55.72001953 82.24052734 55.72001953 83 55 C88.78181087 56.89345853 93.33582337 60.60419155 98.19702148 64.14648438 C101.70752388 66.69468865 105.17520374 69.16144457 108.9453125 71.3125 C119.36683083 77.46935251 122.7708286 85.45453294 126.48779297 96.75512695 C127.72658981 102.1844582 126.74736456 105.03421613 123.8515625 109.76171875 C123.18044434 110.87208496 122.50932617 111.98245117 121.81787109 113.12646484 C121.45973328 113.70789246 121.10159546 114.28932007 120.73260498 114.8883667 C119.24073686 117.31167615 117.77401162 119.7498245 116.30618286 122.18774414 C115.57137832 123.40799335 114.83543787 124.62755928 114.09835815 125.84643555 C101.33286806 144.21250752 101.33286806 144.21250752 95.28515625 164.38720703 C96.03859438 167.14106455 97.05730944 169.09297814 98.57421875 171.50390625 C99.07630859 172.32697266 99.57839844 173.15003906 100.09570312 173.99804688 C101.16191879 175.71576611 102.23491448 177.42929435 103.31445312 179.13867188 C104.06178711 180.37133789 104.06178711 180.37133789 104.82421875 181.62890625 C105.28916748 182.37213135 105.75411621 183.11535645 106.2331543 183.88110352 C107 186 107 186 106.22431946 187.93887329 C105.02668582 189.95507474 103.82368377 191.43575695 102.17773438 193.09692383 C101.60953979 193.67465042 101.04134521 194.25237701 100.45593262 194.84761047 C99.84141235 195.46121933 99.22689209 196.07482819 98.59375 196.70703125 C97.95441528 197.35065109 97.31508057 197.99427094 96.65637207 198.65739441 C95.30048762 200.01901802 93.94197965 201.37803345 92.58105469 202.73461914 C90.52649318 204.78604722 88.48554153 206.85034548 86.4453125 208.91601562 C68.00243763 227.45180313 68.00243763 227.45180313 57.46875 228.99609375 C54.01781496 229.00155409 51.28851051 227.9740006 48.0703125 226.8046875 C41.2663138 225.0214512 34.00095947 225.22116321 27 225 C27.18828369 225.944198 27.18828369 225.944198 27.38037109 226.9074707 C28.85965746 234.6336398 29.79873088 242.36745298 30.625 250.1875 C30.7590625 251.42564453 30.893125 252.66378906 31.03125 253.93945312 C31.35771694 256.95927231 31.68056286 259.97943053 32 263 C30.71186658 263.83878455 29.41936744 264.67086783 28.125 265.5 C27.40570313 265.9640625 26.68640625 266.428125 25.9453125 266.90625 C24 268 24 268 22 268 C20.83294788 270.31727177 19.6896792 272.64340969 18.5625 274.98046875 C18.046875 276.03878906 17.53125 277.09710938 17 278.1875 C16.484375 279.25355469 15.96875 280.31960938 15.4375 281.41796875 C14 284 14 284 12 285 C2.13666698 286.36462926 -6.66982073 283.78305259 -16.03979492 280.95874023 C-17.47415894 280.54217163 -17.47415894 280.54217163 -18.9375 280.1171875 C-19.79214844 279.85534668 -20.64679688 279.59350586 -21.52734375 279.32373047 C-26.05725079 278.73065615 -29.27285419 280.99518819 -32.77734375 283.63671875 C-33.45603516 284.13107422 -34.13472656 284.62542969 -34.83398438 285.13476562 C-36.23943074 286.17221211 -37.63789988 287.2191761 -39.02929688 288.27539062 C-44.1175375 291.94567604 -44.1175375 291.94567604 -47.85546875 292.17578125 C-52.61850415 290.39482019 -56.95302914 287.99702334 -61.375 285.5 C-62.34002441 284.96407227 -63.30504883 284.42814453 -64.29931641 283.87597656 C-67.20465711 282.25960134 -70.10291449 280.63111532 -73 279 C-74.66645882 278.06733687 -76.33311073 277.1350186 -78 276.203125 C-81.67281286 274.14615904 -85.33861443 272.07723308 -89 270 C-89.08840346 266.06264583 -89.1408564 262.12555276 -89.1875 258.1875 C-89.21263672 257.08728516 -89.23777344 255.98707031 -89.26367188 254.85351562 C-89.32146864 248.32248148 -88.58881067 242.94770249 -86.67456055 236.72143555 C-85.49103663 231.94664687 -85.68410838 227.20125792 -85.8125 222.3125 C-85.82603516 221.31283203 -85.83957031 220.31316406 -85.85351562 219.28320312 C-85.8883721 216.85486864 -85.93735464 214.42774876 -86 212 C-86.88147705 212.39380859 -87.7629541 212.78761719 -88.67114258 213.19335938 C-91.98540566 214.66754405 -95.31098376 216.11456173 -98.64038086 217.55419922 C-100.07192324 218.17753239 -101.50041986 218.80791468 -102.92553711 219.44580078 C-119.66051531 226.9240057 -119.66051531 226.9240057 -128 225 C-131.12819255 223.03835178 -133.46154168 220.66562579 -136 218 C-137.65565421 216.48785354 -139.32283903 214.98825699 -141 213.5 C-142.2684375 212.3553125 -142.2684375 212.3553125 -143.5625 211.1875 C-146.32467119 208.70862842 -149.11752406 206.26744853 -151.91796875 203.83203125 C-155.24875365 200.9011905 -158.5228716 197.90771052 -161.80078125 194.91796875 C-164.04822519 192.87480508 -164.04822519 192.87480508 -167 191 C-166.20085686 185.56784976 -163.71881614 181.11961711 -161.27734375 176.25390625 C-159.11648061 170.30810629 -158.74137831 164.17982818 -160 158 C-162.65475792 153.88606789 -166.02037795 150.94877309 -169.75 147.8125 C-177.08643431 141.44706435 -181.6117985 136.56328055 -184 127 C-184.18578613 126.31534668 -184.37157227 125.63069336 -184.56298828 124.92529297 C-186.2364761 117.55259746 -186.78506918 108.46109567 -183.2734375 101.65234375 C-181.00024185 98.87529546 -178.63508551 96.43396528 -176 94 C-174.62339666 92.6057479 -173.24828561 91.21002006 -171.875 89.8125 C-171.22273438 89.17957031 -170.57046875 88.54664062 -169.8984375 87.89453125 C-167.9999406 85.99994072 -166.2464372 84.03487592 -164.5 82 C-161.48358077 78.48998489 -158.26904868 75.24948724 -154.97265625 72.00390625 C-152.42662171 69.41753849 -150.07978443 66.6846472 -147.71484375 63.93359375 C-146.03995701 62.04505403 -144.30052413 60.26844352 -142.5 58.5 C-137.28580698 53.35502193 -132.62144517 47.74402039 -127.89331055 42.15673828 C-126.92378156 41.01177382 -125.95259157 39.86821377 -124.97973633 38.72607422 C-123.04201477 36.44620544 -121.12611171 34.16552161 -119.3125 31.78515625 C-113.47630095 24.20804556 -103.70040418 21.32726083 -95.05859375 17.890625 C-93.68139915 17.33776825 -93.68139915 17.33776825 -92.27638245 16.77374268 C-89.33207281 15.59412333 -86.38502065 14.42157048 -83.4375 13.25 C-82.43565674 12.85014893 -81.43381348 12.45029785 -80.40161133 12.03833008 C-66.03603226 6.3070566 -51.63616212 0.76067919 -37.01318359 -4.28344727 C-35.37765413 -4.86558151 -33.76616949 -5.51494579 -32.1640625 -6.18359375 C-21.45265267 -10.22454078 -9.74883953 -4.30762677 0 0 Z M-42.25 26.5 C-43.77437489 27.80120861 -45.299112 29.10199301 -46.82421875 30.40234375 C-47.55044434 31.02995605 -48.27666992 31.65756836 -49.02490234 32.30419922 C-51.32719702 34.28092836 -53.68006946 36.18334269 -56.0625 38.0625 C-65.96090939 45.94082584 -75.78507304 53.9067869 -85.4128418 62.11425781 C-88.77831915 64.98023354 -92.18615976 67.78516227 -95.625 70.5625 C-100.33142558 74.38902862 -104.79648106 78.43160438 -109.2578125 82.5390625 C-111.90015883 84.91039895 -114.60694167 87.15252997 -117.375 89.375 C-122.24893871 93.30491902 -126.85058958 97.46556878 -131.40966797 101.75146484 C-134.83995842 104.9695947 -138.36092287 108.0191117 -142 111 C-138.28661685 119.72645041 -129.49007989 126.9268042 -122.1875 132.75 C-121.42711426 133.36597046 -121.42711426 133.36597046 -120.65136719 133.99438477 C-109.54409328 142.55750623 -96.25012904 148.54222871 -83.76171875 154.8046875 C-82.14416564 155.61796209 -80.52663787 156.43128708 -78.90913391 157.24465942 C-75.54822145 158.93328372 -72.18562294 160.6184968 -68.82202148 162.30175781 C-64.52945782 164.45074927 -60.24353693 166.61265637 -55.95901775 168.77763176 C-52.63284492 170.45562453 -49.30217885 172.12454125 -45.97022438 173.79101944 C-44.3878626 174.58429071 -42.80713371 175.38082859 -41.22815514 176.18081284 C-28.98555913 182.95736555 -28.98555913 182.95736555 -15.4621582 184.73681641 C-9.87596212 182.58524998 -5.11413764 179.75939034 -0.1875 176.375 C8.06000971 170.86245259 16.44408463 165.62092005 24.9375 160.5 C26.14560619 159.76985677 27.3536141 159.03955089 28.56152344 158.30908203 C30.34796739 157.22898479 32.13450343 156.1490419 33.92138672 155.06967163 C66.02460274 136.76735001 66.02460274 136.76735001 94 113 C94 112.34 94 111.68 94 111 C92.43392428 109.96099812 90.8188487 108.99567709 89.1875 108.0625 C83.55942779 104.59629932 79.30609172 100.50272142 74.7421875 95.7578125 C71.31962003 92.31574322 67.65223931 89.31830928 63.859375 86.296875 C61.3517639 84.28256444 58.90136472 82.21591501 56.46435547 80.1171875 C50.25221761 74.773413 43.8302711 69.7698454 37.29174805 64.83251953 C32.97070687 61.55408753 28.78345298 58.17936669 24.6875 54.625 C-0.462594 32.25455074 -0.462594 32.25455074 -30.79296875 19.5078125 C-35.74096311 20.267188 -38.57141253 23.25500873 -42.25 26.5 Z M-28 199 C-41.3812831 213.33708904 -49.11077506 233.62268174 -55 252 C-52.00781119 251.05834058 -49.16873401 250.08188562 -46.34375 248.7109375 C-39.06780385 245.29284192 -32.66726881 244.46664515 -24.6875 244.375 C-23.75679687 244.35228027 -22.82609375 244.32956055 -21.8671875 244.30615234 C-16.05320722 244.3695738 -12.39596322 245.37587562 -7.69165039 248.83666992 C-5.1862691 250.55959413 -3.00489554 250.93170692 0 251 C2.13877055 250.05068366 2.13877055 250.05068366 4 249 C-2.41849884 234.64283154 -11.08705526 221.91179793 -20 209 C-20.66628418 208.02643555 -21.33256836 207.05287109 -22.01904297 206.04980469 C-22.65084473 205.13360352 -23.28264648 204.21740234 -23.93359375 203.2734375 C-24.78328735 202.03859619 -24.78328735 202.03859619 -25.65014648 200.77880859 C-26.09559814 200.19180176 -26.5410498 199.60479492 -27 199 C-27.33 199 -27.66 199 -28 199 Z " transform="translate(189,17)"/>
<path d="M0 0 C3.11790542 0.40535583 5.06654808 1.56932355 7.51171875 3.484375 C8.51090332 4.25841675 8.51090332 4.25841675 9.53027344 5.0480957 C10.2421582 5.60972412 10.95404297 6.17135254 11.6875 6.75 C13.22774122 7.94677337 14.76810919 9.14338362 16.30859375 10.33984375 C17.09218262 10.9519873 17.87577148 11.56413086 18.68310547 12.19482422 C22.18702315 14.92485239 25.71837644 17.61847545 29.25 20.3125 C30.66672278 21.39575995 32.08338811 22.47909504 33.5 23.5625 C37.53329572 26.64468166 41.56958676 29.72291643 45.60766602 32.79882812 C47.36426028 34.1374948 49.11996277 35.47733249 50.87475586 36.81835938 C55.56302794 40.39810214 60.26910274 43.95072446 65.00390625 47.46875 C65.97618164 48.19602295 66.94845703 48.9232959 67.95019531 49.67260742 C69.82787051 51.07637944 71.71117664 52.47265747 73.60058594 53.8605957 C74.85983887 54.8055188 74.85983887 54.8055188 76.14453125 55.76953125 C77.26371948 56.59868042 77.26371948 56.59868042 78.40551758 57.44458008 C79.19478638 58.21451294 79.19478638 58.21451294 80 59 C80 59.99 80 60.98 80 62 C65.89285361 70.03139021 51.75925058 77.85042754 37 84.625 C30.96453119 87.397598 25.85435008 90.29758025 20.765625 94.625 C16.25418806 98.13833142 10.88631004 98.23036935 5.40625 98.36328125 C-1.8478674 97.26809794 -8.60584112 92.59769747 -14.9375 89.125 C-17.07926919 87.95543998 -19.22120106 86.78617783 -21.36328125 85.6171875 C-23.00611084 84.7195166 -23.00611084 84.7195166 -24.68212891 83.80371094 C-27.9193968 82.04381872 -31.16640004 80.30361765 -34.41796875 78.5703125 C-45.24477583 72.78696001 -55.84901421 66.91625264 -66 60 C-61.70888775 54.7433875 -57.18107327 50.36431172 -52 46 C-49.74651425 44.0874078 -47.49744781 42.16968231 -45.25 40.25 C-44.64913574 39.73711426 -44.04827148 39.22422852 -43.42919922 38.69580078 C-38.40280536 34.38650399 -33.51891118 29.93736885 -28.65625 25.4453125 C-24.04533837 21.2005615 -19.3070704 17.11333011 -14.5390625 13.046875 C-13.91628418 12.51505615 -13.29350586 11.9832373 -12.65185547 11.43530273 C-11.41016111 10.37579793 -10.16705787 9.31794143 -8.92236328 8.26196289 C-8.05587158 7.52320923 -8.05587158 7.52320923 -7.171875 6.76953125 C-6.61951172 6.2998291 -6.06714844 5.83012695 -5.49804688 5.34619141 C-3.82027409 3.88736637 -3.82027409 3.88736637 -1.828125 1.57421875 C-1.22484375 1.05472656 -0.6215625 0.53523438 0 0 Z M0 18 C-0.29132813 18.75023438 -0.58265625 19.50046875 -0.8828125 20.2734375 C-2.97466464 25.49648971 -5.12174431 30.41983159 -8.125 35.1875 C-11.5192557 40.66040842 -14.05241146 45.68195167 -13.94921875 52.21484375 C-12.66372058 57.34096609 -10.05092686 60.71906533 -6.875 64.875 C-6.2869458 65.66567871 -5.6988916 66.45635742 -5.09301758 67.27099609 C-3.41006308 69.52562085 -1.70948286 71.76545044 0 74 C0.79792969 75.04671875 1.59585938 76.0934375 2.41796875 77.171875 C3.9290722 79.12852029 5.45085712 81.07342958 7 83 C9.78318461 80.3735883 11.8768839 77.85213615 13.8046875 74.55078125 C14.30613281 73.70193359 14.80757812 72.85308594 15.32421875 71.97851562 C15.83597656 71.09873047 16.34773438 70.21894531 16.875 69.3125 C17.89095856 67.57809504 18.90917932 65.84501316 19.9296875 64.11328125 C20.42823242 63.26330566 20.92677734 62.41333008 21.44042969 61.53759766 C23.46690624 58.24029062 25.703839 55.11082301 28.00048828 51.99682617 C29.19518535 50.06012028 29.19518535 50.06012028 28.77612305 47.93286133 C27.52997705 44.82945212 25.62688531 42.19949983 23.6875 39.5 C23.25107178 38.88995117 22.81464355 38.27990234 22.36499023 37.65136719 C16.9912076 30.35277441 10.57429298 23.04952866 3 18 C2.01 18 1.02 18 0 18 Z " transform="translate(154,72)"/>
<path d="M0 0 C0.99 0.495 0.99 0.495 2 1 C2 8.59 2 16.18 2 24 C8.4270051 21.30897864 8.4270051 21.30897864 13.4375 17.3125 C14.11683594 16.68988281 14.79617188 16.06726563 15.49609375 15.42578125 C15.99238281 14.95527344 16.48867188 14.48476562 17 14 C18.65 14.66 20.3 15.32 22 16 C20.19365268 16.60211577 18.38235796 17.19004371 16.5625 17.75 C13.43633039 19.27496079 12.13047874 21.3013936 10 24 C9.01 24 8.02 24 7 24 C7 24.66 7 25.32 7 26 C4 27 4 27 1 26 C0.67 17.42 0.34 8.84 0 0 Z " transform="translate(255,58)"/>
<path d="M0 0 C0.495 0.99 0.495 0.99 1 2 C-5.2066072 3.07437941 -11.13591561 3.02489451 -17.41601562 2.78515625 C-22.46241877 2.69115043 -25.52312799 3.43130295 -30 6 C-32.875 6.1875 -32.875 6.1875 -35 6 C-26.2602067 -2.7397933 -11.27711074 -0.38799111 0 0 Z " transform="translate(175,261)"/>
<path d="M0 0 C0.99 0.99 1.98 1.98 3 3 C1.43717018 6.76603869 -0.9063475 9.13639151 -3.7890625 11.984375 C-4.25234955 12.44483215 -4.7156366 12.90528931 -5.19296265 13.37969971 C-6.66565898 14.84125078 -8.14517403 16.29567168 -9.625 17.75 C-10.62806322 18.74302611 -11.63067257 19.73651089 -12.6328125 20.73046875 C-15.08330835 23.15897941 -17.5399667 25.58114675 -20 28 C-20 24.86248779 -19.64820195 23.60242414 -18 21 C-17.01 20.67 -16.02 20.34 -15 20 C-14.67 19.34 -14.34 18.68 -14 18 C-12.9412263 17.05507294 -11.85344703 16.14235281 -10.75 15.25 C-8.30705852 13.20836307 -6.18739007 11.16497576 -4.1875 8.6875 C-2 6 -2 6 0 5 C0 3.35 0 1.7 0 0 Z " transform="translate(293,200)"/>
<path d="M0 0 C4.2493371 0.3713013 6.20295932 2.96987259 9 6 C8.2575 5.608125 7.515 5.21625 6.75 4.8125 C5.8425 4.544375 4.935 4.27625 4 4 C1.97670607 5.24577228 1.97670607 5.24577228 0 7 C-1.98248715 7.71706982 -3.98415349 8.38290413 -6 9 C-7.67163195 9.65411685 -9.34015202 10.31653318 -11 11 C-9.83528191 9.83528191 -8.66908955 8.67200613 -7.49609375 7.515625 C-6.46199193 6.46802315 -5.45543849 5.39276517 -4.47265625 4.296875 C-2.9375 2.625 -2.9375 2.625 0 0 Z " transform="translate(154,72)"/>
<path d="M0 0 C3.99777718 5.99666577 3.14054827 14.15344975 3.25 21.1875 C3.282146 22.34584351 3.282146 22.34584351 3.31494141 23.52758789 C3.34359782 28.45171572 2.61917455 31.67836198 0 36 C-1.13800429 32.58598712 -0.52090642 31.46659375 0.51074219 28.17138672 C1.51586196 23.7105408 1.2019342 19.11049489 1.125 14.5625 C1.11146484 13.03592773 1.11146484 13.03592773 1.09765625 11.47851562 C1.07424698 8.98542844 1.041457 6.49284141 1 4 C-1.31 4.66 -3.62 5.32 -6 6 C-4.6875 4 -4.6875 4 -3 2 C-2.01 2 -1.02 2 0 2 C0 1.34 0 0.68 0 0 Z " transform="translate(102,225)"/>
<path d="M0 0 C2.3125 -0.3125 2.3125 -0.3125 5 0 C6.04892238 1.63631892 7.04906703 3.30485863 8 5 C10.06874034 5.6425235 10.06874034 5.6425235 12 6 C12.33 6.99 12.66 7.98 13 9 C15.00016466 10.20882096 15.00016466 10.20882096 17 11 C17 11.66 17 12.32 17 13 C17.66 13 18.32 13 19 13 C19.33 13.99 19.66 14.98 20 16 C17.04323652 14.63296942 14.63471343 13.04863619 12.109375 10.99609375 C11.40039062 10.42052734 10.69140625 9.84496094 9.9609375 9.25195312 C9.23132813 8.65318359 8.50171875 8.05441406 7.75 7.4375 C6.63238281 6.53354492 6.63238281 6.53354492 5.4921875 5.61132812 C1.42199241 2.29031729 1.42199241 2.29031729 0 1 C0 0.67 0 0.34 0 0 Z " transform="translate(227,82)"/>
<path d="M0 0 C1 3 1 3 -0.1875 6.5 C-1.88188104 9.77190822 -2.74442266 11.37221133 -6 13 C-6.99 12.67 -7.98 12.34 -9 12 C-9.6875 9.9375 -9.6875 9.9375 -10 8 C-11.32 8.33 -12.64 8.66 -14 9 C-14 6.33333333 -14 3.66666667 -14 1 C-10.535 5.455 -10.535 5.455 -7 10 C-4.3513141 6.80331012 -2.06007659 3.60513403 0 0 Z " transform="translate(168,144)"/>
<path d="M0 0 C0.33 0.66 0.66 1.32 1 2 C-0.17163086 4.43017578 -0.17163086 4.43017578 -1.96484375 7.4453125 C-2.59970703 8.52167969 -3.23457031 9.59804687 -3.88867188 10.70703125 C-4.56478516 11.83496094 -5.24089844 12.96289062 -5.9375 14.125 C-6.60974609 15.26066406 -7.28199219 16.39632812 -7.97460938 17.56640625 C-9.64263056 20.38193137 -11.31801635 23.19280116 -13 26 C-14.26339822 22.20980534 -13.49719015 20.62477616 -12 17 C-11.34 16.67 -10.68 16.34 -10 16 C-9.690625 15.21625 -9.38125 14.4325 -9.0625 13.625 C-7.96664421 10.91759159 -7.01810284 10.01318064 -5 8 C-4.0685158 6.62770075 -3.17265697 5.23059663 -2.3125 3.8125 C-1.87550781 3.09707031 -1.43851562 2.38164062 -0.98828125 1.64453125 C-0.66214844 1.10183594 -0.33601563 0.55914062 0 0 Z " transform="translate(309,129)"/>
<path d="M0 0 C3.71060708 2.11939179 6.99883918 4.4923892 10.3125 7.1875 C11.19550781 7.90292969 12.07851562 8.61835938 12.98828125 9.35546875 C13.65214844 9.89816406 14.31601563 10.44085938 15 11 C11.98041673 11.95287489 11.32190521 12.14972335 8.3125 10.75 C6 9 6 9 5 6 C3.35 5.67 1.7 5.34 0 5 C0 3.35 0 1.7 0 0 Z " transform="translate(59,143)"/>
<path d="M0 0 C0.66 0.33 1.32 0.66 2 1 C1.34 1.556875 0.68 2.11375 0 2.6875 C-2.25492211 4.84062308 -2.25492211 4.84062308 -2.25 7.75 C-2.12625 8.86375 -2.12625 8.86375 -2 10 C-2.59296875 10.09152344 -3.1859375 10.18304688 -3.796875 10.27734375 C-6.52534657 11.17232113 -7.47125041 12.33906301 -9.25 14.5625 C-9.77078125 15.20316406 -10.2915625 15.84382813 -10.828125 16.50390625 C-11.21484375 16.99761719 -11.6015625 17.49132812 -12 18 C-12.66 17.67 -13.32 17.34 -14 17 C-12.23161621 14.72722151 -10.4604139 12.45674036 -8.6875 10.1875 C-8.18798828 9.54490234 -7.68847656 8.90230469 -7.17382812 8.24023438 C-6.68720703 7.61826172 -6.20058594 6.99628906 -5.69921875 6.35546875 C-5.25408936 5.78465576 -4.80895996 5.21384277 -4.3503418 4.62573242 C-2.98453584 2.98138206 -1.53421666 1.4869494 0 0 Z " transform="translate(74,44)"/>
<path d="M0 0 C0 2.83967231 -0.40267181 5.23735711 -1 8 C-1.66 7.67 -2.32 7.34 -3 7 C-4.27513763 8.07826365 -5.54492569 9.16285519 -6.8125 10.25 C-7.52019531 10.85328125 -8.22789063 11.4565625 -8.95703125 12.078125 C-10.91889671 13.92370398 -12.45669625 15.79945332 -14 18 C-14.66 17.67 -15.32 17.34 -16 17 C-10.94647258 11.03651266 -5.58288259 5.46894621 0 0 Z " transform="translate(37,86)"/>
<path d="M0 0 C6.59997031 3.5999838 12.7765509 7.78971917 19 12 C16 13 16 13 14.0625 12.36328125 C10.09098683 10.33991564 7.49241422 8.80421117 5 5 C4.01 4.67 3.02 4.34 2 4 C2 3.34 2 2.68 2 2 C1.34 2 0.68 2 0 2 C0 1.34 0 0.68 0 0 Z " transform="translate(277,75)"/>
<path d="M0 0 C0.66 0.33 1.32 0.66 2 1 C1.2884375 2.175625 1.2884375 2.175625 0.5625 3.375 C-0.33898023 4.88948678 -1.21179485 6.4235897 -2 8 C-4.31074405 8.74118205 -6.64811553 9.40206327 -9 10 C-9.804375 10.20625 -10.60875 10.4125 -11.4375 10.625 C-11.953125 10.74875 -12.46875 10.8725 -13 11 C-10.24881027 8.14784917 -7.39684775 5.65641299 -4.25 3.25 C-3.45078125 2.63640625 -2.6515625 2.0228125 -1.828125 1.390625 C-1.22484375 0.93171875 -0.6215625 0.4728125 0 0 Z " transform="translate(274,137)"/>
<path d="M0 0 C3.91402949 1.26941497 5.79072873 2.51167694 8 6 C6.02 7.32 4.04 8.64 2 10 C1.34 9.67 0.68 9.34 0 9 C0.99 8.01 1.98 7.02 3 6 C2.01 5.67 1.02 5.34 0 5 C0 3.33333333 0 1.66666667 0 0 Z " transform="translate(227,127)"/>
<path d="M0 0 C-2.73393726 1.76901823 -5.14060937 3.04596845 -8.25 4.0625 C-11.13618706 4.68714055 -11.13618706 4.68714055 -12 7 C-14.31 7 -16.62 7 -19 7 C-15.7141754 4.24832423 -12.36372513 2.78066201 -8.375 1.25 C-7.22773437 0.80140625 -6.08046875 0.3528125 -4.8984375 -0.109375 C-2 -1 -2 -1 0 0 Z " transform="translate(126,24)"/>
<path d="M0 0 C0.66 0.33 1.32 0.66 2 1 C0.89847594 2.43952597 -0.2063304 3.87654071 -1.3125 5.3125 C-1.92738281 6.11300781 -2.54226562 6.91351563 -3.17578125 7.73828125 C-4.69916307 9.62701374 -6.24434407 11.33077636 -8 13 C-6.47549821 7.19945661 -5.34673609 3.32364676 0 0 Z " transform="translate(160,215)"/>
<path d="M0 0 C0.99 0.495 0.99 0.495 2 1 C2 8.33333333 2 15.66666667 2 23 C1.34 23.66 0.68 24.32 0 25 C0 16.75 0 8.5 0 0 Z "  transform="translate(100,262)"/>
<path d="M0 0 C-0.66 1.98 -1.32 3.96 -2 6 C-2.99 5.34 -3.98 4.68 -5 4 C-5.99 4.33 -6.98 4.66 -8 5 C-8.99 4.67 -9.98 4.34 -11 4 C-9.73760288 3.13341385 -8.46472499 2.28207941 -7.1875 1.4375 C-6.47980469 0.96183594 -5.77210938 0.48617187 -5.04296875 -0.00390625 C-3 -1 -3 -1 0 0 Z " transform="translate(231,169)"/>
<path d="M0 0 C-2.57784846 2.64752004 -4.91648098 4.94432065 -8 7 C-8.6875 5.1875 -8.6875 5.1875 -9 3 C-6.75886401 -0.69128281 -4.00118708 -0.26674581 0 0 Z " transform="translate(267,233)"/>
<path d="M0 0 C-1 3 -1 3 -3.0625 4.1875 C-3.701875 4.455625 -4.34125 4.72375 -5 5 C-5 5.66 -5 6.32 -5 7 C-6.32 6.67 -7.64 6.34 -9 6 C-9.33 6.99 -9.66 7.98 -10 9 C-10.99 8.34 -11.98 7.68 -13 7 C-11.21190303 5.82786955 -9.41940875 4.66244474 -7.625 3.5 C-6.62726563 2.8503125 -5.62953125 2.200625 -4.6015625 1.53125 C-2 0 -2 0 0 0 Z " transform="translate(246,158)"/>
<path d="M0 0 C0.66 0.33 1.32 0.66 2 1 C1 4 1 4 -1 5.0625 C-1.66 5.371875 -2.32 5.68125 -3 6 C-3.33 6.66 -3.66 7.32 -4 8 C-4.66 8 -5.32 8 -6 8 C-6 8.66 -6 9.32 -6 10 C-7.32 10.33 -8.64 10.66 -10 11 C-6.79239749 7.19364503 -3.59253891 3.45436433 0 0 Z " transform="translate(50,72)"/>
<path d="M0 0 C5.31427203 2.70923672 8.42148591 5.22864787 12 10 C9.97467576 8.98733788 7.95050869 7.97450448 5.9375 6.9375 C3.86589825 5.88388051 3.86589825 5.88388051 1 5 C1.33 4.01 1.66 3.02 2 2 C1.34 2 0.68 2 0 2 C0 1.34 0 0.68 0 0 Z " transform="translate(240,46)"/>
<path d="M0 0 C0 0.66 0 1.32 0 2 C-5.30094216 3.80304155 -10.60308488 5.50723624 -16 7 C-13.62916021 4.27821353 -11.3466216 3.11230393 -8 1.8125 C-6.700625 1.29623047 -6.700625 1.29623047 -5.375 0.76953125 C-3 0 -3 0 0 0 Z " transform="translate(92,37)"/>
<path d="M0 0 C-1.45537568 0.83848804 -2.91440373 1.67063934 -4.375 2.5 C-5.59316406 3.19609375 -5.59316406 3.19609375 -6.8359375 3.90625 C-9 5 -9 5 -11 5 C-9.96508351 2.17750049 -9.30084735 1.16625774 -6.625 -0.3125 C-3.83346058 -1.04361747 -2.69138789 -0.79596365 0 0 Z " transform="translate(227,138)"/>
<path d="M0 0 C0 0.99 0 1.98 0 3 C-0.66 3 -1.32 3 -2 3 C-2.33 4.65 -2.66 6.3 -3 8 C-4.98 8.33 -6.96 8.66 -9 9 C-8.06725891 7.87105124 -7.12859878 6.74699124 -6.1875 5.625 C-5.66542969 4.99851562 -5.14335938 4.37203125 -4.60546875 3.7265625 C-3 2 -3 2 0 0 Z "  transform="translate(114,108)"/>
<path d="M0 0 C-3.96 3.465 -3.96 3.465 -8 7 C-8.66 6.67 -9.32 6.34 -10 6 C-9.67 4.35 -9.34 2.7 -9 1 C-2.25 -1.125 -2.25 -1.125 0 0 Z " transform="translate(130,58)"/>
<path d="M0 0 C0.66 0.33 1.32 0.66 2 1 C0.68 2.65 -0.64 4.3 -2 6 C-1.34 7.32 -0.68 8.64 0 10 C-2.475 9.01 -2.475 9.01 -5 8 C-5 5 -5 5 -2.5 2.3125 C-1.675 1.549375 -0.85 0.78625 0 0 Z " transform="translate(94,125)"/>
<path d="M0 0 C4.04420651 1.77945087 7.46078487 4.39529673 11 7 C9.1875 7.625 9.1875 7.625 7 8 C6.01 7.34 5.02 6.68 4 6 C4.33 5.34 4.66 4.68 5 4 C4.360625 3.71125 3.72125 3.4225 3.0625 3.125 C1 2 1 2 0 0 Z " transform="translate(163,78)"/>
<path d="M0 0 C0 0.66 0 1.32 0 2 C-4.27720165 5.44935617 -8.71876659 5.6663273 -14 6 C-11.74402173 3.74402173 -9.95396133 3.03425808 -7 1.875 C-6.113125 1.52179687 -5.22625 1.16859375 -4.3125 0.8046875 C-2 0 -2 0 0 0 Z " transform="translate(106,31)"/>
<path d="M0 0 C0.66 0 1.32 0 2 0 C2 0.66 2 1.32 2 2 C0.56570999 2.67354499 -0.87257057 3.33859701 -2.3125 4 C-3.51326172 4.556875 -3.51326172 4.556875 -4.73828125 5.125 C-7 6 -7 6 -10 6 C-9.67 5.01 -9.34 4.02 -9 3 C-7.1875 2.3046875 -7.1875 2.3046875 -5 1.875 C-2.22654918 1.46392855 -2.22654918 1.46392855 0 0 Z " transform="translate(86,233)"/>
<path d="M0 0 C0.99 0 1.98 0 3 0 C3.66 0.99 4.32 1.98 5 3 C5.99 2.01 6.98 1.02 8 0 C8.66 0.33 9.32 0.66 10 1 C6.535 3.97 6.535 3.97 3 7 C2.01 4.69 1.02 2.38 0 0 Z " transform="translate(73,96)"/>
<path d="M0 0 C1.65 0 3.3 0 5 0 C5 0.99 5 1.98 5 3 C5.66 3.66 6.32 4.32 7 5 C7.99 6.485 7.99 6.485 9 8 C8.01 8 7.02 8 6 8 C4.39453125 6.25 4.39453125 6.25 2.8125 4 C2.28269531 3.2575 1.75289062 2.515 1.20703125 1.75 C0.80871094 1.1725 0.41039062 0.595 0 0 Z " transform="translate(168,100)"/>
<path d="M0 0 C-1.12073862 0.83905565 -2.24674547 1.67107831 -3.375 2.5 C-4.00148437 2.9640625 -4.62796875 3.428125 -5.2734375 3.90625 C-7 5 -7 5 -9 5 C-8.8125 3.125 -8.8125 3.125 -8 1 C-4.70594381 -0.82039948 -3.63772813 -1.21257604 0 0 Z " transform="translate(163,296)"/>
<path d="M0 0 C3.53372712 1.96318174 6.24479785 4.04070881 9 7 C8.401875 6.835 7.80375 6.67 7.1875 6.5 C4.88655664 5.8885876 4.88655664 5.8885876 2 6 C1.34 4.02 0.68 2.04 0 0 Z " transform="translate(208,112)"/>
<path d="M0 0 C1.64936913 0.78427352 3.29441127 1.57765259 4.9375 2.375 C5.85402344 2.81585937 6.77054688 3.25671875 7.71484375 3.7109375 C10 5 10 5 11 7 C9.68 7 8.36 7 7 7 C7 6.34 7 5.68 7 5 C6.401875 4.87625 5.80375 4.7525 5.1875 4.625 C3 4 3 4 0 2 C0 1.34 0 0.68 0 0 Z " transform="translate(198,22)"/>
<path d="M0 0 C0.66 0 1.32 0 2 0 C2.33 0.99 2.66 1.98 3 3 C1.59554165 5.2636564 -0.1967913 7.0208685 -2 9 C-2.33 8.34 -2.66 7.68 -3 7 C-2.06421005 4.64018187 -1.06652192 2.30368736 0 0 Z " transform="translate(27,194)"/>
<path d="M0 0 C4.23429756 1.31061591 8.07407404 2.94356259 12 5 C8.98990772 6.27350058 7.99218495 5.99687398 4.875 4.75 C2 3 2 3 0 0 Z " transform="translate(144,191)"/>
<path d="M0 0 C4.23429756 1.31061591 8.07407404 2.94356259 12 5 C8.98990772 6.27350058 7.99218495 5.99687398 4.875 4.75 C2 3 2 3 0 0 Z " transform="translate(112,175)"/>
<path d="M0 0 C2.375 -0.125 2.375 -0.125 5 0 C5.66 0.66 6.32 1.32 7 2 C7.99 2.66 8.98 3.32 10 4 C7 5 7 5 5.17578125 4.22265625 C3.45052083 3.1484375 1.72526042 2.07421875 0 1 C0 0.67 0 0.34 0 0 Z " transform="translate(123,151)"/>
<path d="M0 0 C2.375 0.1875 2.375 0.1875 5 1 C6.3125 3.5625 6.3125 3.5625 7 6 C2.25 4.125 2.25 4.125 0 3 C0 2.01 0 1.02 0 0 Z " transform="translate(276,122)"/>
<path d="M0 0 C0.33 0 0.66 0 1 0 C1.33 3.63 1.66 7.26 2 11 C0.68 11.33 -0.64 11.66 -2 12 C-2 11.01 -2 10.02 -2 9 C-1.34 9 -0.68 9 0 9 C0 6.03 0 3.06 0 0 Z " transform="translate(219,269)"/>
<path d="M0 0 C3.3 1.65 6.6 3.3 10 5 C5.23374833 6.19156292 4.12120649 5.3415946 0 3 C0 2.01 0 1.02 0 0 Z " transform="translate(76,156)"/>
<path d="M0 0 C2.31 0.66 4.62 1.32 7 2 C7 5 7 5 6 7 C4.02 4.69 2.04 2.38 0 0 Z " transform="translate(52,233)"/>
<path d="M0 0 C1.32 0 2.64 0 4 0 C7 3.21428571 7 3.21428571 7 6 C3.63279613 4.60667426 2.0140476 3.0210714 0 0 Z " transform="translate(34,217)"/>
<path d="M0 0 C0.99 0 1.98 0 3 0 C3.33 1.65 3.66 3.3 4 5 C2.02 4.34 0.04 3.68 -2 3 C-1.34 2.01 -0.68 1.02 0 0 Z " transform="translate(148,162)"/>
<path d="M0 0 C1.65 1.65 3.3 3.3 5 5 C4.67 5.66 4.34 6.32 4 7 C3.401875 6.505 2.80375 6.01 2.1875 5.5 C0.02970006 3.71723582 0.02970006 3.71723582 -3 4 C-2.01 2.68 -1.02 1.36 0 0 Z " transform="translate(148,138)"/>
<path d="M0 0 C0.5534764 2.07553648 1 3.84365964 1 6 C-0.98 6 -2.96 6 -5 6 C-3.35 4.02 -1.7 2.04 0 0 Z " transform="translate(102,118)"/>
<path d="M0 0 C1.65 0 3.3 0 5 0 C5.12375 0.598125 5.2475 1.19625 5.375 1.8125 C5.95475985 4.26231348 5.95475985 4.26231348 8 7 C4.2047869 5.50902342 2.38957269 3.24299151 0 0 Z " transform="translate(160,92)"/>
<path d="M0 0 C3.375 0.3125 3.375 0.3125 7 1 C7.66 1.99 8.32 2.98 9 4 C3.46153846 3.38461538 3.46153846 3.38461538 1.125 1.4375 C0.75375 0.963125 0.3825 0.48875 0 0 Z " transform="translate(135,305)"/>
<path d="M0 0 C4.95 0.99 4.95 0.99 10 2 C9.67 2.99 9.34 3.98 9 5 C5.35008834 3.68197635 3.2104799 2.40785992 0 0 Z " transform="translate(107,290)"/>
<path d="M0 0 C2.475 0.495 2.475 0.495 5 1 C5 1.66 5 2.32 5 3 C5.66 3 6.32 3 7 3 C7.33 3.99 7.66 4.98 8 6 C4.63408134 4.55746343 2.48952921 2.66735273 0 0 Z " transform="translate(239,92)"/>
<path d="M0 0 C1.65 0.33 3.3 0.66 5 1 C3.71937515 2.7074998 2.38232443 4.37373596 1 6 C0.34 6 -0.32 6 -1 6 C-1 5.34 -1 4.68 -1 4 C-0.34 4 0.32 4 1 4 C0.67 2.68 0.34 1.36 0 0 Z " transform="translate(91,84)"/>
</svg>
