<svg xmlns="http://www.w3.org/2000/svg" fill="#CCC9DC" viewBox="0 0 800 800" class="icon"><title>trophy-merfolkslullaby</title><g id="Layer_205" data-name="Layer 205"><g id="trophy-2" data-name="trophy"><path d="M705.66,171.2h0c-2-3.36-4.8-5.78-8.92-5.78-10.79,0-21.44,0-32.22.27-17.18.53-34.36,1.35-51.67,1.87-5.31.13-5.44-.27-5.31-5.75.4-14.24.65-28.62.8-42.86,0-4-1-4.56-4.8-3.49-6.93,1.87-14,3.76-21,5.76a217.39,217.39,0,0,1-48.2,8.48c-15.19.8-30.36,1.2-45.54,2-19.16,1.07-38.47,2.56-57.65,3.08-21,.68-42.07.8-63-3-7.2-1.34-14.64-1.47-22-2.28-5.73-.68-11.46-1.2-17-2.28-8-1.48-16.11-3.23-24.1-5a14.23,14.23,0,0,1-3.05-1.76c1.18-.68,2.25-1.76,3.33-1.6,5.31.25,10.51,1.2,16,1.47l42.62,2c3.6.27,7.05.27,10.78.27,15,.27,30.09,1.07,45.14.67q28.65-.9,57.25-3.21c20.24-1.49,40.47-3,60.58-5.65a402,402,0,0,0,47.4-9c14.78-3.76,29.16-9.28,43.54-14.24,6.51-2.14,7.71-5,6.79-12.09-.4-3.22,0-6.58.12-9.81.28-8.59.8-17.18.8-25.91,0-4-2.25-7-6.51-8.19a9.08,9.08,0,0,1-3.87-2.4c-5-5.92-11.58-9.55-18.63-11.84C578.4,11.72,548.71,7.16,518.47,5.14,493.7,3.62,468.81,1.86,443.92.53Q424.6-.41,405.27.26C379.18.93,353,2,326.85,3.26c-15,.67-30.23.53-44.87,2.94-29.43,3.9-58.71,9.28-88.14,14-2.27.26-4.4,1.47-6.4,2.55-3.2,1.88-6.24,4.16-9.31,6.31a15.61,15.61,0,0,0-7,15c.13,1.87-.67,3.89-1.2,5.92-.8,3.07-2.4,6-2.67,9.12-.8,10.33-.93,20.68-1.73,31-.53,6.56.93,10.88,6.53,14.08a35.59,35.59,0,0,0,7.72,3.5c2.93,1,3.86,2.82,3.86,5.78-.28,14.36-.4,28.6-.67,42.84-.13,6-.13,5.92-6.12,5.64-12.65-.54-25.3-1.34-37.81-1-10.53.29-21,.82-31.56-1.6-3.33-.8-7.06-.27-10.51.13-3.6.42-5.2,2.83-5.47,6.45S90.39,173.18,90,176.8c-1.2,11.29-2.93,22.55-3.47,33.85-.66,18-1.2,35.84,1.34,53.71,1.2,8.32,1.33,16.64,2.79,25,2.4,14.38,5.2,28.61,8.25,42.71,2.94,13.57,6.8,27,13.6,39.08,6.38,11.28,13.16,22.43,19.56,33.71,9.33,16.38,19.84,31.69,35.42,42.57a207.64,207.64,0,0,0,20.23,12.47c2.28,1.09,6.26,1.09,8.13-.38,1.6-1.22,1.86-5.25,1.33-7.93-.67-4-2.8-7.92-3.6-11.95-3.73-17.06-6.78-34.11-10.65-51-2.13-9.28-2.26-19.2-8-27.26-8.38-11.82-12-25.66-14.63-39.75-4.53-24.57-5.2-49.69-5.2-74.66,0-3.5,1.6-4,4.65-3.78,7.73.68,15.2,1.35,22.91,1.62,3.73.14,4.8,1.6,5,5.25.68,10.88,1.2,21.75,2.28,32.63,1.6,16.24,3.32,32.63,5.43,48.74A187.8,187.8,0,0,0,200.1,356c4.27,15.46,9,30.89,13.59,46.2,1.59,5.5,2.24,11.28,4.24,16.65,4.8,13.17,10.13,26.19,15.2,39.36l.38,1.07c2,9.93,8,17.72,13.86,25.51,8,10.61,14,12.62,26.36,8.47,8.12-2.69,16.11-5.92,24.11-9.14,20.09-8.06,40.34-16.38,60.43-24.57a23,23,0,0,1,3.2-.8l.8.8c-2.8,5.5-3.07,12.22-9.33,16.11-15.58,9.53-31.14,19.47-46.72,29.14-4.4,2.69-8.8,5.36-12.93,8.47-6.24,4.43-7.71,9.26-3.72,15.83a70,70,0,0,0,10.52,14.39,146.11,146.11,0,0,0,39,27.25c3.45,1.75,5.18,4,4.8,7.92s-.42,7.92-.55,11.82c-.13,8.47-1.2,17.18.13,25.52,1.2,7.52.54,7.64-4.93,10.73-11.71,6.59-20.76,16.13-27.56,27.68C305.29,664,300.36,674,295,684c-5.2,9.55-10.13,19.08-12,30.09-.53,3-2.4,4-5.18,4.16-5.46.27-11,.27-16.51.8-13.6,1.21-19.18,5.91-20,20.42a18.74,18.74,0,0,1-.13,3.89c-.8,4.43,1.6,6.57,5.2,7.66a48.48,48.48,0,0,0,7.31,2c11.85,2,23.83,3.89,35.69,5.76,10.4,1.61,20.78,3.5,31.16,4.84,13.05,1.6,26.09,2.95,39,3.76,14.51.95,29.28,1.2,43.93,1.75,1.33,0,2.67.12,4,.12.13.55.13,1.08.27,1.49a69.86,69.86,0,0,1-9.05,1.87c-4,.28-8.26.13-12.25.13-12.39-.13-24.77.27-37.15-.4-12-.53-23.83-2-35.69-3.09q-11.58-1-23.16-2.14c-4.67-.54-9.33-1.07-14-2-10.78-2.15-21.31-4.56-32-6.72-.93-.13-2.26-.4-2.93.14-11.45,6.58-10.78,16.51-2.8,22.68a41.87,41.87,0,0,0,11.85,6.32c18.51,6.18,37.68,9.41,57.11,10.75,16.25,1.2,32.64,2.15,49,1.6q50.91-1.8,101.57-5.63c22.78-1.61,45.55-4.16,67.65-10.48,8.11-2.41,16.51-4.83,22.5-11.82a14,14,0,0,0,.67-18,14.88,14.88,0,0,1-2.27-7.12c-.26-5.76.8-11.81,0-17.6-1.2-9-4-17.18-14-20.79-19.58-7.27-39.56-12-60.47-13.17-2.65-.14-5.44-.42-8.11-.54-.12-.4-.12-.8-.27-1.2,1-.55,1.87-1.22,2.93-1.76,6.27-3,12.52-5.36,18.51-8.59s7.72-9.54,4.4-15.58c-8.26-15.59-19.31-28.33-36.48-33.84-3.2-1.07-4-2.69-3.47-6,1.73-12.48,3.2-25,4.26-37.47a152.86,152.86,0,0,0-.09-17.39c-.13-3,.8-4.83,3.73-6,5.85-2.4,11.45-5.23,17.31-7.52,14.23-5.23,27.16-12.48,37.27-24.44,3.47-4.16,8-7.25,12-11,3.32-3.08,6.91-6,9.71-9.4,9-11.15,17.83-22.56,26.89-33.71a8.1,8.1,0,0,1,5.32-3.09,159.06,159.06,0,0,0,41-9.27A146,146,0,0,0,651,443.82c16.78-13.55,25.31-32.64,32.89-52.11,4.8-12.47,8.25-25.64,11.72-38.68,4.39-16.5,8-33.16,7.84-50.61-.13-7.12-2.13-12.89-6.78-18.14-4.26-4.69-7.84-9.92-11.84-14.89-1.6-2-2.14-3.91.13-5.92,7.45-7,14.64-14.37,22.36-21a12.17,12.17,0,0,0,4.8-9.52c.53-11.42.66-22.84,1.86-34.12C714.44,188.4,710.84,179.68,705.66,171.2Zm-527.78,14c-8-.27-16-.13-24.09-.13v-.54c-15.84-1.07-31.84-2.14-47.8-3-3.2-.13-4.4-1.47-4.8-4.7-.8-7.11-1.87-10.47,7.58-7.92,4.13,1.21,8.65,1.07,12.93.8,16.9-.53,33.81-1.2,50.71-1.87,2.14-.13,4.14-.28,6.14-.55,2.93-.25,4.38.8,4.13,3.91a69,69,0,0,0,.12,8.86c.28,3.78-1.2,5.25-4.92,5.12Zm54.85,160.88c-.8-.54-2.13-1.07-2.4-1.76a136.13,136.13,0,0,1-3.46-14.62c-1.85-11.68-3.45-23.36-5-35.05-.8-5.37-1.33-10.88-1.73-16.38-.8-8.61-1.34-17.32-2.14-26.08-.8-10.33-1.86-20.53-2.93-30.87,0-.4-.13-.8-.13-1.2-1.45-24.44-3.45-48.88-2.25-73.46.13-.8-.15-1.76.25-2.28a33.3,33.3,0,0,1,3.6-3.91c.67,1.49,1.86,2.84,2,4,.66,17.2.8,34.24,1.6,51.45.53,12.08,1.86,24.16,2.93,36.39.65,7.65,1.33,15.31,1.85,23.09.8,10.87,1.2,21.9,2.13,32.9.8,9.54,2,19.07,3.07,28.75a28.84,28.84,0,0,1,.28,3.09c.65,6.84,1.18,13.69,1.85,20.53a22.08,22.08,0,0,0,1.33,4,7.29,7.29,0,0,1-.85,1.39Zm20.91-227.89c-1.86,1.47-3.6,2.82-6.53,1.74-4.26-1.47-8.78-2-13.31-3-3.2-.67-6.4-1.47-9.6-2.14-.13-.54-.13-1.07-.25-1.47,1.72-.27,3.32-1,5-.8,4.27.13,8.4.53,12.53.93,3.72.54,7.45,1.21,11,2,.76.16,1.43,2.59,1.16,2.72Zm-6-64.59c-15-2.29-29.83-5.78-44.74-8.87a55.3,55.3,0,0,1-6.4-2.28,3.84,3.84,0,0,1-.25-1.2c3.32-1.76,6.52-4,10.23-5.25,18.93-6.3,38.64-8.73,58.33-10.48,21.83-2,43.67-3.89,65.65-5.23,14.64-.8,29.27-1.47,43.93-1.07,41.94,1.07,83.88,2.27,125.83,4.43,18.5.94,36.87,3.89,55.12,6.3,12.25,1.62,24.49,3.76,36.62,6.19,5.6,1.08,10.91,3.36,16.36,5.23.15.68.15,1.2.27,1.76q-3.57,2.05-7.32,3.75a226.14,226.14,0,0,1-58.71,11.95C509.81,61.22,476.92,64.05,444,65c-29.69.8-59.38-.53-89.2-1.2q-23.13-.78-46.2-3-30.6-2.87-61-7.2ZM420.77,385s-12.56-1.39-21.83-1.39c-8.43,0-18.62.65-19,1.39,7.45-14.39-7.35-34.36-17-40.4a91,91,0,0,1-11.79-9.16c-42.64-38.76-14.21-39.74-26.87-77.5,13.38,7.93,16.41,20,19.69,33.61-.77-33.6,19-59.92-10-84.7,23.94,0,46.2,32.32,45.67,55.38-.61,26.26-9.33,44.59,13.09,64.57,5.28-.25,12.7-4.77,15.58-7.12,21.87-17.87,29.42-21.17,28.1-50.81-1-23,16.06-49,39.89-46.61C445,244,468.21,261.74,464,295.09c4.64-13.18,2.76-18.13,16.88-24.67-13.48,36.84,19.68,36-28.48,67.61-7.81,5.13-11,6.67-15.29,9.11l-8.2,6.06C420.84,361.87,415.26,372.17,420.77,385Zm42.44,377.23c4.93-.54,10-1.21,15-1.76,1.47-.12,2.94,0,4.4,0a17.24,17.24,0,0,0,1.34,2.16c-.94.28-1.87.8-2.8,1.08-6.13,1.34-12.25,2.68-18.38,3.88-5.33,1.09-10.65,2.16-16,3a65.32,65.32,0,0,1-11.44.55c-.94,0-1.87-1.49-2.94-2.15.8-1.09,1.6-2.56,2.67-3a42.55,42.55,0,0,1,8.13-1.76C449.76,763.41,456.56,762.89,463.21,762.21Zm75.63-312.09a222.47,222.47,0,0,1-54.72,61.23C473,520,460.81,527.06,449,534.58c-1.2.67-2.94.14-4.54.14.8-1.21,1.34-3,2.4-3.75,22.38-16.26,43-34.25,60.58-55.86,11.05-13.71,22-27.54,29.16-43.93,2.13-4.43,3.87-9,6-13.44.66-1.2,2.93-2.67,3.58-2.4,1.35.67,2.15,2.56,2.4,3.09-.18,12.48-4.05,22.43-9.76,31.69Zm98.67-117.23h0c-1.72,4.7-4.52,9-7.19,13.44C622.6,359,615.32,372,604,381.77c-2.4,2-4.8,4.31-7.33,6.18-1.07.8-2.4,1.34-4.8,2.69,1-7.65,1.75-14.1,2.4-20.54,1.47-12.9,3.07-25.79,4.13-38.68,1.87-20.82,3.33-41.64,4.8-62.58.53-7.66.8-15.44,1.07-23.1.26-5,.66-5.5,5.31-5.65,9.6-.13,19.18-.13,28.76-.25,2.68-.15,4.4.67,4.4,3.88.27,16.66,1.2,33.31,1.06,49.83.12,13.27-1.48,26.71-6.26,39.34Zm52.71-149.74c-15.84-.27-31.67-.4-47.4-.8-10.78-.27-21.69-1.09-32.47-1.62-3.2-.14-4.67-1.47-4.27-4.83s.92-5.52,4.8-5.37c24,.8,47.92,1.6,71.88,1.87,6.93.14,10.13,3.36,12,10.21C693.16,182.75,691.69,183.15,690.22,183.15Z"></path></g></g></svg>