<?xml version="1.0" encoding="UTF-8"?>
<svg version="1.1" fill="#CCC9DC" xmlns="http://www.w3.org/2000/svg" width="320" height="320">
<path d="M0 0 C5.5089253 15.56255327 5.5089253 15.56255327 2.15039062 22.84130859 C-0.18731816 27.0281067 -2.91147289 30.95157676 -5.61865234 34.90478516 C-7.86097835 38.30592368 -9.79679224 41.86517473 -11.75 45.4375 C-17.29258676 55.39138815 -23.49765877 63.93233993 -30.98046875 72.51171875 C-33.59777921 75.51665724 -36.12511943 78.58374065 -38.625 81.6875 C-42.47811177 86.43408696 -46.53424543 90.95767639 -50.671875 95.45703125 C-52.60694262 97.57067054 -54.50208297 99.70659848 -56.375 101.875 C-58.95709694 104.85293727 -61.61568713 107.74780991 -64.30517578 110.62817383 C-73.92625666 120.95101006 -82.24103013 131.65466269 -89.98046875 143.44921875 C-94.13747297 149.76319709 -98.55678534 155.88566478 -103 162 C-95.27277513 176.776623 -86.9259877 191.2922392 -76.40283203 204.25976562 C-73.57858195 207.76329061 -70.8255434 211.32315408 -68.0625 214.875 C-67.4641333 215.64400635 -66.8657666 216.4130127 -66.24926758 217.20532227 C-51.69003554 235.96391415 -38.95533379 254.8590573 -28.94140625 276.4296875 C-28.59867676 277.16654785 -28.25594727 277.9034082 -27.90283203 278.66259766 C-27.22493118 280.12177522 -26.55005577 281.58236267 -25.87841797 283.04443359 C-23.9844805 287.11180406 -21.90436186 290.86488723 -19.4375 294.625 C-17.34548731 297.95294431 -17 298.81524741 -17 302.9375 C-18 306 -18 306 -20 309 C-22.58148665 309.56101122 -24.95540935 309.92398572 -27.5703125 310.171875 C-28.33014435 310.25145447 -29.0899762 310.33103394 -29.87283325 310.4130249 C-37.87455005 311.18922538 -45.84227052 311.30515961 -53.875 311.25 C-54.63215302 311.24822754 -55.38930603 311.24645508 -56.16940308 311.24462891 C-70.3123914 311.20639319 -84.39277809 310.51865532 -98.50123596 309.57196045 C-109.57046721 308.84018457 -120.23919696 309.04454041 -131.28686523 309.85838318 C-154.29337306 311.54703903 -177.236617 312.35801742 -200.29834366 312.42843628 C-202.42785273 312.43745912 -204.55717238 312.4542619 -206.68661499 312.47314453 C-210.70668629 312.50697551 -214.72588452 312.50411283 -218.74609375 312.49609375 C-219.9389801 312.50720688 -221.13186646 312.51832001 -222.36090088 312.5297699 C-229.12609384 312.47404079 -237.85321909 312.14678091 -243 307 C-243.6120699 300.85083262 -242.92565249 294.51333324 -242.375 288.375 C-242.33012451 287.67117188 -242.28524902 286.96734375 -242.23901367 286.2421875 C-241.21880356 276.33355561 -233.04403454 269.78445248 -226.26953125 263.1796875 C-224.56172268 261.4923153 -222.85404458 259.80481104 -221.14648438 258.1171875 C-218.48791146 255.5018454 -215.82687232 252.88907965 -213.1628418 250.27929688 C-196.23692077 233.67285163 -183.28198193 216.79069445 -170.375 196.9375 C-167.86460426 193.09072923 -165.35072565 189.2462441 -162.8359375 185.40234375 C-162.24077332 184.49140961 -161.64560913 183.58047546 -161.03240967 182.64193726 C-156.47177341 175.67726628 -151.80187679 168.800656 -147 162 C-148.78932839 158.94612201 -150.34867824 156.47141976 -153 154.125 C-159.88415072 147.44375056 -165.10130657 139.10958637 -170.61328125 131.30078125 C-175.80733534 123.9508939 -181.21810844 116.90586697 -187 110 C-188.58545702 108.06423742 -190.16880757 106.12674758 -191.75 104.1875 C-192.50023437 103.27613281 -193.25046875 102.36476563 -194.0234375 101.42578125 C-195.50853732 99.60315874 -196.95241407 97.74682359 -198.375 95.875 C-201.70123225 92.23198373 -205.44460472 89.30606892 -209.29296875 86.23046875 C-212.16997132 83.85995148 -214.75190049 81.33928534 -217.34375 78.66796875 C-220.39863385 75.59147016 -223.70085864 72.80911345 -227 70 C-228.25876953 68.90751953 -228.25876953 68.90751953 -229.54296875 67.79296875 C-243.45917501 55.71376328 -243.45917501 55.71376328 -259 46 C-259.68603516 44.05395508 -259.68603516 44.05395508 -260.2890625 41.51953125 C-260.50820313 40.60236328 -260.72734375 39.68519531 -260.953125 38.74023438 C-261.17484375 37.77408203 -261.3965625 36.80792969 -261.625 35.8125 C-261.85445313 34.86568359 -262.08390625 33.91886719 -262.3203125 32.94335938 C-263.42877717 28.2158895 -264.31243049 23.89200374 -264 19 C-245.37133852 12.4018604 -227.60930977 9.44857213 -207.93945312 8.29882812 C-203.703213 8.04978676 -199.47234046 7.74828881 -195.24046326 7.43449402 C-173.79462655 5.85945749 -152.35839686 4.94356453 -130.86328125 4.47265625 C-129.46595953 4.44180844 -129.46595953 4.44180844 -128.04040909 4.41033745 C-118.64347115 4.20485073 -109.24647364 4.01599993 -99.84848213 3.86582565 C-80.54885034 3.55169557 -61.3928452 2.92250555 -42.17506409 1.03259277 C-28.11431227 -0.33082365 -14.11699156 -0.30792096 0 0 Z M-174 41 C-175.83558147 41.21412884 -177.67119144 41.42801367 -179.50683594 41.64160156 C-183.33858064 42.08873586 -187.16956719 42.54176851 -191 43 C-185.68260786 59.92822926 -172.06707701 72.54880144 -159.5546875 84.48730469 C-151.91708172 91.81151023 -145.36559602 99.55339554 -139 108 C-134.53336161 113.69443728 -130.0638666 118.61055899 -123 121 C-120.33802851 120.79871671 -119.29397003 120.28067139 -117.359375 118.43359375 C-116.82828125 117.77488281 -116.2971875 117.11617188 -115.75 116.4375 C-113.28082896 113.47766036 -110.75512466 110.69639138 -108 108 C-105.44130741 105.48044611 -103.01829389 102.91881218 -100.6875 100.1875 C-97.94265985 96.97282234 -95.00550176 94.09402798 -91.9375 91.1875 C-80.31170536 79.87492655 -71.45865122 65.70110746 -63.13476562 51.87109375 C-61.97834061 49.96428624 -60.79793932 48.07441881 -59.609375 46.1875 C-59.23216309 45.58599121 -58.85495117 44.98448242 -58.46630859 44.36474609 C-57.44406986 42.73511002 -56.42127384 41.10582355 -55.3984375 39.4765625 C-53.83610161 37.18376334 -53.83610161 37.18376334 -54 35 C-94.55392569 34.10497296 -133.7225626 36.243878 -174 41 Z " transform="translate(290,4)"/>
<path d="M0 0 C1.00021179 -0.00095673 2.00042358 -0.00191345 3.03094482 -0.00289917 C5.13195865 -0.00357619 7.23297463 -0.00175545 9.33398438 0.00244141 C12.5508287 0.00781911 15.76753484 0.00246859 18.984375 -0.00390625 C21.03125031 -0.00324583 23.07812553 -0.0019654 25.125 0 C26.56567841 -0.00303635 26.56567841 -0.00303635 28.03546143 -0.00613403 C28.93029236 -0.00298187 29.82512329 0.00017029 30.74707031 0.00341797 C31.53124329 0.00421356 32.31541626 0.00500916 33.12335205 0.00582886 C35.30632331 0.1333645 37.1907358 0.56628568 39.296875 1.1328125 C49.0534008 2.126457 58.87465848 2.39102013 68.671875 2.6953125 C70.0052164 2.73868508 71.33854981 2.78230391 72.671875 2.82617188 C75.88013888 2.93078918 79.08845957 3.03297088 82.296875 3.1328125 C82.296875 3.4628125 82.296875 3.7928125 82.296875 4.1328125 C62.43831567 4.36206503 42.70616088 4.16957736 22.88549805 2.84423828 C22.18910217 2.7983255 21.4927063 2.75241272 20.77520752 2.70510864 C18.91222612 2.58038845 17.04971455 2.44870302 15.18725586 2.31640625 C6.3970815 1.90158284 -2.29989384 2.1999638 -11.07421875 2.7890625 C-12.63959129 2.8889447 -12.63959129 2.8889447 -14.23658752 2.99084473 C-18.64708786 3.27229367 -23.05705363 3.56171431 -27.46704102 3.85107422 C-30.71090618 4.06270889 -33.95504312 4.26975 -37.19921875 4.4765625 C-38.66227699 4.57499451 -38.66227699 4.57499451 -40.15489197 4.67541504 C-47.01192848 5.11141602 -53.83316399 5.20419019 -60.703125 5.1328125 C-60.703125 4.8028125 -60.703125 4.4728125 -60.703125 4.1328125 C-59.65511719 4.04193359 -59.65511719 4.04193359 -58.5859375 3.94921875 C-57.67585938 3.86542969 -56.76578125 3.78164063 -55.828125 3.6953125 C-54.92320313 3.61410156 -54.01828125 3.53289062 -53.0859375 3.44921875 C-50.69201639 3.26291965 -50.69201639 3.26291965 -48.703125 2.1328125 C-46.54698152 1.98968441 -44.38675784 1.90630259 -42.2265625 1.8515625 C-40.91558594 1.81417969 -39.60460937 1.77679688 -38.25390625 1.73828125 C-36.86199104 1.70265816 -35.4700637 1.66750559 -34.078125 1.6328125 C-31.37742964 1.56444855 -28.67705756 1.49061612 -25.9765625 1.4140625 C-24.77435059 1.38376953 -23.57213867 1.35347656 -22.33349609 1.32226562 C-18.66784145 1.18041617 -18.66784145 1.18041617 -14.91748047 0.62353516 C-9.94784294 -0.03621017 -5.00635266 -0.010641 0 0 Z " transform="translate(170.703125,310.8671875)"/>
<path d="M0 0 C0 0.66 0 1.32 0 2 C-9.9421379 2.74770724 -19.83277458 3.18476161 -29.8046875 3.31640625 C-31.18067853 3.33711396 -32.55666521 3.35811232 -33.93264771 3.37937927 C-36.79816859 3.42286858 -39.66370964 3.46381823 -42.52929688 3.50268555 C-46.12013002 3.55145679 -49.71086602 3.60519603 -53.30160141 3.66065407 C-70.53481157 3.92550117 -87.76442646 4.0676342 -105 4 C-105 3.67 -105 3.34 -105 3 C-70.02381142 0.71046769 -35.05093264 -0.27652757 0 0 Z " transform="translate(208,8)"/>
<path d="M0 0 C15.67520851 -0.22864972 31.33752193 0.44526265 47 1 C47 1.33 47 1.66 47 2 C45.36925537 2.029729 45.36925537 2.029729 43.70556641 2.06005859 C39.57890902 2.13751644 35.45254206 2.22598536 31.32617188 2.31738281 C29.55767651 2.3551056 27.78911903 2.39004398 26.02050781 2.421875 C15.93172418 2.60551611 5.98095238 3.0292599 -4.03378296 4.32040405 C-8.41224465 4.87890206 -12.59872072 5.08838487 -17 5 C-13.36280395 2.57520264 -11.14296518 2.61337423 -6.8125 2.375 C-5.54019531 2.30023438 -4.26789063 2.22546875 -2.95703125 2.1484375 C-1.49330078 2.07496094 -1.49330078 2.07496094 0 2 C0 1.34 0 0.68 0 0 Z " transform="translate(169,37)"/>
<path d="M0 0 C1.11987701 3.73292336 0.76115702 5.47768597 -1 9 C-1.66 9.66 -2.32 10.32 -3 11 C-3.433125 11.99 -3.433125 11.99 -3.875 13 C-5.2363704 15.42021404 -6.46546555 15.98618622 -9 17 C-8.7525 17.7425 -8.505 18.485 -8.25 19.25 C-8.12625 20.61125 -8.12625 20.61125 -8 22 C-9.9375 24.3125 -9.9375 24.3125 -12 26 C-12.66 25.34 -13.32 24.68 -14 24 C-14.99 23.67 -15.98 23.34 -17 23 C-16.27554688 22.09378906 -15.55109375 21.18757813 -14.8046875 20.25390625 C-9.57731717 13.67972252 -4.46808491 7.12631264 0 0 Z " transform="translate(111,214)"/>
<path d="M0 0 C1.65322266 0.01740234 1.65322266 0.01740234 3.33984375 0.03515625 C4.99693359 0.04869141 4.99693359 0.04869141 6.6875 0.0625 C7.54214844 0.07410156 8.39679688 0.08570313 9.27734375 0.09765625 C9.27734375 0.42765625 9.27734375 0.75765625 9.27734375 1.09765625 C-6.25519994 3.81657451 -21.91788073 6.35675093 -37.72265625 6.09765625 C-30.15951665 1.05556319 -18.09634534 1.81849379 -9.14599609 1.43920898 C-5.70334622 1.2826521 -3.18261348 0.114154 0 0 Z " transform="translate(154.72265625,38.90234375)"/>
<path d="M0 0 C0.33 0.99 0.66 1.98 1 3 C-0.1796875 4.7265625 -0.1796875 4.7265625 -1.875 6.625 C-4.94309942 10.45126718 -5.71710546 13.26754927 -5.89453125 18.1171875 C-6 20 -6 20 -7 22 C-7.27755815 25.63469004 -7.44735896 29.26911868 -7.62109375 32.91015625 C-7.74613281 33.92980469 -7.87117188 34.94945312 -8 36 C-8.99 36.495 -8.99 36.495 -10 37 C-10.81141192 11.44052458 -10.81141192 11.44052458 -3.4375 3.34765625 C-2.963125 2.90292969 -2.48875 2.45820313 -2 2 C-1.34 1.34 -0.68 0.68 0 0 Z " transform="translate(57,274)"/>
<path d="M0 0 C0 0.66 0 1.32 0 2 C2.97 2 5.94 2 9 2 C9 2.33 9 2.66 9 3 C0.585 3.495 0.585 3.495 -8 4 C-6.845 5.918125 -5.69 7.83625 -4.5 9.8125 C-1 15.625 -1 15.625 -1 19 C-5.875 14.25 -5.875 14.25 -7 12 C-7.99 11.67 -8.98 11.34 -10 11 C-9.91243692 5.65865242 -9.91243692 5.65865242 -9 3 C-5.91352502 1.20423274 -3.60923407 0 0 0 Z " transform="translate(107,43)"/>
<path d="M0 0 C-1.98 0.33 -3.96 0.66 -6 1 C-6.23551722 7.14961631 -5.79179173 12.65789319 -4.4453125 18.66015625 C-3.83986178 21.841428 -3.85964759 24.77189457 -4 28 C-6.27611875 24.12444646 -7.12005537 19.95742796 -8.125 15.625 C-8.30675781 14.8825 -8.48851563 14.14 -8.67578125 13.375 C-9.66554908 9.16290531 -10.20759309 5.35945498 -10 1 C-3.71428571 -1.42857143 -3.71428571 -1.42857143 0 0 Z " transform="translate(36,22)"/>
<path d="M0 0 C1.65 0 3.3 0 5 0 C5 0.66 5 1.32 5 2 C5.67546875 1.98839844 6.3509375 1.97679687 7.046875 1.96484375 C8.38492188 1.95130859 8.38492188 1.95130859 9.75 1.9375 C11.07257812 1.92009766 11.07257812 1.92009766 12.421875 1.90234375 C15 2 15 2 16.91796875 2.48632812 C20.30693023 3.32244151 23.77626145 3.37531091 27.25 3.5625 C27.99507812 3.60568359 28.74015625 3.64886719 29.5078125 3.69335938 C31.338349 3.79896725 33.16915176 3.89994201 35 4 C35 4.33 35 4.66 35 5 C31.04192285 5.11761144 27.08430379 5.18771882 23.125 5.25 C21.46210937 5.30027344 21.46210937 5.30027344 19.765625 5.3515625 C12.3162899 5.43920174 6.67267892 4.34860888 0 1 C0 0.67 0 0.34 0 0 Z " transform="translate(48,311)"/>
<path d="M0 0 C3.32859708 3.04875927 5.50435293 6.21910958 7.75 10.125 C8.67039063 11.70667969 8.67039063 11.70667969 9.609375 13.3203125 C11 16 11 16 11 18 C9.35 17.67 7.7 17.34 6 17 C6 15.35 6 13.7 6 12 C5.34 12 4.68 12 4 12 C3.71125 11.236875 3.4225 10.47375 3.125 9.6875 C2.03730987 6.84970692 2.03730987 6.84970692 0 4 C0 2.68 0 1.36 0 0 Z " transform="translate(185,166)"/>
<path d="M0 0 C0.87840996 3.09720845 0.99435406 4.90645403 0 8 C-1.32 8.33 -2.64 8.66 -4 9 C-3.9071875 10.175625 -3.9071875 10.175625 -3.8125 11.375 C-3.874375 12.24125 -3.93625 13.1075 -4 14 C-7 16 -7 16 -10 16 C-8.31029911 12.33601701 -6.12699789 9.09167428 -3.875 5.75 C-3.15054688 4.67234375 -2.42609375 3.5946875 -1.6796875 2.484375 C-0.84824219 1.25460938 -0.84824219 1.25460938 0 0 Z " transform="translate(223,61)"/>
<path d="M0 0 C0.33 0.66 0.66 1.32 1 2 C-1.54506082 7.59913379 -3.31971398 9.4496675 -9 12 C-11.81356892 14.56197123 -11.81356892 14.56197123 -14 17 C-14.66 16.67 -15.32 16.34 -16 16 C-10.72 10.72 -5.44 5.44 0 0 Z " transform="translate(81,250)"/>
<path d="M0 0 C0.97918775 3.07556958 1.1498998 3.68592423 -0.3125 6.75 C-0.869375 7.4925 -1.42625 8.235 -2 9 C-2.66 9 -3.32 9 -4 9 C-4 10.32 -4 11.64 -4 13 C-4.99 13.495 -4.99 13.495 -6 14 C-6.33 14.99 -6.66 15.98 -7 17 C-9.0625 17.6875 -9.0625 17.6875 -11 18 C-9.48103632 13.56829827 -7.07360191 9.96975924 -4.375 6.1875 C-3.95476562 5.59001953 -3.53453125 4.99253906 -3.1015625 4.37695312 C-2.07220272 2.91479435 -1.0367177 1.45695101 0 0 Z " transform="translate(123,196)"/>
<path d="M0 0 C1.32 0 2.64 0 4 0 C6.88429434 6.7986938 8.12923823 13.6267386 7 21 C5.4765625 22.8515625 5.4765625 22.8515625 4 24 C4.56606279 19.30976546 5.18537505 14.65499974 6 10 C5.34 10 4.68 10 4 10 C3.87882812 9.36191406 3.75765625 8.72382813 3.6328125 8.06640625 C3.46523438 7.24011719 3.29765625 6.41382813 3.125 5.5625 C2.96257812 4.73878906 2.80015625 3.91507812 2.6328125 3.06640625 C2.42398437 2.38449219 2.21515625 1.70257812 2 1 C1.34 0.67 0.68 0.34 0 0 Z " transform="translate(286,4)"/>
<path d="M0 0 C0.66 0.99 1.32 1.98 2 3 C1.06725891 4.12894876 0.12859878 5.25300876 -0.8125 6.375 C-1.33457031 7.00148438 -1.85664063 7.62796875 -2.39453125 8.2734375 C-4 10 -4 10 -7 12 C-7.99 11.67 -8.98 11.34 -10 11 C-8.89718873 9.72799029 -7.79269231 8.45744147 -6.6875 7.1875 C-6.07261719 6.47980469 -5.45773438 5.77210937 -4.82421875 5.04296875 C-3.26665665 3.29863261 -1.67341125 1.63221959 0 0 Z " transform="translate(195,97)"/>
<path d="M0 0 C2.62626526 3.3173877 4.73758255 6.81501422 6.8125 10.5 C7.45832031 11.6240625 8.10414063 12.748125 8.76953125 13.90625 C10 17 10 17 9.19921875 19.40625 C8.80347656 19.9321875 8.40773438 20.458125 8 21 C8 19.35 8 17.7 8 16 C7.01 15.67 6.02 15.34 5 15 C3.61328125 12.890625 3.61328125 12.890625 2.3125 10.25 C1.87550781 9.38890625 1.43851562 8.5278125 0.98828125 7.640625 C-0.04127438 4.88971748 -0.19360389 2.90929095 0 0 Z " transform="translate(259,279)"/>
<path d="M0 0 C1.65 0.33 3.3 0.66 5 1 C1.43679155 6.09210286 -2.04741286 10.22660027 -7 14 C-6.67 12.02 -6.34 10.04 -6 8 C-5.01 8 -4.02 8 -3 8 C-2.690625 7.05125 -2.38125 6.1025 -2.0625 5.125 C-1 2 -1 2 0 0 Z " transform="translate(227,106)"/>
<path d="M0 0 C0.71147691 2.47970629 1.04108997 3.80482264 0.5 6.375 C-1.62527732 10.09423532 -4.64997637 12.39343081 -8 15 C-8 10.91518119 -6.29880669 9.15295347 -4 5.8125 C-3.2575 4.72582031 -2.515 3.63914063 -1.75 2.51953125 C-1.1725 1.68808594 -0.595 0.85664063 0 0 Z " transform="translate(139,172)"/>
<path d="M0 0 C0.9075 0.12375 1.815 0.2475 2.75 0.375 C1.81862408 1.67108947 0.8796434 2.96171632 -0.0625 4.25 C-0.58457031 4.96929687 -1.10664063 5.68859375 -1.64453125 6.4296875 C-3.25 8.375 -3.25 8.375 -6.25 10.375 C-7 8.75 -7 8.75 -7.25 6.375 C-4.43089272 0.51125685 -4.43089272 0.51125685 0 0 Z " transform="translate(256.25,75.625)"/>
<path d="M0 0 C1.32 1.32 2.64 2.64 4 4 C1.69 7.63 -0.62 11.26 -3 15 C-3.33 13.68 -3.66 12.36 -4 11 C-3.34 10.01 -2.68 9.02 -2 8 C-1.63858045 5.67085177 -1.30300475 3.33746522 -1 1 C-0.67 0.67 -0.34 0.34 0 0 Z " transform="translate(205,130)"/>
<path d="M0 0 C1 2 1 2 0.25 4.5625 C-1 7 -1 7 -4 8 C-4.99 9.485 -4.99 9.485 -6 11 C-9.125 11.6875 -9.125 11.6875 -12 12 C-12.33 11.01 -12.66 10.02 -13 9 C-12.25234375 9.08121094 -11.5046875 9.16242188 -10.734375 9.24609375 C-7.91085525 9.26000226 -7.91085525 9.26000226 -6.015625 7.28515625 C-5.43296875 6.55167969 -4.8503125 5.81820312 -4.25 5.0625 C-3.36054688 3.96615234 -3.36054688 3.96615234 -2.453125 2.84765625 C-1.97359375 2.23792969 -1.4940625 1.62820312 -1 1 C-0.67 0.67 -0.34 0.34 0 0 Z " transform="translate(178,115)"/>
<path d="M0 0 C1.98 0 3.96 0 6 0 C3.89851796 3.98175544 1.63094642 6.35039045 -2 9 C-2.33 7.68 -2.66 6.36 -3 5 C-2.34 5 -1.68 5 -1 5 C-0.67 3.35 -0.34 1.7 0 0 Z " transform="translate(212,122)"/>
<path d="M0 0 C1.32 0.33 2.64 0.66 4 1 C2.69088122 2.50295185 1.37761608 4.00229311 0.0625 5.5 C-0.66839844 6.3353125 -1.39929688 7.170625 -2.15234375 8.03125 C-2.76207031 8.6809375 -3.37179688 9.330625 -4 10 C-4.33 10 -4.66 10 -5 10 C-5.20086443 6.28400809 -5.1519437 5.22791555 -3 2 C-2.01 2 -1.02 2 0 2 C0 1.34 0 0.68 0 0 Z " transform="translate(237,97)"/>
<path d="M0 0 C1 3 1 3 -0.07421875 5.2265625 C-0.87279297 6.41378906 -0.87279297 6.41378906 -1.6875 7.625 C-2.20699219 8.42164062 -2.72648438 9.21828125 -3.26171875 10.0390625 C-5.17418516 12.19649652 -6.18771639 12.64463519 -9 13 C-6.38888348 8.16459904 -3.62542917 4.12896099 0 0 Z " transform="translate(212,77)"/>
<path d="M0 0 C0.99 0 1.98 0 3 0 C2.375 2.4375 2.375 2.4375 1 5 C-3.5313282 6.40255397 -8.29189549 6.08117422 -13 6 C-13 5.67 -13 5.34 -13 5 C-9.04 4.34 -5.08 3.68 -1 3 C-0.67 2.01 -0.34 1.02 0 0 Z " transform="translate(269,308)"/>
<path d="M0 0 C7.48291572 6.15034169 7.48291572 6.15034169 10 10 C8.02 9.34 6.04 8.68 4 8 C4 7.34 4 6.68 4 6 C2.35 5.67 0.7 5.34 -1 5 C-0.67 3.35 -0.34 1.7 0 0 Z " transform="translate(121,79)"/>
<path d="M0 0 C2.93200474 2.85276137 5.64315404 5.65079784 8 9 C7 11 7 11 5 12 C4.54625 11.236875 4.0925 10.47375 3.625 9.6875 C2.46175508 7.76367186 1.2470585 5.87058776 0 4 C0 2.68 0 1.36 0 0 Z " transform="translate(204,197)"/>
<path d="M0 0 C2.97 0.495 2.97 0.495 6 1 C5.875 4.3125 5.875 4.3125 5 8 C1.9375 9.9375 1.9375 9.9375 -1 11 C0.875 6.25 0.875 6.25 2 4 C1.10836423 1.88316159 1.10836423 1.88316159 0 0 Z " transform="translate(141,161)"/>
<path d="M0 0 C0.99 0.33 1.98 0.66 3 1 C2.39305845 4.15330554 1.3583335 6.18888867 -0.5625 8.75 C-1.24505859 9.67039063 -1.24505859 9.67039063 -1.94140625 10.609375 C-2.29074219 11.06828125 -2.64007813 11.5271875 -3 12 C-3.33 10.68 -3.66 9.36 -4 8 C-3.01 7.67 -2.02 7.34 -1 7 C-1.33 5.35 -1.66 3.7 -2 2 C-1.34 2 -0.68 2 0 2 C0 1.34 0 0.68 0 0 Z " transform="translate(197,144)"/>
<path d="M0 0 C0 0.66 0 1.32 0 2 C2.97 2 5.94 2 9 2 C9 2.33 9 2.66 9 3 C0.585 3.495 0.585 3.495 -8 4 C-8.33 4.66 -8.66 5.32 -9 6 C-8.875 4.125 -8.875 4.125 -8 2 C-5.25822503 0.83328724 -2.99432393 0 0 0 Z " transform="translate(107,43)"/>
<path d="M0 0 C0.92538169 3.70152678 1.08174162 4.63458162 0 8 C-1.32 8.33 -2.64 8.66 -4 9 C-4 8.34 -4 7.68 -4 7 C-4.66 6.67 -5.32 6.34 -6 6 C-4.02 4.02 -2.04 2.04 0 0 Z " transform="translate(64,267)"/>
<path d="M0 0 C3.55007718 3.9050849 4.81819916 6.97734643 6 12 C5.01 12 4.02 12 3 12 C2.49166409 10.75336669 1.99368855 9.50250613 1.5 8.25 C1.2215625 7.55390625 0.943125 6.8578125 0.65625 6.140625 C0 4 0 4 0 0 Z " transform="translate(250,260)"/>
<path d="M0 0 C3.39417765 3.12621626 5.6062718 5.56541027 7 10 C4.625 9.375 4.625 9.375 2 8 C0.78849991 5.23085693 0 3.03028259 0 0 Z " transform="translate(233,235)"/>
<path d="M0 0 C0.66 0.33 1.32 0.66 2 1 C4.09821215 0.60061233 4.09821215 0.60061233 6 0 C4.55746343 3.36591866 2.66735273 5.51047079 0 8 C-1.125 5.6875 -1.125 5.6875 -2 3 C-1.34 2.01 -0.68 1.02 0 0 Z " transform="translate(259,68)"/>
<path d="M0 0 C0.99 0.66 1.98 1.32 3 2 C2.21625 2.4125 1.4325 2.825 0.625 3.25 C-2.05891656 5.0392777 -2.88098949 6.04988139 -4 9 C-5.32 8.67 -6.64 8.34 -8 8 C-5.36 5.36 -2.72 2.72 0 0 Z " transform="translate(90,241)"/>
<path d="M0 0 C1.0326802 2.78823655 1.04509293 3.8677274 0.0625 6.75 C-0.288125 7.4925 -0.63875 8.235 -1 9 C-1.99 9 -2.98 9 -4 9 C-4 5.00095031 -2.27413033 3.19799578 0 0 Z " transform="translate(111,214)"/>
<path d="M0 0 C2.475 0.495 2.475 0.495 5 1 C3.70700306 3.88437779 2.34058637 5.87219421 0 8 C0 5.36 0 2.72 0 0 Z " transform="translate(188,155)"/>
<path d="M0 0 C1.32 0 2.64 0 4 0 C2.43358249 4.30764815 0.31663844 8.06171464 -2 12 C-2.33 12 -2.66 12 -3 12 C-3 10.35 -3 8.7 -3 7 C-2.34 7 -1.68 7 -1 7 C-1 6.01 -1 5.02 -1 4 C-0.34 4 0.32 4 1 4 C0.67 2.68 0.34 1.36 0 0 Z " transform="translate(284,31)"/>
<path d="M0 0 C3 2 3 2 3.6875 5.125 C3.790625 6.07375 3.89375 7.0225 4 8 C1.03 7.505 1.03 7.505 -2 7 C-1.34 6.67 -0.68 6.34 0 6 C0 4.02 0 2.04 0 0 Z " transform="translate(230,231)"/>
<path d="M0 0 C1 2 1 2 0.125 5 C-1 8 -1 8 -2 10 C-2.99 10 -3.98 10 -5 10 C-3.66511872 6.40608886 -2.03977277 3.24509304 0 0 Z " transform="translate(229,51)"/>
<path d="M0 0 C2.375 0.625 2.375 0.625 5 2 C6.375 5 6.375 5 7 8 C6.67 8.66 6.34 9.32 6 10 C4.99421411 8.71283353 3.99553202 7.42011342 3 6.125 C2.443125 5.40570313 1.88625 4.68640625 1.3125 3.9453125 C0 2 0 2 0 0 Z " transform="translate(117,130)"/>
<path d="M0 0 C3.3 1.98 6.6 3.96 10 6 C9.01 6.66 8.02 7.32 7 8 C4.0625 6.25 4.0625 6.25 1 4 C0.67 2.68 0.34 1.36 0 0 Z " transform="translate(155,117)"/>
<path d="M0 0 C1.32 0.33 2.64 0.66 4 1 C1.525 5.455 1.525 5.455 -1 10 C-1.33 10 -1.66 10 -2 10 C-2 8.35 -2 6.7 -2 5 C-1.34 5 -0.68 5 0 5 C0 3.35 0 1.7 0 0 Z " transform="translate(277,43)"/>
<path d="M0 0 C1.65 0.33 3.3 0.66 5 1 C3.35 2.98 1.7 4.96 0 7 C-0.66 6.67 -1.32 6.34 -2 6 C-1.34 4.02 -0.68 2.04 0 0 Z " transform="translate(227,106)"/>
<path d="M0 0 C1.09570312 0.19464844 2.19140625 0.38929688 3.3203125 0.58984375 C4.16335937 0.74582031 5.00640625 0.90179688 5.875 1.0625 C5.875 1.3925 5.875 1.7225 5.875 2.0625 C1.255 2.0625 -3.365 2.0625 -8.125 2.0625 C-8.125 1.4025 -8.125 0.7425 -8.125 0.0625 C-5.2144446 -1.3927777 -3.16650948 -0.57266661 0 0 Z " transform="translate(114.125,312.9375)"/>
<path d="M0 0 C0.66 0.66 1.32 1.32 2 2 C0.35 3.65 -1.3 5.3 -3 7 C-3.33 5.68 -3.66 4.36 -4 3 C-2.68 2.01 -1.36 1.02 0 0 Z " transform="translate(268,61)"/>
<path d="M0 0 C3.08089673 2.77280706 4.68775452 5.06326356 6 9 C5.01 9 4.02 9 3 9 C3 7.68 3 6.36 3 5 C2.01 4.67 1.02 4.34 0 4 C0 2.68 0 1.36 0 0 Z " transform="translate(244,251)"/>
<path d="M0 0 C1 2 1 2 0.3125 4.5 C-1.15567038 7.29651501 -2.09303901 7.93411431 -5 9 C-3.7508258 5.54074837 -2.32472205 2.85306797 0 0 Z " transform="translate(129,187)"/>
<path d="M0 0 C0.66 0.33 1.32 0.66 2 1 C2 2.65 2 4.3 2 6 C2.66 6.33 3.32 6.66 4 7 C3.01 7 2.02 7 1 7 C-0.6875 4.5 -0.6875 4.5 -2 2 C-1.34 2 -0.68 2 0 2 C0 1.34 0 0.68 0 0 Z " transform="translate(108,114)"/>
<path d="M0 0 C2.97 0.495 2.97 0.495 6 1 C6 1.99 6 2.98 6 4 C6.66 4.33 7.32 4.66 8 5 C7.01 5.495 7.01 5.495 6 6 C3.97945196 4.35830472 1.97956942 2.69088222 0 1 C0 0.67 0 0.34 0 0 Z " transform="translate(83,91)"/>
<path d="M0 0 C0.33 1.32 0.66 2.64 1 4 C-2 6 -2 6 -5 6 C-4.34 4.68 -3.68 3.36 -3 2 C-2.01 2 -1.02 2 0 2 C0 1.34 0 0.68 0 0 Z " transform="translate(218,71)"/>
<path d="M0 0 C0.66 0 1.32 0 2 0 C0.90931332 3.77545388 0.0916909 6.47043472 -3 9 C-2.5020163 5.26512223 -2.12508244 3.18762365 0 0 Z " transform="translate(273,53)"/>
<path d="M0 0 C0.33 0 0.66 0 1 0 C1.36923077 7.50769231 1.36923077 7.50769231 -0.5 10 C-0.995 10.33 -1.49 10.66 -2 11 C-1.125 3.375 -1.125 3.375 0 0 Z " transform="translate(292,17)"/>
<path d="M0 0 C3.7952131 1.49097658 5.61042731 3.75700849 8 7 C7.01 7 6.02 7 5 7 C0 1.53488372 0 1.53488372 0 0 Z " transform="translate(90,97)"/>
<path d="M0 0 C0 3.10551666 -0.5393715 4.35261084 -2 7 C-3.32 6.67 -4.64 6.34 -6 6 C-4.02 4.02 -2.04 2.04 0 0 Z " transform="translate(202,90)"/>
<path d="M0 0 C2.31 0.33 4.62 0.66 7 1 C6.67 2.65 6.34 4.3 6 6 C3.97945196 4.35830472 1.97956942 2.69088222 0 1 C0 0.67 0 0.34 0 0 Z " transform="translate(73,82)"/>
<path d="M0 0 C2.97 0.495 2.97 0.495 6 1 C6.33 2.65 6.66 4.3 7 6 C3.63279613 4.60667426 2.0140476 3.0210714 0 0 Z " transform="translate(64,74)"/>
<path d="M0 0 C2.3125 0.1875 2.3125 0.1875 5 1 C6.8125 3.5625 6.8125 3.5625 8 6 C4.63408134 4.55746343 2.48952921 2.66735273 0 0 Z " transform="translate(39,54)"/>
<path d="M0 0 C-2 2 -2 2 -5.125 2.125 C-6.548125 2.063125 -6.548125 2.063125 -8 2 C-8 1.34 -8 0.68 -8 0 C-4.71023192 -1.09658936 -3.28696233 -0.79953138 0 0 Z " transform="translate(47,19)"/>
<path d="M0 0 C2.5 1.375 2.5 1.375 5 3 C5 3.66 5 4.32 5 5 C5.66 5.66 6.32 6.32 7 7 C6.01 7 5.02 7 4 7 C0 2.65714286 0 2.65714286 0 0 Z " transform="translate(126,143)"/>
<path d="M0 0 C0.33 0.66 0.66 1.32 1 2 C0.0625 4.625 0.0625 4.625 -1 7 C-1.99 7 -2.98 7 -4 7 C-3.43628586 3.73045798 -2.50037734 2.17424117 0 0 Z " transform="translate(178,115)"/>
<path d="M0 0 C0.33 1.32 0.66 2.64 1 4 C-0.98 4.99 -2.96 5.98 -5 7 C-3.70700306 4.11562221 -2.34058637 2.12780579 0 0 Z " transform="translate(191,101)"/>
<path d="M0 0 C2.99324263 1.0975223 3.84610901 1.67682892 5.25 4.625 C5.4975 5.40875 5.745 6.1925 6 7 C1.2 4.53846154 1.2 4.53846154 0.1875 1.8125 C0.125625 1.214375 0.06375 0.61625 0 0 Z " transform="translate(101,55)"/>
</svg>
