<svg xmlns="http://www.w3.org/2000/svg" fill="#CCC9DC" viewBox="0 0 800 800" class="icon"><title>seapost</title><g id="Layer_115" data-name="Layer 115"><path d="M497.46,200.86c65.91,20,31.8,14.34,39.78,38.74,10.46,9.9,34.53,12.8,33.58,18.39,1.13,13,20.38,39.16,25.86,17.24,11.47,55.21-5.49,114.57-11.23,170.27-3-60-22-76.67-60.79-84.56-6.45.14-15.7,14.19-20.83,3.06-54.66-131.25-27.7,3.6-80.05-80.06-8.57-15.58-22.5-38.53-34.87-57.67-8.93,14.71-13.27,83-31.7,80.42-103.92-43.13-50.35-22.88-73.65,40.3-47.25-5.38-35.43,7.41-39.5-2.08,2.24-41.42-4.33-56.11-18.28-59.69-28.11-5.66-30.65,2.47-29.49-30.77-.84-17.29-9.23-29.17,15-30.9,54.36-11.91,103.92-26.78,148.19-61.5,0,0-.06,0-.06,0,25.25-22.11,58.75,5,113.56,28.87C473,234.15,481.16,187.45,497.46,200.86Zm10.17,25.36c-3.83,1.26-2.24,9.85,3.67,8.37C514.6,232.68,511.09,227.13,507.63,226.22Z"></path><path d="M475.09,705.18C418.34,737.56,351.21,717.76,296,690.31c-33.41,12.3-95.81,28.38-102.35-16.24,44.24.13,75.89,18.7,107.68-19.7,57.72,41.82,128.57,45.06,182.87,10.65,10.83-12.52,12.67-3.93,23.09.88,12,6.78,23.82,9.29,38.07,12.71,4.68,3.12-1.76,16,4.53,19.93,14.18-26.7,0-17.28,31.06-21.55,44.06-14.3,28.44-25.29,55.95-2v0c1.22,3,5,5.49,8.37,7.33a6.11,6.11,0,0,0,4.7,3.66l-.08-.08c2.79,8.55-4.62,7.18-10.15,11.27-16.16,6.45-35.31,9.64-52.48,15.38-93.12,18.57-86.12-28.88-111.89-7.31Z"></path><path d="M280.76,441.7c.7,55.13-2,158.3,6.78,154.8,16.83,3.66,33.63,6.36,51.55,5.53,11.77,3.94,22.55,9.07,35.33,10,95.22,8.77,93.08,21.4,54.44,17.91-48.2-.19-93.56-2.8-141.85-3.51-12.34-2.72-6.23-15.77-22.91-7.9-8.69,2.95-27.37,19.19-25.44.11,28.08-50,8-71.17,18.49-72.83,14.13,21,.91-23.29,9.2-30.68-8.74-37.88-25.18-26-8.46-56.23-13.4-22.45-10.69-22-11-41.59-1.78-71.83-.59-71,30.84-48.49C280.58,392.46,279.09,414.92,280.76,441.7Zm-22-14.22c.08-4.65-7.1-6.26-7.72-.44C251.32,432.56,258.36,434.14,258.75,427.48Z"></path><path d="M561.68,493.18c5.34,92.54-9.47,93.2,26.69,129.78,30.61,24.42-100.16,1.52-98.78-6.08,7.94-5.77,22.65-6,31.81-12.16,8.58-21.66,8.76-46,5.45-69.2-3.87-14.09,9-14.76,7.38-23.5-9.17-12.56-5.92-26-6.45-40.9-.93-30.84-2.64-59.24-2.29-90.28,2.6-3.66,4.64-9.7,10.13-4.78,8.21,8.56,21.77,13.41,24.93,26.12C561.63,431.94,561.72,464.5,561.68,493.18Z"></path><path d="M320.44,491.22A116.88,116.88,0,0,0,322,536.34c-12.62,17.11-21.58-53.76-18.59-59.56,1.49-85.58,22.7-76.88,22-51.53,5.53,7.63,7.62-12,10.45-15.43,7.17-2.27,30.6-5.07,27.57,6.07,9.19,86.9-2,81-4.34,117-.51,3.17-1.29,5.82-4.06,6.47-33.59,9.53-30.2-26.7-33.45-48.2Z"></path><path d="M389.76,760c68.88,2.39,72.74-31.6,83.71-23.56,59.91,48.36,137.26,4.89,101.88,38.88-12.29,5.9-22.66,18-35.45,24.54-27,1.87-50.73-12.23-74.82-23.66-66.77,20.13-110.89,7.1-105.75-.76C373.56,762.83,372.05,758.64,389.76,760Z"></path><path d="M425.26,460.88c-4.24,36.05,4.65,35.44-41.39,30.18-12.41-14.31-18.4-82.29-12-82.06,17.59-.59,36.18-5.18,40,8.17,2.75,4.44,6.94,20.67,9.84,11.88,1.83-12.66-4.6-22.69,12.33-20.57,22.08-6.5,22.49,76.1,20.9,81.79C419.55,500.25,432.93,479.23,425.26,460.88Z"></path><path d="M405.58,502.18c111.93,5.41,88.91,7.49,96.48,22.5,2,8.31,6.09,21.7-4.24,22.17-13.13-.13-27.51,3.21-41.13,1.45C438.84,538,432.53,519.82,415.62,539c-10.8,16-39,11.19-43.36,6.23-.85-49,14.78-43.28,33.31-43.42Z"></path><path d="M450.77,599.46c-98.89-1.66-80-4.74-79.47-35.44,2.26-3.12,3-2.25,7.75-2.52,54.82,4.51,33.09-18.74,53.6-17.74,16.13,23.44,41.55,13.74,67.58,16,4.56.83,3.39,5.63,4.57,12.52C511,613.39,474.4,595.87,450.77,599.46Zm-20.12-16.18c10.61-2.26,7.86-28.35-6.51-21.57C414.92,566.82,420.6,583.74,430.65,583.28Z"></path><path d="M358.29,754.6c-60.91-34.13-20.17-22.87-66.87,5.68-2.13,1.44-5.29,3.33-1.21,5.19C303.5,774.16,369.86,780.17,358.29,754.6Z"></path><path d="M151.84,252.58c26.44-1.87,37.43-20.72,31.78,17.38C170.23,290,141,272.23,151.84,252.58Z"></path><path d="M357,564.87c-.26,3.19,2.84,13.36-3.4,13.76-9.55-2.38-21.21.47-26.63-8.62-14.4-26.84,9.63-15.33,26.61-19.1,4.92,1,2.85,8.44,3.28,14Z"></path><path d="M374.89,109.82c-4.27-17.88,15-10.69,23.65-6.18,1.76,15.06,4,32.39,1.16,43.62-27,13.94-24.32-25.92-25-37.44Z"></path><path d="M637,283.46c-23.54,4.22-45.82-14.85-9.18-17.59,18.64-10.23,11.12,6.2,9.17,17.6Z"></path><path d="M394.79,399.73c-80.4-3.6-78.79.27-72.93-17,2.23-5.15,4.81-6.39,11.37-6.81,30.45-3,59.45-7.11,89.69-5.09,34.71,27-6.94,30.42-28.13,28.81Z"></path><path d="M396.85,90.58c-3.29-5.37,12.72-87.41-4-89.84-15.72-4.55-10.2,13.09-13.9,19.37C356.94-15,398.87,25.72,215,9.25c-9.54,26.62-7.42,24.4,38,28.31,17.89,3.47,11.84,6.57,7.06,8.61-109.77,12.8-4.45,44.53,75.11,33,74.22-28.35,14.26,29,61.69,11.41Z"></path></g></svg>