<?xml version="1.0" encoding="UTF-8"?>
<svg version="1.1" fill="#CCC9DC" xmlns="http://www.w3.org/2000/svg" width="320" height="320">
<path d="M0 0 C0.19634033 1.0422876 0.39268066 2.0845752 0.5949707 3.15844727 C1.33778437 7.10050024 2.08170568 11.04234356 2.82592773 14.98413086 C3.14523084 16.67613294 3.46425073 18.3681885 3.78295898 20.06030273 C5.79100525 30.72034047 7.84494808 41.36861037 10 52 C13.82944728 52.4351551 13.82944728 52.4351551 15.52050781 50.68994141 C15.99327148 50.08327637 16.46603516 49.47661133 16.953125 48.8515625 C17.48631348 48.18020264 18.01950195 47.50884277 18.56884766 46.81713867 C19.12362793 46.09373291 19.6784082 45.37032715 20.25 44.625 C20.82411621 43.89708252 21.39823242 43.16916504 21.98974609 42.41918945 C23.6697172 40.2869911 25.33499378 38.14388882 27 36 C28.53436149 34.05651286 30.07883245 32.12164639 31.625 30.1875 C32.51058594 29.06408203 32.51058594 29.06408203 33.4140625 27.91796875 C34.87092258 26.15610102 36.27958288 24.50655311 38 23 C38.66 23 39.32 23 40 23 C41.26171875 24.68969727 41.26171875 24.68969727 42.6875 27.06640625 C43.21625732 27.93676514 43.74501465 28.80712402 44.28979492 29.70385742 C44.8541626 30.64720947 45.41853027 31.59056152 46 32.5625 C49.92973052 39.03784012 53.89933196 45.4435386 58.1875 51.6875 C61.96472953 57.23487031 65.35669 62.95138107 68.625 68.8125 C69.06352295 69.5964917 69.5020459 70.3804834 69.95385742 71.18823242 C73 76.74158939 73 76.74158939 73 79 C74.11375 78.835 75.2275 78.67 76.375 78.5 C87.37745456 77.21574137 96.42942063 79.06227075 107 82 C106.99363525 82.5983667 106.98727051 83.1967334 106.98071289 83.81323242 C106.89402634 99.98049711 106.89402634 99.98049711 113.6015625 114.34375 C115.40074552 117.7611926 115.03295873 119.33154844 114 123 C113.82339844 123.89976562 113.64679688 124.79953125 113.46484375 125.7265625 C111.51310245 128.75566499 109.38656491 129.07416155 105.98168945 129.86108398 C105.18335693 130.03067627 104.38502441 130.20026855 103.5625 130.375 C89.34286201 133.84784332 78.61184848 141.85895176 69.875 153.5 C69.35510498 154.18908447 68.83520996 154.87816895 68.29956055 155.58813477 C63.62709526 162.04072741 61.2493237 168.40710527 59 176 C58.67 176.33 58.34 176.66 58 177 C49.92479792 176.68708592 42.53475264 173.62114821 35 170.9375 C33.63958002 170.45955402 32.27890473 169.98233408 30.91796875 169.50585938 C27.60899147 168.34560239 24.30358543 167.1755343 21 166 C21.37286133 166.68513672 21.74572266 167.37027344 22.12988281 168.07617188 C23.83797903 171.21669392 25.54400378 174.35833673 27.25 177.5 C27.83652344 178.57765625 28.42304688 179.6553125 29.02734375 180.765625 C38 197.29950843 38 197.29950843 38 201 C34.92070739 204.57948227 31.52496008 207.52344998 27 208.9375 C23.33230311 209.01391035 19.6685129 209.00375872 16 209 C16.22300781 208.030625 16.44601563 207.06125 16.67578125 206.0625 C17.80422674 199.67173165 18.31629654 194.34062638 14.48828125 188.796875 C11.74400744 185.32937502 8.75282705 182.09479578 5.71826172 178.88085938 C3.15691426 176.07713376 0.91945758 173.06790022 -1.3125 170 C-2.03050781 169.030625 -2.74851563 168.06125 -3.48828125 167.0625 C-3.98714844 166.381875 -4.48601562 165.70125 -5 165 C-5.09474609 166.81757813 -5.09474609 166.81757813 -5.19140625 168.671875 C-5.83405145 178.21837431 -7.20314188 187.04903575 -10.3125 196.125 C-10.59617432 196.98319336 -10.87984863 197.84138672 -11.17211914 198.72558594 C-13.30485272 204.56852927 -13.30485272 204.56852927 -16.60546875 206.6171875 C-19 207 -19 207 -21 206 C-25.06887049 205.58267995 -28.37658775 206.31437481 -32.25 207.4375 C-39.43025495 209.48900141 -47.00802917 211.58562607 -54 208 C-55.16523042 204.50430873 -54.75652918 202.95854936 -54.0625 199.375 C-52.07515346 187.33006861 -52.69460446 175.09821935 -54 163 C-54.49886719 163.55945313 -54.99773437 164.11890625 -55.51171875 164.6953125 C-56.22972656 165.49710938 -56.94773437 166.29890625 -57.6875 167.125 C-58.49960938 168.03636719 -59.31171875 168.94773438 -60.1484375 169.88671875 C-62.16087497 172.11503066 -64.23485854 174.26516325 -66.3515625 176.39453125 C-72.94271066 183.09725196 -77.80010699 188.58379127 -80 198 C-80.33 198.99 -80.66 199.98 -81 201 C-83.6875 201 -83.6875 201 -87 200 C-91.23019565 195.05010833 -93.34071895 188.93554381 -95.25 182.8125 C-95.50523438 182.03197266 -95.76046875 181.25144531 -96.0234375 180.44726562 C-96.7142685 178.30387153 -97.39383215 176.16889688 -98 174 C-98.35167236 172.76358765 -98.35167236 172.76358765 -98.71044922 171.50219727 C-99.06463138 168.4414781 -98.50168796 167.39245218 -96.8671875 164.8203125 C-96.39023438 164.05589844 -95.91328125 163.29148438 -95.421875 162.50390625 C-94.91140625 161.71886719 -94.4009375 160.93382812 -93.875 160.125 C-93.38773437 159.34769531 -92.90046875 158.57039062 -92.3984375 157.76953125 C-89.4225711 153.06038097 -86.27820774 148.50303261 -83 144 C-85.39674267 144.11456128 -87.79181218 144.24128719 -90.1875 144.375 C-91.19780273 144.42140625 -91.19780273 144.42140625 -92.22851562 144.46875 C-97.09609736 144.75368161 -100.69130821 145.8456541 -105 148 C-118.9373297 136.41572596 -118.9373297 136.41572596 -120.875 130.1875 C-121.90470415 127.56532325 -121.90470415 127.56532325 -125.625 126.75 C-126.42550781 126.52570313 -127.22601563 126.30140625 -128.05078125 126.0703125 C-132.64214029 124.40404445 -136.7131266 121.87985162 -140.89599609 119.37963867 C-145.13323913 116.89139168 -148.97947346 115.36461434 -153.75 114.0625 C-156.625 112.9921875 -156.625 112.9921875 -159 111 C-161.55998776 105.3551147 -162.26527271 99.09950325 -163 93 C-160.16751851 91.40946495 -158.04258156 90.74419044 -154.8046875 90.61328125 C-142.10215005 89.86614907 -135.4004312 87.73013773 -126.4921875 78.30859375 C-113.98042534 65.11026905 -113.98042534 65.11026905 -106.26171875 63.94140625 C-100.58963855 64.04329991 -95.12129002 65.02743651 -89.58984375 66.23828125 C-86.1225174 67.10378297 -86.1225174 67.10378297 -83 67 C-83.26852783 66.02651611 -83.53705566 65.05303223 -83.8137207 64.05004883 C-84.80316282 60.43277639 -85.75359285 56.80619098 -86.69262695 53.17553711 C-87.10426427 51.60632185 -87.52640164 50.03982171 -87.95922852 48.47631836 C-88.58016373 46.22623208 -89.16250709 43.96903595 -89.73828125 41.70703125 C-90.03947624 40.66298882 -90.03947624 40.66298882 -90.34675598 39.59785461 C-90.83325195 37.59692383 -90.83325195 37.59692383 -91 34 C-88.73242188 31.15820313 -88.73242188 31.15820313 -86 29 C-85.18917969 28.26136719 -84.37835938 27.52273437 -83.54296875 26.76171875 C-82.76566406 26.07722656 -81.98835938 25.39273438 -81.1875 24.6875 C-80.39730469 23.99011719 -79.60710937 23.29273437 -78.79296875 22.57421875 C-78.20128906 22.05472656 -77.60960938 21.53523438 -77 21 C-72.5469616 23.89650522 -68.31612727 26.98812719 -64.125 30.25 C-63.23554688 30.93835938 -63.23554688 30.93835938 -62.328125 31.640625 C-60.884033 32.75863171 -59.4418176 33.87906168 -58 35 C-57.82766846 34.34008057 -57.65533691 33.68016113 -57.4777832 33.00024414 C-55.62821959 26.05323681 -53.54644577 19.22812471 -51.1875 12.4375 C-50.86974609 11.45458984 -50.55199219 10.47167969 -50.22460938 9.45898438 C-47.75523705 2.40987241 -47.75523705 2.40987241 -44.02734375 0.38671875 C-43.02832031 0.25910156 -42.02929688 0.13148437 -41 0 C-40.22398437 -0.13664062 -39.44796875 -0.27328125 -38.6484375 -0.4140625 C-25.73840356 -1.6119007 -12.91014107 -0.7448706 0 0 Z M-52.33984375 75.828125 C-54.73176762 77.51654185 -57.19815435 78.19947267 -60 79 C-66.58973061 81.26118207 -72.76409918 84.29962876 -78.9375 87.5 C-79.68362549 87.87970947 -80.42975098 88.25941895 -81.19848633 88.65063477 C-86.44884917 91.38021382 -86.44884917 91.38021382 -90 96 C-90.65892036 101.45159725 -90.65892036 101.45159725 -88.64453125 106.359375 C-84.71725779 110.28084746 -80.09219885 112.65928452 -75.25 115.3125 C-74.26644531 115.86228516 -73.28289062 116.41207031 -72.26953125 116.97851562 C-69.85139427 118.32844646 -67.42831707 119.66849613 -65 121 C-66.77661133 122.08398438 -66.77661133 122.08398438 -69 123 C-71.75537753 121.9640985 -74.11853238 120.88764801 -76.6875 119.5 C-77.40357422 119.12633301 -78.11964844 118.75266602 -78.85742188 118.36767578 C-84.13956742 115.56976687 -89.18373264 112.54782467 -94 109 C-94.76441406 108.43796875 -95.52882813 107.8759375 -96.31640625 107.296875 C-98.22206041 105.87840547 -100.11629662 104.44742331 -102 103 C-102.66 104.32 -103.32 105.64 -104 107 C-102.51849794 109.24350415 -101.01666634 111.4679342 -99.5 113.6875 C-98.88511719 114.62625977 -98.88511719 114.62625977 -98.2578125 115.58398438 C-92.58118742 123.79788885 -83.97717991 127.20701683 -75.0625 131.125 C-73.55647217 131.79063965 -73.55647217 131.79063965 -72.02001953 132.46972656 C-64.48745524 135.66768278 -57.52625682 137.3748373 -49.3984375 138.109375 C-44.9056588 139.28679287 -43.69346178 141.29537151 -41 145 C-36.93422245 149.73989611 -32.89002599 151.64716532 -27.1875 153.8125 C-26.39923828 154.12380859 -25.61097656 154.43511719 -24.79882812 154.75585938 C-22.87042534 155.5155332 -20.93580772 156.25939881 -19 157 C-17.77323476 153.31970427 -18.40911329 151.76012156 -19.4375 148.0625 C-20.43805077 144.44167278 -21 141.79258312 -21 138 C-16.05360465 134.98390528 -13.61163491 135.02019073 -8 136 C-3.66546568 136.10151134 0.6649273 136.05867016 5 136 C4.01 130.555 4.01 130.555 3 125 C4.340625 124.566875 5.68125 124.13375 7.0625 123.6875 C10.04596379 122.70394051 12.90089566 121.63327685 15.75 120.3125 C18.98121815 119.00758498 20.59448108 118.69559243 24 119 C26.06469727 119.97802734 26.06469727 119.97802734 28.06640625 121.3359375 C28.79923828 121.82320312 29.53207031 122.31046875 30.28710938 122.8125 C31.41342773 123.5859375 31.41342773 123.5859375 32.5625 124.375 C34.06266481 125.38450459 35.56393102 126.39237479 37.06640625 127.3984375 C37.72584229 127.84880371 38.38527832 128.29916992 39.06469727 128.76318359 C43.21961224 131.41851339 45.97403434 132.43704049 51 132 C51.66 131.34 52.32 130.68 53 130 C52.73981025 125.71874517 52.73981025 125.71874517 51 122 C48.54993432 120.59873437 46.21351739 119.77589464 43.5078125 118.984375 C41 118 41 118 37 114 C41.29 114.66 45.58 115.32 50 116 C50.08636719 115.01902344 50.17273438 114.03804687 50.26171875 113.02734375 C51.15089625 104.15439323 52.92480286 96.35988875 56.07421875 88.01171875 C57.32092067 84.99440259 57.32092067 84.99440259 56 82 C41.89547727 83.72006375 31.76689931 88.32401757 21.6640625 98.30859375 C18.82158424 100.1132757 17.33736409 100.46505026 14.04345703 99.75634766 C9.48694728 98.06984022 5.49539927 95.31756701 1.4375 92.6875 C0.51775391 92.10548828 -0.40199219 91.52347656 -1.34960938 90.92382812 C-5.94035747 88.00964367 -10.49077998 85.03865908 -15 82 C-14.60689996 77.59727951 -14.05893155 73.80991324 -12.4375 69.6875 C-10.8183959 66.19377684 -10.8183959 66.19377684 -11 63 C-25.89172321 61.2248277 -40.42068924 67.01316381 -52.33984375 75.828125 Z " transform="translate(179,53)"/>
<path d="M0 0 C3.88834902 1.62708509 7.39480637 3.82824863 11 6 C12.38706747 6.77358927 13.77655063 7.54285743 15.16796875 8.30859375 C23.51382366 12.95786177 30.85044071 17.52933767 37 25 C37.52158691 25.54744873 38.04317383 26.09489746 38.58056641 26.65893555 C45.02118184 33.94727953 47.29658675 42.58371873 50.125 51.6875 C50.62715116 53.26293028 51.13104802 54.83780525 51.63671875 56.41210938 C51.88452087 57.18499298 52.132323 57.95787659 52.38763428 58.75418091 C52.88149711 60.29177344 53.37615724 61.82911013 53.87164307 63.36618042 C54.11154968 64.11078522 54.3514563 64.85539001 54.59863281 65.62255859 C54.9515741 66.71694244 54.9515741 66.71694244 55.31164551 67.83343506 C55.98349838 69.94806188 56.62680867 72.06992604 57.26855469 74.19384766 C57.67529999 75.46943713 58.08311571 76.74468596 58.4921875 78.01953125 C58.83362793 79.13046143 59.17506836 80.2413916 59.52685547 81.38598633 C60.80249032 84.24482851 60.80249032 84.24482851 63.84301758 85.31567383 C66.5673061 85.90620671 69.26823238 86.48358882 72.01953125 86.9296875 C76.28067073 87.6666793 80.48555643 88.53473323 84.69921875 89.5078125 C85.84583984 89.77207031 86.99246094 90.03632813 88.17382812 90.30859375 C90.52912175 90.8558493 92.88328592 91.40798731 95.23632812 91.96484375 C103.79351348 93.92435715 110.46917175 94.80810301 118.99853516 92.46289062 C122.37289251 91.68248302 125.74600754 91.70726276 129.1875 91.75 C129.97922607 91.75386719 130.77095215 91.75773437 131.58666992 91.76171875 C140.55068527 91.88325328 149.48718441 92.57481072 158.4206543 93.28808594 C161.94590693 93.56163678 165.47017282 93.79400829 169 94 C170.87196045 94.11686157 170.87196045 94.11686157 172.78173828 94.23608398 C180.12929539 94.73742658 180.12929539 94.73742658 186.640625 91.91015625 C187.50171875 90.97042969 188.3628125 90.03070313 189.25 89.0625 C190.2288765 88.03363901 191.20936924 87.0063135 192.19140625 85.98046875 C192.66078613 85.46919434 193.13016602 84.95791992 193.61376953 84.43115234 C195.62604851 82.3536639 197.91429325 80.65783857 200.1875 78.875 C204.94303266 74.59351569 207.45147847 69.94518456 210.24584961 64.29907227 C213.68871019 57.38421863 217.64972537 50.85597687 221.75 44.3125 C222.38832764 43.28503662 223.02665527 42.25757324 223.68432617 41.19897461 C232.41509488 27.3206115 232.41509488 27.3206115 240.55078125 23.3515625 C241.16841843 23.04930756 241.7860556 22.74705261 242.42240906 22.43563843 C243.72077158 21.80521904 245.02267881 21.18205225 246.32788086 20.56591797 C248.30765861 19.62729533 250.26977037 18.65743034 252.23242188 17.68359375 C253.50427458 17.07097433 254.77703406 16.46023316 256.05078125 15.8515625 C257.19200439 15.30322754 258.33322754 14.75489258 259.5090332 14.18994141 C265.00177776 12.31766803 270.13136282 12.36503786 275.68359375 14.2421875 C276.46541016 14.50386719 277.24722656 14.76554688 278.05273438 15.03515625 C279.23319336 15.45087891 279.23319336 15.45087891 280.4375 15.875 C281.25154297 16.14441406 282.06558594 16.41382813 282.90429688 16.69140625 C288.86480602 18.72961205 288.86480602 18.72961205 290 21 C291.13933347 27.32394085 292.02809355 33.78165067 290 40 C285.35517962 46.3672746 278.02158602 51.48920699 271 55 C269.23818677 54.93037036 267.47859063 54.80040171 265.72265625 54.640625 C254.41420287 53.4131706 254.41420287 53.4131706 243.77734375 56.27148438 C240.0143438 59.64030399 237.59550458 63.71535752 235 68 C234.34 68 233.68 68 233 68 C232.79503906 67.00097656 232.59007812 66.00195312 232.37890625 64.97265625 C232.10949219 63.68230469 231.84007812 62.39195312 231.5625 61.0625 C231.29566406 59.77472656 231.02882813 58.48695313 230.75390625 57.16015625 C230.32818384 54.15361121 230.32818384 54.15361121 229 53 C227.98300422 56.01537445 226.98958358 59.03802945 226 62.0625 C225.71382812 62.91005859 225.42765625 63.75761719 225.1328125 64.63085938 C221.91957647 74.53833713 223.49330381 82.36215972 225.9296875 92.26171875 C226.92361365 96.85365758 227.32343624 99.21975175 225.484375 103.65625 C224.67188151 104.78227902 223.8428996 105.89654756 223 107 C222.4572644 107.97078491 222.4572644 107.97078491 221.90356445 108.96118164 C217.44947933 116.27854473 209.98919252 118.77686385 202.4375 121.9375 C201.10917359 122.51692989 199.7816905 123.0982971 198.45507812 123.68164062 C182.90830228 130.43031234 170.08766916 130.99074807 154.25 125 C141.15105162 119.96085012 141.15105162 119.96085012 127.5390625 121.93359375 C124.44540159 123.54377563 121.70018091 125.49766837 118.87109375 127.52734375 C110.02336118 133.74766379 100.87468596 137.05678766 90 136 C88.67355469 135.91105469 88.67355469 135.91105469 87.3203125 135.8203125 C79.17601099 134.8743738 74.22944012 131.0840801 68 126 C66.851297 125.09987207 65.70014837 124.20285848 64.546875 123.30859375 C61.5691443 120.99585993 58.60917766 118.66192937 55.65722656 116.31640625 C54.10452174 115.08302611 52.54847287 113.8538591 50.9921875 112.625 C46.00422394 108.66953036 46.00422394 108.66953036 44 107 C43.47277344 106.58105469 42.94554687 106.16210938 42.40234375 105.73046875 C38.6037744 101.04309765 36.31893536 92.62482302 35.796875 86.69140625 C36.13637952 83.65545235 37.00732528 80.97868228 38 78.08984375 C40.0312464 71.43275106 40.4342929 67.43707011 37.3125 61.0625 C33.81387857 55.43190614 29.54863682 50.85380171 23 49 C18.90235022 50.06825889 16.84523239 53.35158142 14.3125 56.5625 C13.52488281 57.55378906 12.73726562 58.54507813 11.92578125 59.56640625 C11.29027344 60.36949219 10.65476562 61.17257813 10 62 C9 63 9 63 6.2890625 63.27734375 C2.34512089 62.9447786 0.56555239 61.86778644 -2.625 59.5625 C-4.00558594 58.60537109 -4.00558594 58.60537109 -5.4140625 57.62890625 C-8.85638081 54.1293893 -10.29095732 50.54932994 -12 46 C-12.48581543 44.72249878 -12.48581543 44.72249878 -12.98144531 43.41918945 C-13.96557404 40.75026977 -14.89496302 38.06747637 -15.8125 35.375 C-16.13669922 34.47265625 -16.46089844 33.5703125 -16.79492188 32.640625 C-19.78332374 23.86099468 -18.32519088 17.93647925 -14.625 9.6875 C-14.16867187 8.61532227 -14.16867187 8.61532227 -13.703125 7.52148438 C-10.72900012 0.77886366 -7.3092901 -1.34227364 0 0 Z " transform="translate(26,172)"/>
<path d="M0 0 C1.07709229 0.50901855 2.15418457 1.01803711 3.26391602 1.54248047 C5.36930498 2.53875353 7.47344662 3.53766795 9.57617188 4.53955078 C11.67359443 5.51527894 13.80705725 6.41385082 15.953125 7.27734375 C25.62600106 11.28969597 32.18006455 19.29681288 39.25463867 26.74926758 C41.94923095 29.45089284 44.82992249 31.88499843 47.78540039 34.29541016 C49.3125 35.8125 49.3125 35.8125 50 38.75 C49.12616319 42.6425458 47.83871613 46.12414436 46.3125 49.8125 C47.07175781 50.01746094 47.83101562 50.22242188 48.61328125 50.43359375 C49.60714844 50.70300781 50.60101563 50.97242188 51.625 51.25 C53.10419922 51.65025391 53.10419922 51.65025391 54.61328125 52.05859375 C56.52767526 52.59329425 58.42683615 53.18394538 60.3125 53.8125 C61.41796875 56.25390625 61.41796875 56.25390625 62.5 59.375 C65.06575242 65.77428838 68.0542129 69.44587173 73.3125 73.8125 C74.30121094 74.65296875 75.28992188 75.4934375 76.30859375 76.359375 C84.82686245 83.41175595 94.01251731 89.16797608 103.54174805 94.75024414 C105.16220078 95.72233705 106.74020415 96.76430277 108.3125 97.8125 C106.62113769 101.59048863 104.31370718 104.85090426 101.8125 108.125 C101.23628906 108.96901367 101.23628906 108.96901367 100.6484375 109.83007812 C99.40625 111.42578125 99.40625 111.42578125 96.3125 113.8125 C92.86365273 114.23792718 89.69539401 113.49619674 86.3125 112.8125 C85.0529248 112.58796143 83.79334961 112.36342285 82.49560547 112.13208008 C78.89667024 111.48138507 75.31450842 110.76426173 71.73364258 110.02099609 C69.49023985 109.56049655 67.24266634 109.12610003 64.99414062 108.69140625 C63.55175385 108.39482709 62.10968345 108.09670415 60.66796875 107.796875 C59.37528076 107.53616211 58.08259277 107.27544922 56.75073242 107.00683594 C51.09838296 105.043384 48.25783203 101.16985204 45.33984375 96.125 C44.83259766 95.26132813 44.32535156 94.39765625 43.80273438 93.5078125 C43.29033203 92.61835937 42.77792969 91.72890625 42.25 90.8125 C41.2209606 89.03962313 40.18850067 87.26872647 39.15234375 85.5 C38.70238037 84.72011719 38.25241699 83.94023438 37.78881836 83.13671875 C36.32045441 80.72131348 36.32045441 80.72131348 34.30151367 78.36279297 C32.27083762 75.75908092 30.99380465 73.32781726 29.6484375 70.3203125 C29.16503906 69.28519531 28.68164062 68.25007813 28.18359375 67.18359375 C27.19324539 65.03482224 26.21899542 62.87855128 25.26171875 60.71484375 C21.60351832 52.98557513 17.69568661 49.03552907 10.3125 44.8125 C9.57563965 44.36003906 8.8387793 43.90757813 8.07958984 43.44140625 C6.00856497 42.17665824 3.91787654 40.95655978 1.8125 39.75 C-2.94320532 37.02211076 -7.54072464 34.23101183 -12.0625 31.125 C-17.32322096 27.92906713 -21.84864634 28.64645674 -27.6875 29.8125 C-32.14344379 30.69289858 -36.23606402 30.87261793 -40.7734375 30.734375 C-42.1301844 30.70711472 -43.48695704 30.68111223 -44.84375 30.65625 C-46.95286922 30.61312674 -49.06061251 30.56256475 -51.16894531 30.49023438 C-59.73130991 30.21002609 -65.84463272 30.30768591 -72.6875 35.8125 C-74.13540725 36.71906805 -75.59724667 37.6036615 -77.0703125 38.46875 C-78.21669189 39.15710937 -78.21669189 39.15710937 -79.38623047 39.859375 C-80.18689941 40.33890625 -80.98756836 40.8184375 -81.8125 41.3125 C-82.66344238 41.82296875 -83.51438477 42.3334375 -84.39111328 42.859375 C-92.02085385 47.42917782 -99.67898773 51.95060623 -107.35205078 56.44726562 C-109.06715058 57.45596127 -110.77705863 58.47355611 -112.48071289 59.50146484 C-114.24316768 60.54852561 -116.04743981 61.52508839 -117.86328125 62.4765625 C-122.40419021 66.23239038 -125.00508788 71.16608816 -128 76.1875 C-129.32765845 78.36096214 -130.65578146 80.53414058 -131.984375 82.70703125 C-132.62052734 83.75713379 -133.25667969 84.80723633 -133.91210938 85.88916016 C-144.48598526 103.29999485 -144.48598526 103.29999485 -150.6875 109.8125 C-151.491875 110.740625 -152.29625 111.66875 -153.125 112.625 C-161.28448552 119.59041447 -175.63054422 118.18497984 -185.6875 117.8125 C-187.69360798 117.51815007 -189.6969661 117.19835734 -191.6875 116.8125 C-192.53084329 114.58667611 -193.36228551 112.35753974 -194.1875 110.125 C-194.42597656 109.49916016 -194.66445312 108.87332031 -194.91015625 108.22851562 C-196.21983726 104.65495744 -197.25756123 101.6150675 -196.6875 97.8125 C-195.46044922 95.70068359 -195.46044922 95.70068359 -193.6875 93.8125 C-191.49853516 93.31420898 -191.49853516 93.31420898 -188.9765625 93.30859375 C-188.06132812 93.28990234 -187.14609375 93.27121094 -186.203125 93.25195312 C-185.24921875 93.25130859 -184.2953125 93.25066406 -183.3125 93.25 C-181.42957879 93.24102149 -179.54666674 93.2192892 -177.6640625 93.18359375 C-176.82955566 93.18286865 -175.99504883 93.18214355 -175.13525391 93.18139648 C-168.90638215 92.24265469 -165.46105493 87.73008237 -161.81542969 83.01025391 C-158.01114336 77.2933491 -155.23142403 71.11241965 -152.39785767 64.87200928 C-151.2887439 62.44808193 -150.1470155 60.0418886 -148.99682617 57.63720703 C-144.28579155 47.75086405 -144.28579155 47.75086405 -140.69921875 37.41796875 C-137.66141887 27.53000129 -133.40669767 22.67988227 -124.33203125 17.8671875 C-116.13369924 13.69626929 -107.67224938 10.13774517 -99.15917969 6.66699219 C-95.4094158 5.13194923 -91.74598523 3.46875136 -88.1015625 1.6953125 C-87.20099121 1.25928711 -86.30041992 0.82326172 -85.37255859 0.37402344 C-83.82776723 -0.37870225 -82.28601892 -1.13773191 -80.74853516 -1.90527344 C-73.55005945 -5.23557802 -66.92168717 -5.16667602 -59.46875 -2.55078125 C-56.80893187 -1.54399083 -54.17308099 -0.4940684 -51.54296875 0.58789062 C-44.63168589 3.17322236 -40.4274809 2.66338109 -33.6875 -0.1875 C-33.00187988 -0.46440674 -32.31625977 -0.74131348 -31.60986328 -1.02661133 C-29.09978073 -2.06682857 -26.61544521 -3.1547454 -24.14648438 -4.2890625 C-15.18298285 -8.12107797 -8.16494011 -3.87829907 0 0 Z " transform="translate(200.6875,18.1875)"/>
<path d="M0 0 C3.42540866 0.28545072 4.8084997 0.82361814 7.375 3.1875 C9 6 9 6 9.0625 9 C7.76531132 12.66265039 5.90134491 14.47062239 3 17 C1.63122884 15.76600937 0.28030834 14.51219377 -1.0625 13.25 C-1.81660156 12.55390625 -2.57070312 11.8578125 -3.34765625 11.140625 C-5 9 -5 9 -4.875 6.90625 C-3.65454821 4.24740861 -1.90031311 2.20681522 0 0 Z " transform="translate(119,149)"/>
<path d="M0 0 C1.65 0.33 3.3 0.66 5 1 C5.33 1.99 5.66 2.98 6 4 C4.35 3.67 2.7 3.34 1 3 C0.67 5.64 0.34 8.28 0 11 C0.99 11.66 1.98 12.32 3 13 C3.66 12.34 4.32 11.68 5 11 C5 12.32 5 13.64 5 15 C4.34 15.66 3.68 16.32 3 17 C1.63122884 15.76600937 0.28030834 14.51219377 -1.0625 13.25 C-1.81660156 12.55390625 -2.57070312 11.8578125 -3.34765625 11.140625 C-5 9 -5 9 -4.875 6.90625 C-3.65454821 4.24740861 -1.90031311 2.20681522 0 0 Z " transform="translate(119,149)"/>
<path d="M0 0 C2.16874252 0.50603992 3.99967627 0.99983813 6 2 C3.25501748 8.13145552 -0.962786 13.59767031 -6 18 C-9.67885695 18.71284085 -12.4862318 18.22608082 -16 17 C-16 16.67 -16 16.34 -16 16 C-13.69 16.33 -11.38 16.66 -9 17 C-8.67 16.34 -8.34 15.68 -8 15 C-7.34 15.33 -6.68 15.66 -6 16 C-6.12375 14.85917969 -6.12375 14.85917969 -6.25 13.6953125 C-6 11 -6 11 -4.25 9.3046875 C-3.5075 8.83289063 -2.765 8.36109375 -2 7.875 C0.22172082 6.50811909 0.22172082 6.50811909 2 5 C2 4.01 2 3.02 2 2 C1.34 1.34 0.68 0.68 0 0 Z " transform="translate(303,114)"/>
<path d="M0 0 C3.96 0.33 7.92 0.66 12 1 C11.34 1.66 10.68 2.32 10 3 C10.33 3.99 10.66 4.98 11 6 C13.01508358 6.73323796 13.01508358 6.73323796 15 7 C10.68966765 8.43677745 8.00357588 6.84470599 4 5 C1.5 3.4375 1.5 3.4375 0 2 C0 1.34 0 0.68 0 0 Z " transform="translate(216,167)"/>
<path d="M0 0 C1.31223496 3.93670488 0.24296256 6.12488144 -1 10 C-3.75 9.875 -3.75 9.875 -7 9 C-9.375 5.9375 -9.375 5.9375 -11 3 C-10.67 2.34 -10.34 1.68 -10 1 C-8 3 -8 3 -8 6 C-6.68 6.33 -5.36 6.66 -4 7 C-2.68 4.69 -1.36 2.38 0 0 Z " transform="translate(99,244)"/>
<path d="M0 0 C1.32 0.33 2.64 0.66 4 1 C3.1875 3.9375 3.1875 3.9375 2 7 C-1 8 -1 8 -5 7 C-3.35 4.69 -1.7 2.38 0 0 Z " transform="translate(92,203)"/>
<path d="M0 0 C0 0.33 0 0.66 0 1 C-1.9490625 1.12375 -1.9490625 1.12375 -3.9375 1.25 C-9.14094865 1.80338263 -13.37021568 3.64679993 -18 6 C-18 6.66 -18 7.32 -18 8 C-19.8125 8.625 -19.8125 8.625 -22 9 C-22.99 8.34 -23.98 7.68 -25 7 C-9.04255319 -1.34042553 -9.04255319 -1.34042553 0 0 Z " transform="translate(136,14)"/>
<path d="M0 0 C-0.33 0.99 -0.66 1.98 -1 3 C-1.845625 2.95359375 -2.69125 2.9071875 -3.5625 2.859375 C-10.96530419 2.62383123 -15.69641861 3.04481168 -22 7 C-22 6.01 -22 5.02 -22 4 C-21.01 4 -20.02 4 -19 4 C-18.67 3.01 -18.34 2.02 -18 1 C-16.12528812 0.83012319 -14.25021305 0.66425224 -12.375 0.5 C-11.33085937 0.4071875 -10.28671875 0.314375 -9.2109375 0.21875 C-6.12853212 0.00875645 -3.08834771 -0.03709727 0 0 Z " transform="translate(170,290)"/>
<path d="M0 0 C-0.48210937 0.32613281 -0.96421875 0.65226563 -1.4609375 0.98828125 C-2.09257812 1.42527344 -2.72421875 1.86226562 -3.375 2.3125 C-4.31472656 2.95638672 -4.31472656 2.95638672 -5.2734375 3.61328125 C-7.26378845 5.06920339 -7.26378845 5.06920339 -9 8 C-9.66 7.01 -10.32 6.02 -11 5 C-13.05925139 4.27617533 -13.05925139 4.27617533 -15 4 C-12.87875034 3.13656176 -10.75286928 2.28449352 -8.625 1.4375 C-6.84996094 0.72400391 -6.84996094 0.72400391 -5.0390625 -0.00390625 C-2 -1 -2 -1 0 0 Z " transform="translate(179,15)"/>
<path d="M0 0 C0.66 0.33 1.32 0.66 2 1 C2 1.99 2 2.98 2 4 C1.34 4 0.68 4 0 4 C-0.28875 4.886875 -0.5775 5.77375 -0.875 6.6875 C-1.83148748 9.50382424 -2.86798946 12.25083156 -4 15 C-4.66 15 -5.32 15 -6 15 C-4.36041242 9.76727367 -2.61047965 4.84803364 0 0 Z " transform="translate(64,49)"/>
<path d="M0 0 C0.66 0.33 1.32 0.66 2 1 C1.360625 1.61875 0.72125 2.2375 0.0625 2.875 C-2.03883584 4.82597612 -2.03883584 4.82597612 -3 7 C-3.99 7.33 -4.98 7.66 -6 8 C-6.66 8.66 -7.32 9.32 -8 10 C-7.50153711 6.31137465 -6.9758353 4.31453856 -4 2 C-1.9375 0.75 -1.9375 0.75 0 0 Z " transform="translate(74,38)"/>
<path d="M0 0 C1.91635217 -0.05423638 3.83314925 -0.09289963 5.75 -0.125 C7.35101563 -0.15980469 7.35101563 -0.15980469 8.984375 -0.1953125 C11.92470106 -0.00487687 13.52361878 0.47329896 16 2 C13.8125 3.125 13.8125 3.125 11 4 C8.5625 3.1875 8.5625 3.1875 6 2 C4.0075675 1.62406934 2.0081326 1.28020455 0 1 C0 0.67 0 0.34 0 0 Z " transform="translate(154,264)"/>
<path d="M0 0 C3.39192363 0.59283621 5.2107757 1.76743189 7.75 4.0625 C8.67039062 4.88427734 8.67039062 4.88427734 9.609375 5.72265625 C10.29773438 6.35494141 10.29773438 6.35494141 11 7 C10.67 7.66 10.34 8.32 10 9 C8.33043913 7.69118353 6.66441696 6.37785174 5 5.0625 C4.071875 4.33160156 3.14375 3.60070312 2.1875 2.84765625 C1.465625 2.23792969 0.74375 1.62820313 0 1 C0 0.67 0 0.34 0 0 Z " transform="translate(83,288)"/>
<path d="M0 0 C0.33 0 0.66 0 1 0 C1 1.65 1 3.3 1 5 C0.34 5 -0.32 5 -1 5 C-1.33 6.65 -1.66 8.3 -2 10 C-3.32 10.33 -4.64 10.66 -6 11 C-4.02 7.37 -2.04 3.74 0 0 Z " transform="translate(44,92)"/>
<path d="M0 0 C0.66 0 1.32 0 2 0 C5.20614467 3.40652872 6.74809374 6.51400257 8 11 C3.32974539 7.84442256 1.87655769 5.1358421 0 0 Z " transform="translate(231,89)"/>
<path d="M0 0 C0.66 0.33 1.32 0.66 2 1 C1.67 1.66 1.34 2.32 1 3 C0.34 3 -0.32 3 -1 3 C-1.33 3.99 -1.66 4.98 -2 6 C-2.99 6.66 -3.98 7.32 -5 8 C-5.99 7.67 -6.98 7.34 -8 7 C-5.36 4.69 -2.72 2.38 0 0 Z " transform="translate(229,248)"/>
<path d="M0 0 C0.66 0.66 1.32 1.32 2 2 C1.34 2 0.68 2 0 2 C-0.66 4.64 -1.32 7.28 -2 10 C-3.32 9.67 -4.64 9.34 -6 9 C-4.02 6.03 -2.04 3.06 0 0 Z " transform="translate(87,211)"/>
<path d="M0 0 C0.33 1.32 0.66 2.64 1 4 C0.01 4.495 0.01 4.495 -1 5 C-1.66 5.99 -2.32 6.98 -3 8 C-3.33 5.69 -3.66 3.38 -4 1 C-2 0 -2 0 0 0 Z " transform="translate(186,177)"/>
<path d="M0 0 C0.66 0.33 1.32 0.66 2 1 C0.90241493 1.84198307 -0.20335317 2.67330671 -1.3125 3.5 C-1.92738281 3.9640625 -2.54226562 4.428125 -3.17578125 4.90625 C-5 6 -5 6 -8 6 C-8 5.34 -8 4.68 -8 4 C-6.71349294 3.30289269 -5.42059335 2.61757124 -4.125 1.9375 C-3.40570313 1.55464844 -2.68640625 1.17179687 -1.9453125 0.77734375 C-1.30335937 0.52082031 -0.66140625 0.26429687 0 0 Z " transform="translate(106,23)"/>
<path d="M0 0 C2.66666667 1.33333333 5.33333333 2.66666667 8 4 C6.1875 5.0625 6.1875 5.0625 4 6 C3.01 5.67 2.02 5.34 1 5 C0.67 3.35 0.34 1.7 0 0 Z " transform="translate(106,171)"/>
<path d="M0 0 C3 1.8125 3 1.8125 6 4 C6 4.99 6 5.98 6 7 C5.608125 6.525625 5.21625 6.05125 4.8125 5.5625 C2.59191626 3.64820367 0.86624291 3.38733012 -2 3 C-1.34 2.01 -0.68 1.02 0 0 Z " transform="translate(102,74)"/>
<path d="M0 0 C0 0.66 0 1.32 0 2 C-6.28571429 4.42857143 -6.28571429 4.42857143 -10 3 C-3.375 0 -3.375 0 0 0 Z " transform="translate(152,257)"/>
<path d="M0 0 C2.97 0.99 5.94 1.98 9 3 C5.99580359 4.0013988 3.12290635 4.51421457 0 5 C-0.5625 3.0625 -0.5625 3.0625 -1 1 C-0.67 0.67 -0.34 0.34 0 0 Z " transform="translate(109,186)"/>
<path d="M0 0 C0.33 0.66 0.66 1.32 1 2 C0.34 2 -0.32 2 -1 2 C-1.12375 2.5775 -1.2475 3.155 -1.375 3.75 C-2.00648824 6.02335767 -2.88858191 7.9253529 -4 10 C-4.6875 8.3125 -4.6875 8.3125 -5 6 C-2.73846154 1.36923077 -2.73846154 1.36923077 0 0 Z " transform="translate(18,172)"/>
<path d="M0 0 C0.66 0.66 1.32 1.32 2 2 C-0.475 3.485 -0.475 3.485 -3 5 C-1.125 1.125 -1.125 1.125 0 0 Z M-4 5 C-4 5.99 -4 6.98 -4 8 C-4.99 8.66 -5.98 9.32 -7 10 C-5.125 6.125 -5.125 6.125 -4 5 Z " transform="translate(206,89)"/>
<path d="M0 0 C1.32 0.99 2.64 1.98 4 3 C4.66 2.67 5.32 2.34 6 2 C6 3.32 6 4.64 6 6 C2.62496331 4.8141763 0.35277269 3.72426311 -2 1 C-1.34 0.67 -0.68 0.34 0 0 Z " transform="translate(22,227)"/>
<path d="M0 0 C3.59391114 1.33488128 6.75490696 2.96022723 10 5 C8.25 5.6875 8.25 5.6875 6 6 C3.09864553 4.2933209 1.8956985 2.84354775 0 0 Z " transform="translate(42,182)"/>
<path d="M0 0 C2.64 0 5.28 0 8 0 C7.67 1.32 7.34 2.64 7 4 C4.97954558 3.39816251 2.97888961 2.72693904 1 2 C0.67 1.34 0.34 0.68 0 0 Z " transform="translate(134,258)"/>
</svg>
