<svg xmlns="http://www.w3.org/2000/svg" fill="#CCC9DC" viewBox="0 0 800 800" class="icon"><title>skeleton-throne</title><g id="Layer_71" data-name="Layer 71"><path d="M402.26,429.69c-5.65,1.29-10.28,2.49-15,3.36-2.84.52-3.91,1.94-3.77,4.73.39,7.59.69,15.18,1,22.77,1,25.6,2.83,51.2,2.8,76.8,0,19.95-2.28,39.9-3.62,59.84-.83,12.36-1.93,24.71-2.62,37.08-.24,4.27-2,6.22-6.17,6.77-14.52,1.91-29,2.32-43.39-.79-3.33-.71-4.3-2.93-4.44-6.17-.78-18-1.61-36-2.63-54-1.84-32.83-3.91-65.65-5.71-98.48-.6-11.06-.8-22.14-.93-33.22-.06-4.61-2.24-4.7-5.74-3.69-5.21,1.51-10.44,3-15.74,4.08-2.87.6-3.87,1.73-3.47,4.7,2.13,15.72,4.24,31.45,6.09,47.2,2.32,19.85,4.79,39.69,6.43,59.59,1.85,22.39,2.74,44.86,4.31,67.28.34,4.86-1,7.12-6,7.06a87.88,87.88,0,0,0-10.38.61c-3.63.41-4.73-1.22-4.5-4.57.51-7.43.47-14.92,1.45-22.28a72.71,72.71,0,0,0-3.61-33.22C281.41,559.89,275,545,269.12,530c-2.94-7.45-7.83-11-16.46-10.2-9.6,1-11.69-1.77-12.44-11.44-1.19-15.49-2.77-31-4.05-46.43-.31-3.71-2.22-3.53-5.08-3.17Q197.18,463,163.21,467c-6,.71-7-.24-7.44-6.15q-.59-8.16-1.21-16.31c-.34-4.61,1.19-7.52,6.28-8.25,11.11-1.6,22.17-3.56,33.27-5.29s22.21-3.39,33.32-5.05c4-.6,4.68-2.9,4.47-6.71-1.77-32-3.56-64-4.76-96.07-.33-9,1.87-18.08,1.89-27.12.05-14.54-.54-29.09-1.25-43.62-1-20.47-2.22-40.93-3.54-61.38-1.07-16.47-2.49-32.91-3.6-49.37-.25-3.85-1.67-5-5.61-4.69-7.07.65-14.2.63-21.3,1-3.81.18-6.12-1.53-6.4-5.3-.94-12.46,1.86-24.31,6.69-35.66.53-1.26,3.56-2.15,5.37-2,8.74.48,17.44,1.61,26.18,2,7.09.32,7.57-.87,10.24-7.5C242,74.1,244,58.28,242.94,41.9c-.38-6.1-.09-12.24-.05-18.37,0-5.77,2.05-8,7.76-8.75.32,0,.66,0,1-.06,15.2-.8,17.4.83,18.35,15.16,1.47,22.41,4.18,44.74,6.14,67.13.41,4.64,2.42,7.2,6.83,8.42,8.9,2.47,17.8,5,26.61,7.78,3.82,1.22,5.14.72,4.67-3.6-.69-6.37,0-7,6.51-7.72,1.81-.21,3.63-.3,5.43-.57,7.54-1.11,9.44-3.39,10.09-11,1.13-13.32,2.26-26.65,3.8-39.93.62-5.3,3.45-6.15,7.93-3.23,3.72,2.43,5.47,5.79,6.09,10.23,2.15,15.38,4.53,30.72,7,46,.9,5.52,2.46,6.09,7.17,3.56,4.36-2.34,8.78-4.57,13.17-6.87,2.93-1.54,5-1.43,6.81,2,2.64,5.07,5,10.06,4.19,16-.51,3.9,1,5.74,5.19,5.76,19.79,0,38.32,6.2,57,11.94,10.87,3.35,21.76,7.3,32.94,8.84,8.61,1.18,17.7-.88,26.54-1.82.93-.1,2.11-2.34,2.34-3.73,1.41-8.47,2.74-17,3.81-25.49,3.11-24.75,6.27-49.49,9-74.29,1.12-10.17,1-20.47,1.86-30.68.5-6.17,4.24-9,10.3-8.6,4,.25,7.89.68,11.85.85,3.1.14,4.54,1.71,5.62,4.58,2.61,7,2.08,13.83.91,21-1.23,7.48-1.77,15.09-2.53,22.65q-4.6,45.89-9.14,91.76c0,.33-.09.66-.12,1-.83,10.6-.51,9.95,9.48,13.37,12.68,4.35,25.64,4.24,38.65,4.91,8.91.46,17.81,1.09,26.71,1.82,5.64.46,7,1.94,6.92,7.41-.1,6.93-.24,13.87-.71,20.78-.35,5.16-3.56,7.73-8.69,7.34-12-.92-24.11-1.41-36-3.19s-23.54-4.85-35.27-7.48c-2.94-.66-4,.8-4.43,3.18-1.31,8-2.74,15.94-3.68,24a89.09,89.09,0,0,0-.5,16.32,10.14,10.14,0,0,0,3.74,6.61c2.86,2.1,6.44,3.32,9.86,4.52,3.72,1.31,5.22,3.67,4.91,7.52-.19,2.31,0,4.64-.08,6.95-.24,4.13-1.31,8.32,5.43,8.4,1.55,0,4.1,3.67,4.27,5.8s-1.82,5.71-3.51,6.15c-7.2,1.88-8,6.53-8.17,13-.71,23.94-2.06,47.87-3.16,71.81-.07,1.48,0,3,0,4.46-.24,3.75,1.19,4.79,5,4.28,5.7-.75,11.56-.29,17.27-1,11.94-1.56,23.88-3.23,35.71-5.46,11.19-2.11,22.24-5,33.35-7.52a20.23,20.23,0,0,1,2.46-.35c8.73-.9,11.05.87,11.38,9.7.29,7.93.08,15.88-.07,23.81-.08,4.57-2.34,7.06-7.19,6.74-8.4-.55-16.9-.47-25.19-1.71-9.48-1.42-18.49.31-27.49,2.34-14,3.16-27.87,6.95-41.86,10.16-3.83.88-5.09,2.76-5.29,6.45-.77,14.52-1.06,29.12-2.87,43.52s-5.14,28.57-8,42.79a9.17,9.17,0,0,1-3.33,4.73c-16.29,12.82-22.86,30.24-25.76,50.18-1.31,9-5.69,17.78-9.52,26.28-2.81,6.23-3.47,11.7.37,17.61,6.47,9.94,8.37,20.94,7.41,32.67-.28,3.47-1.29,5-4.89,5.17-23.27,1.14-46.52,2.72-69.79,3.5-9.7.33-19.46-.77-29.18-1.5-7.37-.56-8.34-1.62-7.91-8.87,1.26-21.28,2.69-42.55,4.08-63.83.85-13,1.77-26,2.58-39.07.54-8.69,1.62-17.42,1.25-26.08-.4-9.54-2.71-19-3.21-28.54-.62-11.7-.2-23.45-.28-35.17C402.74,434.34,402.47,432.43,402.26,429.69Zm-9.1-271.28c-1.68,5.55-5.83,157.9-4.41,160.85,2.89-1,5.86-2,8.74-3.15,5-2.07,6.2-6.27,3.45-11-1.57-2.68-2.79-5.57-4.09-8.39-1.2-2.6-.56-4.27,2.31-5.38,1.41-.55,3.21-2,3.44-3.35q2.44-14.14,4.22-28.4a28.62,28.62,0,0,0-.27-9.82c-1.93-8.33-4.6-16.49-6.58-24.81-3.42-14.44,3.27-23,17.19-27.75,9.3-3.19,13.81-1.39,19.45,6.87,3.91,5.71,7.33,11.76,10.74,17.79,4.35,7.69,4,10.89-2,17.23-4.2,4.44-7.23,9.14-7.39,15.63-.2,8.22-1.17,16.42-1.65,24.64-.27,4.59,2.81,5.55,6.18,4.18,5.29-2.15,11.06-4.14,15.23-7.78,5.4-4.72,9.8-5.53,16.23-2.28,7.59,3.84,11,1.13,11.23-7.22q1.38-43.11,3.09-86.2c.12-3.15-.56-5.08-3.76-5.83-8.48-2-16.86-4.56-25.44-6C437.22,164.73,415.31,161.7,393.16,158.41Zm-74.5,76.52c-.79-17.64-1.44-29.85-1.86-42.06-.4-11.9-.64-23.8-.82-35.71-.05-2.94-.52-5-4-5.76-7.68-1.69-15.28-3.72-22.91-5.65-4.95-1.25-5.61-.65-5.5,4.63.56,26.94,1.77,53.89,1.4,80.82a704.37,704.37,0,0,0,3.86,81.66c1.16,11.34,2,22.72,3.18,34.06.23,2.3-.49,6.33,3.75,5.37a64.2,64.2,0,0,0,13.44-4.89c1.32-.63,2.34-3.16,2.41-4.86.25-6.11-.15-12.24,0-18.36.5-18,.57-36,1.94-54C314.66,256.64,317.43,243.19,318.66,234.93ZM474.78,339.21h-.38c0,12.73-.08,25.45.1,38.17,0,1.62,1.51,4.63,2.17,4.59,3.14-.18,6.6-.55,9.24-2.08,4.5-2.6,3.34-7.52,3.13-11.71-1.15-22.41-2.47-44.8-3.63-67.21-.18-3.46-.92-6.8-4.89-6.62-3.55.17-5.81,2.61-5.78,6.71C474.84,313.78,474.78,326.5,474.78,339.21Zm-91.36,61.67c5.37-1.62,10.05-2.68,14.39-4.53,1.47-.63,2.82-3.18,3-5,1.36-14.63,2.42-29.29,3.59-43.93.3-3.77-1.53-4.43-4.52-3-4.17,2-8.14,4.44-12.41,6.16-3.51,1.42-4.63,3.64-4.6,7.23.13,12.56,0,25.13.07,37.7C382.93,397,383.19,398.42,383.42,400.88Zm-65.74-3.79c0-2,0-3.95,0-5.93-.11-5-1.36-5.72-6.05-3.48-4.29,2.06-8.61,4.08-12.89,6.16-11.11,5.41-9.17,2.44-9,15.44.07,4.89,1.66,6.21,6.54,5.19A79.85,79.85,0,0,0,307.59,411C319.07,406.75,317.52,409.1,317.68,397.09Zm173.49,21.34L489.73,417c-3.87,1.09-7.78,2.05-11.58,3.36-.71.24-1.39,1.84-1.37,2.8q.48,17.79,1.22,35.59a10.29,10.29,0,0,0,1.05,2.87l1,0Q485.61,440,491.17,418.43Z"></path><path d="M627.3,626.78c6.3,0,11.89.34,17.41-.11,4.33-.36,6.2,1.6,7.78,5.18,3.46,7.82,3,15.84,1.49,23.86a99.78,99.78,0,0,1-4,13.77c-2.09,6-4,7-10,4.9-5.45-1.9-10.78-4.13-16.1-6.34-2.19-.91-4-1.17-4.46,1.71-1,5.69-1.8,11.42-2.76,17.12-.58,3.44,1.1,4.39,4.18,4.27,5.46-.21,10.92-.09,16.36-.45,4.4-.3,6.89,1.42,8.88,5.39,5.65,11.22,4,22.46.92,33.81-.39,1.44-1,2.83-1.24,4.28-.52,3.18-2.25,4.66-5.47,4.34-5.58-.56-11.15-1.59-16.73-1.61-9.87,0-19.74.47-29.61.9-3.15.14-3.3,2.62-3.3,5.09q0,17.11,0,34.24c0,14.57-2.65,18-16.87,21.65-7.63,2-14.78-.2-21.4-3.79-1.45-.79-2.44-3.88-2.34-5.84.79-15.51,1.87-31,2.91-46.5,1.21-18,2.88-35.91,3.58-53.9.9-23,.86-45.94,1.64-68.9.2-5.93-1.76-10-6.17-13.62-6.22-5.16-6.45-7.16-.81-12.81,5.36-5.36,7.59-11.27,7.89-18.89.58-14.84,5.21-28.87,11.11-42.41,2.63-6,7.32-9.62,14.12-10.14,3.45-.26,6.88-1,10.33-1.07,9.36-.25,16.67,4,21.85,11.46,5.42,7.87,11.24,15.68,15.19,24.29,3,6.55,3.55,14.28,4.76,21.56.62,3.71,0,7.63.45,11.38,1.44,11.46-3.43,21.29-7.69,31.31C628.43,622.63,628,624.49,627.3,626.78Z"></path><path d="M274.33,685.34c.39-4.93.73-9.86,1.18-14.78.25-2.79,1.84-3.92,4.68-3.87,7.11.11,14.25-.25,21.34.18,2.32.14,4.51,2.19,6.82,3.22,2.87,1.28,5.79,3.39,8.72,3.45,16.88.33,33.76.21,50.63.1,2.24,0,5.1-.06,6.58-1.35,4.44-3.89,9.48-4,14.86-4,37.89.08,75.78,0,113.67.09a114.72,114.72,0,0,1,14.34,1c5.55.71,6,2.77,4.26,8.06-2.73,8.28-4.78,16.8-6.71,25.31-.86,3.76-2.71,5.87-6.37,6.56-7,1.33-12.17,4-12.59,12.46-.27,5.33-2.47,10-9.68,8.71-1.41-.25-3.19,1.51-4.77,2.4-5.22,2.91-8.94,2.17-12.46-2.5-3.76-5-7.28-5-9.37.73-6,16.73-19.28,27.77-30.74,40.24-3.8,4.14-8.55,5.9-13.84,2.9-9.86-5.59-20.38-2.66-30.63-2.43-6.6.14-11.89-1.56-16.4-6.41-9.45-10.16-19.1-20.14-28.62-30.25-4.26-4.52-5.68-4.59-9,.51-5.4,8.3-14.52,10.44-22.82,13.74-3.68,1.46-7.36-.52-9.21-4.1-5.23-10.08-11.73-19.06-20.44-26.46a7.8,7.8,0,0,1-2.1-5.29c-.2-9.41-.09-18.83-.09-28.25Z"></path><path d="M178.18,598.21c-2.89-2.42-5.73-4.91-8.7-7.24-3.33-2.62-3.7-5.93-1.78-9.26,4-6.87,2.94-12.64-2.73-18-6.55-6.25-5.35-13.84-2.55-21.15.71-1.84,4.05-4.07,5.94-3.87,17.72,1.89,35.39,4.29,53.08,6.48,5.5.68,8.08,3.88,9.63,9.07a174.38,174.38,0,0,0,7.8,20.7c2.23,5,4,10,1.7,15.2-6.31,14.25-3.1,28.93-2.18,43.46q3.12,49,6.68,97.91,2.13,29.67,4.72,59.3c.36,4.17-1,5.48-5,5.83-10.69.94-21.32,2.73-32,3.32s-20.67-2.26-30-7.2c-1.7-.91-3-4.37-2.89-6.6.55-16.36,1.38-32.7,2.38-49,.24-3.92.34-7.08-4.07-8.88-1.3-.53-2.57-2.73-2.7-4.26-.81-9.38-1.29-18.78-1.88-28.17-.19-3.12,1.21-4.69,4.4-4.4,3.54.34,4.5-1.43,4.55-4.71q.27-20.83.91-41.65c.14-4.61-1.56-6.56-6.36-6.5-9.91.11-19.84-.39-29.76-.25-4.61.06-6.72-1.29-6.36-6.2.7-9.22,1.16-18.46,1.57-27.7.14-3.3,1.82-4.19,4.78-4.11,7.11.19,14.22.25,21.33.35,2.73,0,5.46,0,8.2,0C177.28,599.81,177.73,599,178.18,598.21Z"></path></g></svg>