<svg xmlns="http://www.w3.org/2000/svg" fill="#CCC9DC" viewBox="0 0 800 800" class="icon"><title>scroll-timeline</title><g id="Layer_204" data-name="Layer 204"><path d="M150.09,248.26c-.6-1.35-1-2.36-1.48-3.32-5.08-9.72-10.75-19.08-18.58-26.84-6.83-6.78-8.89-15.35-10.17-24.33a18.72,18.72,0,0,0-.33-2.72c-2.19-7.33-.92-8.48,3.06-14.31-.45-.63-.79-1.61-1.48-2-6-3.52-6.61-9.58-7.44-15.54-.91-6.45-1.91-12.89-2.68-19.35-.16-1.4,0-3.39.9-4.24,2.29-2.24,2-4.65,1.38-7.24-3.58-15.46-7-31-10.89-46.34-1-4-3.69-7.71-5.94-11.34C91,62,85.53,53.26,79.79,44.74c-3.26-4.85-3.55-4.75-8.92-2.41-3,1.3-5.73,3.24-8.8,4.21C52.3,49.64,45.7,57,38.26,63.36c-4.61,3.94-6.49,9-8.12,14.33S27,88.44,25.6,93.86c-1.14,4.52-.18,8.16,3.85,11.33a121.35,121.35,0,0,1,13.26,12.6c3.7,3.95,8.23,4.74,13.16,4.5a3.69,3.69,0,0,0,2.6-1.94A139.16,139.16,0,0,0,64.15,105c.44-1.57-.72-4.14-2-5.43-.71-.73-3.31-.15-4.76.5-3,1.32-5.72,3.09-8.57,4.68-1.83,1-3.35.94-4.78-.86-2.8-3.54-6.6-6.55-6.47-11.61,0-1.61.53-3.68,1.61-4.7,4.45-4.2,9.25-8,13.83-12.08s14.37-5,18.51,1A169.82,169.82,0,0,1,83,95.91c3,5.91,5,12.29,7.47,18.44s2.1,8.44-3.12,12.48a163.25,163.25,0,0,0-31.49,31.85c-3.17,4.26-7.44,4.5-11.45,1.09s-8.34-6.4-11.74-10.27c-6.42-7.3-13.35-14.49-18.07-22.85-5.87-10.42-6.74-22.41-4.14-34.2,3.45-15.68,9.76-30.4,17-44.65C30,42.69,34.09,38.14,38.15,34,45.53,26.46,53.72,19.71,61,12.07c5.88-6.18,13.38-6.32,20.79-7.19,1.31-.15,2.91,1,4.18,1.81A579.51,579.51,0,0,1,152.06,57c.2.18.36.43.59.52,10,3.59,11.8,12.49,13.63,21.21,4.6,21.91,9.38,43.79,13.35,65.82,3.34,18.55,8.43,36.8,9.41,55.79.44,8.68,2.74,17.26,3.13,25.94.55,12.61.06,25.26.16,37.89.1,12.9.55,25.81.5,38.71a114.49,114.49,0,0,1-1.43,18.69A58,58,0,0,0,192,342c3,16.65,5.14,33.45,8,50.13,2.77,16.16,4.85,32.56,9.38,48.24,3.29,11.38,2.6,22.68,3.66,34,.81,8.68.63,17.45.94,26.18.08,2.34-.06,4.79.58,7,2.07,7,0,13.84-.44,20.75-.32,5-.3,10-.66,15-.95,13.09.5,26,2.59,38.88,1.16,7.12,1.47,14.39,2.85,21.46,2,10.14,2.32,20.58,6.89,30.27,2.37,5,2.79,11,3.83,16.65a6.57,6.57,0,0,1-1.1,4C219,670.79,209.59,687,199.91,703c-4.86,8.06-4.9,16.21-.49,24.07,6.56,11.68,12.91,23.65,21,34.28,5.6,7.4,13.73,13,21.06,19,2.84,2.32,6.89.61,10.07-2.47,6-5.84,8.27-13.28,9.94-21.15,2.35-11.06,5-22.08,7.56-33.09,1.37-5.84,1.17-7-4.35-9.57-6.42-3-13-5.76-19.66-8.3-1-.4-3.33.5-4,1.5-4.13,6-6,12.68-2.91,19.54,1.2,2.62,4.26,4.72,6.93,6.26,3,1.72,4.37,3.54,3,6.83-1.55,3.61-6.06,6.52-8.61,4.92-10.15-6.38-20-13.22-25.48-24.51-1.9-3.88-1-7.36,1.23-10.67q8.22-12.14,16.56-24.2c1-1.5,2.22-2.89,3.35-4.32,4.42-5.61,10.17-7.2,17.07-6,14,2.39,28,4.87,42,6.77,9.54,1.29,19.27,1.15,28.79,2.53,23.53,3.43,47.17,4.62,70.89,5.31,11.7.34,23.36,1.84,35,2.75,16.8,1.31,33.26-1.43,49.67-4.46,8.7-1.61,17.44-3.06,26.05-5,9.13-2.08,18.1-4.8,27.19-7,12.51-3.08,25.06-6,37.59-9,2.15-.51,4.35-.89,6.45-1.57a19.43,19.43,0,0,1,14.32.62c2.95,1.24,7.09,0,10.62-.58,9-1.45,17.92-3.21,26.9-4.72,9.73-1.62,19.53-2.85,29.2-4.77a32.4,32.4,0,0,0,10.68-4.45c8.37-5.27,16.67-10.69,24.6-16.6a27.61,27.61,0,0,1,14.32-5.42c1.53-.16,3.69-.79,4.33-1.91,5.4-9.39,14.58-14,23.59-18.56,13-6.61,26.16-12.77,39.35-18.93,4.71-2.2,8.86,0,9.66,5.07,2.35,14.89,4.74,29.79,6.61,44.74,1.7,13.59.87,27.26-.32,40.84a13.62,13.62,0,0,1-4,8.11c-18.86,17.38-36.9,35.73-58.15,50.33a10.28,10.28,0,0,1-5,1.65c-15,.81-30,1.67-44.93,2.11-8.84.26-17.7-.11-26.55-.41s-17.43-.46-25.67,3.38c-1.81.85-4,.87-6.08,1.11-11.35,1.36-22.72,2.52-34,4q-18,2.41-35.9,5.39c-13.09,2.2-26.14,4.64-39.17,7.18-11.75,2.3-23.4,5.08-35.17,7.26-5.45,1-11.24.41-16.58,1.73-10.57,2.61-21,6-31.37,9.17-12.43,3.83-25.09,7.13-37.09,12-8.75,3.57-17.38,3.42-26.35,3.55-16.8.23-33.61.87-50.4,1.6-12.78.56-25.49,1.89-38.36.32-9-1.1-18.26-.19-27.34-1-8.25-.73-16.92-1.26-24.48-4.23-11.15-4.38-22.67-9.49-28.15-21.52-11.2-24.61-22.68-49.11-32.89-74.13-3.71-9.07-4.8-19.41-5.92-29.31-2.41-21.22-4.07-42.53-6-63.81-.69-7.52-1.68-15-1.86-22.55a197.24,197.24,0,0,1,1-21.72c.12-1.44,1.8-3,3.17-4,4.14-2.92,8.5-5.55,12.75-8.33,3.11-2,3-2.9.35-5.64q-5.15-5.24-9.93-10.81a6.93,6.93,0,0,1-1.09-3.64q-2.57-27.42-5-54.84c-.45-5.17-.6-10.37-1.07-15.54-1.48-16.18-3.16-32.34-4.54-48.53-1.28-15.06-2.2-30.15-3.45-45.22-1.41-17.13-3-34.25-4.53-51.37-1.15-13-2.18-26-3.51-38.92-.75-7.24-1.89-14.45-3.07-21.64-.6-3.65.8-5,4.31-5.11,4.76-.2,9.56-1.59,14.12,1.08C148.09,248.72,148.86,248.38,150.09,248.26Z"></path><path d="M583.77,8.05c5-1.47,8.84.32,12.2,2.6,14.43,9.76,28.81,19.61,43,29.73,8.69,6.19,17,12.86,25.46,19.41,7.39,5.75,11.79,12.85,12.68,22.67,1.92,21.3,1,42.43-1.68,63.56-.63,5-1.78,10.08-1.75,15.12,0,5.89-2.78,9.83-6.9,13.29-6.27,5.28-12.64,10.45-18.86,15.79-1.09.93-1.66,2.46-2.47,3.71a25.56,25.56,0,0,0,4.35,2.1c5.25,1.45,10.55,2.74,15.85,4,3.27.8,3.91,3.06,4.17,6.1,2.06,23.81,1.34,47.64,1.39,71.49,0,14.55,1.7,29.11,2.72,43.66.75,10.65,1.37,21.33,2.53,31.94,1.83,16.69,4.17,33.31,6,50a68.42,68.42,0,0,1,.08,13.65q-1.62,18.67-3.82,37.31a21.22,21.22,0,0,0,4.12,15.39c6.18,8.71,8.86,18.81,10.65,29.08,2,11.53,4.16,22.9,8,34.07,3.24,9.4,4.51,19.48,6.45,29.3,1.26,6.38,2.37,12.8,3,19.26a6.6,6.6,0,0,1-2.53,5c-5.38,3.88-11.17,7.19-16.59,11-3.11,2.2-5.32,1.41-7.21-1.25-3.23-4.57-6.34-9.22-9.42-13.89-10.87-16.48-16.84-34.8-20.39-54.07-2.26-12.29-4.63-24.57-7.41-36.75-1.41-6.2-.54-11,5.16-14.36,3.1-1.82,3.33-4.36,1.18-6.84-4.48-5.18-9.33-10-13.78-15.24-1.49-1.75-3-4.06-3.2-6.24-2.28-25.69-4.32-51.41-6.41-77.12q-2.88-35.44-5.75-70.9c-.61-7.4-1.65-14.77-2-22.18a109.59,109.59,0,0,1,.7-14q1.77-22.21,3.7-44.4c.47-5.42,1.93-10.79-.57-16.15-.45-1,.25-2.5.51-3.75,2.55-12.16.7-24.35.18-36.52-.69-16.27-1.9-32.53-2.11-48.81-.15-12.1-3-23.51-7.05-34.64-4.83-13.3-9.92-26.57-15.88-39.39-4.68-10.1-10.85-19.51-16.37-29.23C585.18,10.5,584.57,9.44,583.77,8.05Z"></path><path d="M647.9,599.54c-3.83-13.24-8-26.39-11.47-39.73-3.78-14.61-7.62-29.27-10.11-44.13-3-17.58-4-35.47-6.76-53.1-3.37-21.73-7.62-43.33-11.5-65-2.15-12-4.75-24-6.37-36.12-1.33-9.93-1.11-20.06-2.32-30-1.09-8.89-3.39-17.63-4.79-26.49a40,40,0,0,1-.18-11.36c.58-4.49,2.48-8.82,3-13.31,2.81-24.46,6.28-48.89,7.76-73.44,1.47-24.25,4.23-48.63.59-73-.94-6.3-1.88-12.63-3.22-18.86-2.73-12.69-4.54-25.7-11.08-37.26-3.9-6.9-7.8-13.82-11.93-20.58a62,62,0,0,0-7.66-10.71C558.67,32.61,545.13,19.06,532,5.15,528.75,1.73,525.22-.06,520.71,0c-10,.13-20.08.32-30.11.64a39.75,39.75,0,0,0-19.69,5.43c-6.61,4-14.13,4.46-21.81,4.95-15.7,1-31.33,3-47,4.65-3.09.32-4.6,2.12-3.94,5.41,1.66,8.29,3.33,16.57,4.86,24.89.24,1.3-.24,2.74-.39,4.12-1.6-.74-3.48-1.18-4.73-2.31-1.61-1.45-2.41-3.84-4.08-5.16-7-5.6-14.19-11-21.41-16.36-3.64-2.69-7.82-3.16-12.27-2.31-14.17,2.72-28.25,5.55-42.9,2.77-12.27-2.32-24.78-3.34-37.12-5.29-16.75-2.65-33.5-4.61-50.53-4.44-8.4.08-16,1.71-23.1,5.84-3.73,2.17-7,2.28-10.48-.11a23.45,23.45,0,0,0-3-1.78c-8.07-3.9-14.59-12-25.39-9.06a1.83,1.83,0,0,0,0,.7c6.74,14.65,13.48,29.23,22.72,42.62,8,11.62,15.47,23.67,15.5,38.79,0,9.09,1.12,18.19,2,27.26,1.38,14,2.75,28,4.58,41.9,1.88,14.3,4.45,28.52,6.45,42.82,1.59,11.45,3,22.94,4.08,34.45,1.42,15.18,3.11,30.38,3.45,45.6.42,18.35-.53,36.73-.75,55.1-.1,8.45-.2,16.93.31,25.35.45,7.39,1.75,14.72,2.7,22.08,1.42,11.09,2.72,22.21,4.43,33.26.24,1.57,2.22,3.25,3.8,4.15,2.45,1.41,5.41,1.93,7.88,3.31,3.34,1.86,3.47,3.63,1,6.53a78.21,78.21,0,0,0-5.84,6.82,8.89,8.89,0,0,0-1.65,5.27,104.8,104.8,0,0,0,1.95,10.74c2.94,15.67,4.87,31.4,3.45,47.41q-1.66,18.87-2.73,37.8c-1.07,18.58,1.8,36.84,4.62,55.14,2.29,14.87,7.53,28.56,14.14,42,2.73,5.53,6.23,8.83,12.05,10.34,7.92,2,15.72,4.56,23.62,6.67,3.56.95,7.37,2.39,10.86,1.95,13.57-1.69,27.08-3.86,40.56-6.2,25.13-4.36,50.49-5.52,75.91-5.89,1.82,0,3.65,0,5.46-.22,4.2-.44,8.41-1.56,12.57-1.38a274.23,274.23,0,0,0,42.86-1.93c8-.91,12.11-3.57,13.17-11.64.78-6,2.57-11.83,4-17.72.23-.92,1-2.38,1.49-2.4a3.82,3.82,0,0,1,2.81,1.4c4.53,6.2,9.16,12.34,13.28,18.8,2.26,3.56,4.08,6.6,9,4.52,1.26-.54,2.86-.2,4.25-.48,12.11-2.42,24.26-4.67,36.29-7.42,11.39-2.59,22.64-5.82,34-8.58,6.43-1.56,13.21-2,19.37-4.27,8.39-3,16.32-7.31,24.47-11C648.5,604.2,648.6,602,647.9,599.54ZM416.83,162.86c35.79,3.36,67.12.8,92.49,2.83l4.82.38,4.48.42L517,179.77c-1.58.18-72.83,24.34-74.71,24.16l-42.83-4.55c-20.87-2.14-30.12-8.84-53.87-11.44C345.58,187.81,416.22,162.93,416.83,162.86ZM338.89,428c.26,2.16.57,4.31,1,6.44s.39,4.58.69,6.85c.39,2.88,1.28,5.68,1.52,8.58s.24,5.67.64,8.49c.06.41-.1.55-.48.63q-7.41,1.58-14.79,3.2c-.78.18-1.07,0-1.13-.79a12.88,12.88,0,0,1,0-3.72c.56-2.73,0-5.42-.23-8.1a40.4,40.4,0,0,1,.37-7,44.88,44.88,0,0,0,.14-8.59c-.58-5.56-.81-11.14-1.27-16.7-.38-4.45-1.21-8.85-1.83-13.27-.5-3.51-1.07-7-1.88-10.46a11,11,0,0,1-.22-2.75c1.27.87,2.46,1.66,3.62,2.5a1.81,1.81,0,0,0,1.58.34c2.77-.59,5.57-1.1,8.35-1.66.48-.09.67-.09.65.51-.29,7.32,1.05,14.51,1.77,21.75C337.79,418.91,338.34,423.48,338.89,428ZM296.14,208.67a24.33,24.33,0,0,1-8.23-7.59,9.08,9.08,0,0,1-1.66-5.45,40.72,40.72,0,0,1,.11-5.41,21.73,21.73,0,0,1,4-9.92c1.79-2.38,4-4,7.12-4,.35,0,.7-.08,1.33-.15,3.34-.79,6.62.1,9.84,1.83,2.13,1.14,4.39,2,6.05,3.9a32.83,32.83,0,0,1,4.25,6.21,4.75,4.75,0,0,1,.12,3.46,22.89,22.89,0,0,1-.87,2.53,32.92,32.92,0,0,0-1.31,3.89c-1.48,5.57-5.3,8.91-10.52,10.86a26.76,26.76,0,0,1-2.94.85A9.35,9.35,0,0,1,296.14,208.67Zm5.24,25.71c-.06-.4.1-.55.49-.63,4.93-1.05,9.86-2.1,14.78-3.2.78-.17,1.07,0,1.14.79a13.71,13.71,0,0,1,0,3.73c-.56,2.72,0,5.41.23,8.1a40.23,40.23,0,0,1-.38,7,46.57,46.57,0,0,0-.14,8.59c.59,5.56.81,11.14,1.28,16.7.37,4.45,1.2,8.85,1.83,13.28.49,3.51,1.07,7,1.88,10.45a11.64,11.64,0,0,1,.21,2.76c-1.27-.88-2.46-1.66-3.61-2.5a1.79,1.79,0,0,0-1.58-.35c-2.78.6-5.57,1.1-8.36,1.66-.47.1-.67.09-.64-.5.29-7.32-1.06-14.52-1.77-21.76-.46-4.57-1-9.14-1.55-13.71-.26-2.15-.57-4.3-1-6.44s-.38-4.57-.69-6.85c-.38-2.88-1.28-5.67-1.51-8.57S301.78,237.2,301.38,234.38Zm12,127.52a23.62,23.62,0,0,1-8.37-7.55,9.15,9.15,0,0,1-1.76-5.62,40.87,40.87,0,0,1,.11-5.42,20.75,20.75,0,0,1,5-11.08,8.32,8.32,0,0,1,5.84-2.85,36.39,36.39,0,0,1,5.52-.36,6.86,6.86,0,0,1,1.7.27c5.38,1.93,10.28,4.39,13.36,9.68a7.85,7.85,0,0,1,.57,7.83,30.69,30.69,0,0,0-1.51,4.42c-1.56,5.59-5.48,8.88-10.74,10.79a20.14,20.14,0,0,1-4.2,1A7.88,7.88,0,0,1,313.39,361.9Zm39.41,142a29.56,29.56,0,0,0-1.52,4.42c-1.55,5.58-5.47,8.87-10.74,10.79a19.92,19.92,0,0,1-4.19,1,7.82,7.82,0,0,1-5.51-1.09,23.77,23.77,0,0,1-8.38-7.56,9.11,9.11,0,0,1-1.75-5.61,39.24,39.24,0,0,1,.1-5.42,20.89,20.89,0,0,1,5-11.09,8.33,8.33,0,0,1,5.85-2.84,35.14,35.14,0,0,1,5.52-.36,6.77,6.77,0,0,1,1.69.26c5.39,1.93,10.28,4.4,13.37,9.68A7.89,7.89,0,0,1,352.8,503.87Zm18-155.54-4-13.05,3.92-1.35,4.62-1.43c24.59-7.45,55.63-11.82,90.49-23.16.53-.06,79.72,8.18,79.37,8.22-22.87,7.78-34.07,16.89-54.24,23.45L449.67,354.9C447.83,355.1,372.37,347.76,370.76,348.33ZM551,486.3c-1.66.18-72.95,24-74.83,23.77l-42.83-4.54c-20.87-2.14-30-8.85-53.87-11.45,0,0,70.61-25.14,71.24-25.08,36.27,3.71,67.26,1.31,92.62,3.21l4.82.38,4.48.42Z"></path></g></svg>