<svg xmlns="http://www.w3.org/2000/svg" fill="#CCC9DC" viewBox="0 0 800 800" class="icon"><title>volcano</title><g id="Layer_60" data-name="Layer 60"><path d="M201.41,566.21l-.41-.27c0,.06,0,.16.08.18a2.08,2.08,0,0,0,.36.06Z"></path><path d="M542.86,553.06c-8.68-19.16-26.79-27.78-43.74-36.56-7.49-3.87-18.14-1.81-27.37-2.1-21.91-.69-43.47-3.29-63.86-11.94a205.18,205.18,0,0,0-43.77-12.72c-10.43-1.88-18.58-6.43-26.17-13.9-17.65-17.35-17.18-16.69-8.06-39.37,7.83-19.44,22.26-33.75,34.54-49.81,2.31-3,6-4,9.27-5.15,21.28-7.72,40.52-18.62,57-34.38,4.92-4.7,8.83-9.26,10.61-15.93,2.37-8.92,5.47-17.65,9-28.72,4.05,17.8,7.63,33.55,11.21,49.3,1.45,6.4,3.17,12.76,4.32,19.22,4.23,23.77,14.42,44.54,29.74,63.23,11.92,14.55,22.87,29.92,33.88,45.19,6.75,9.36,13.89,18.43,15.69,30.7.92,6.27,4.72,12.23,9.46,17q25.54,25.8,51.13,51.54c7.19,7.22,17.18,9.43,25.76,14.15,3.85,2.12,8,3.78,12.46,5.89-3,2.27-5.11.69-7.18.24-27.42-6-54.87-11.84-82.23-18.07-6.21-1.41-11.48-.52-17.18,2.17-30.59,14.44-61.87,27.3-95.58,32.11-25.36,3.62-51,5.49-76.87,6.84q19.14-7,38.26-14,15.15-5.54,30.32-11c2.5-.9,5.87-1.52,5.39-4.91-.62-4.38-4.5-3.08-7.23-2.77C403.76,592.49,375.89,596,348,599c-78.39,8.65-156.79,17.31-235.73,19.36-11.65.3-23.3.41-34.95.46-2.63,0-5.27-.6-9.45-1.12,2.62-1.27,3.83-2.11,5.17-2.47,38.76-10.46,71.11-33.35,104.66-53.91a23.06,23.06,0,0,0,7.34-7.7c9-14.11,18.77-27.8,26.6-42.53,7-13.23,7.81-28.67,11.19-43.16,5-21.28,12.52-40.85,28.42-56.82A79.85,79.85,0,0,0,270,379.88c5.12-15.29,10.82-30.4,15.28-45.87,2.2-7.65,4.5-7.27,9.83-3,5.56,4.42,11.2,8.92,17.92,11.65,2.36-2.5.37-4.69-.35-6.65-2.25-6.16-3.89-12.86-7.51-18.16-12.2-17.85-8-34.8-2-54,6.9-22,18-33.14,41.49-35.74,18.08-2,35,2.48,52.44,2.74,20.69.3,28.46,10.18,32.87,29.48,3.62,15.79.76,28.76-3.86,43.2-8,25.08-23.23,40.09-49.3,46.46-20.22,4.94-38.29,16.53-57.48,24.81-3.68,1.59-5.33,4.24-6.53,7.83-8.42,25.2-17,50.33-25.47,75.51a49.28,49.28,0,0,1-8.71,15.46c-18.38,22.86-37.81,44.72-59.83,64.16-1.77,1.57-3.75,2.9-5.6,4.36.48.26-.66,1.78.92,1.14l-1.05-1.21c4.78,2.51,7.73-1.78,11.4-3.2,16.35-6.3,29.37-16.7,38.08-32.07,8.5-15,24.49-20.26,37.62-29.25,4.12-2.82,5.92,1,8.09,3.05q17.07,16.47,33.94,33.14c2.39,2.36,4.84,4.32,8.2,5.08,37,8.41,74.09,16.41,112.21,7.54a50.85,50.85,0,0,1,29.81,1.93,37,37,0,0,0,9.49,2.49C519.09,532.2,530,543.65,541,554.93l2.79,2.53c.42.79,1,1.61,1.88.88.29-.24-.21-1.44-.36-2.2Z"></path><path d="M799.59,568.23c-22.63-5.2-45.38-9.93-67.84-15.79-10.37-2.71-19.59-2.92-29.14,2.45-5.13,2.87-11.15,4.19-16.79,6.12-11.38,3.88-22.21,2.84-34.08-.07-28.44-7-50.92-21.39-68.7-44.62-9.76-12.76-21.52-24-32.61-35.71-3.52-3.72-4.65-6.42-1.12-11.21,12.42-16.83,24.57-33.8,38.92-49.13,9.83-10.5,21.56-12.82,35.06-11,4.64.6,7.43,2.76,9.9,6.53,13.45,20.46,27.51,40.54,40.5,61.29a75.83,75.83,0,0,0,24.41,24.39q47,29.64,93.9,59.34c2.73,1.72,5.34,3.62,8,5.44Z"></path><path d="M0,587.68C25,567,34.09,536.73,50.66,511.5c13.17-20.07,32.14-32.39,54.49-39.83,7-2.32,13.57.24,19.6,4,18.38,11.4,30.81,29,45.53,44.15,3.38,3.49-.66,5.24-2.27,7.26C148.56,551.6,124.77,567.93,92.5,572c-28.69,3.57-57,10.11-85.5,15.27A60.2,60.2,0,0,1,0,587.68Z"></path><path d="M9.17,632.41c4.67-2,6.93,0,9.32.87,51.43,19.38,103.22,20.72,155.28,2.84,6.3-2.17,10.65-1.91,15.92,3,15,14.13,34,20.6,53.67,25.39,4,1,8,1.84,13.81,3.16-8.68,7.26-17.83,8.24-26.64,9.19-13.16,1.41-26.51.88-38.9-4-9.95-4-19.5-3.4-29.72-2.19-43.8,5.17-86.53,2.11-126.44-18.93C26.08,646.8,17,641.3,9.17,632.41Z"></path><path d="M244.93,258.56c15.3.83,14.21.56,10.41,16.16-3.61,14.86-14.54,17.91-26.52,20.79-4.67,1.13-6.09-1.22-5.22-5.34,2-9.28,4.21-18.51,6.13-27.81.78-3.71,2.72-4.81,6.31-4.3C239,258.49,242,258.41,244.93,258.56Z"></path><path d="M499.75,205.41c-5.1,6.71-9.81,14-15.73,20.16-2.25,2.33-5.72-1.85-8.38-3.41-12.94-7.57-13.29-9.28-5.23-21.61,7.8-11.94,21.7-11,28.26,2A28.57,28.57,0,0,1,499.75,205.41Z"></path><path d="M387.55,178.88C394.64,177,398.49,180.36,400,189c1,5.79-2.26,7.33-5.61,9.64-15.5,10.72-15.4,10.7-19.05-7.72C373,178.83,370.94,178.71,387.55,178.88Z"></path><path d="M477.56,289.36c0-11.1,0-19.32,0-27.53,0-3.13,1.72-3.73,4.47-4.09,6.18-.79,10.81,2.19,15.45,5.48,3,2.13,1.47,3.86-.3,5.7C491.25,275.07,485.35,281.24,477.56,289.36Z"></path><path d="M341.57,197.73c.53-2.61-1.85-8.93,5.14-7.54,4.65.92,12.74-1,12.4,7.81-.21,5.47.58,11.58-9.07,11.44C341.14,209.31,341.26,204.73,341.57,197.73Z"></path><path d="M546.9,606.74c-.54,0-1.08.09-1.62.08,0,0-.09-.42-.14-.64.54,0,1.08-.12,1.62-.13A3.66,3.66,0,0,1,546.9,606.74Z"></path><path d="M543.83,557.46,541,554.93l1.82-1.87,2.49,3.08Z"></path><path d="M545.35,556.14c.15.76.65,2,.36,2.2-.86.73-1.46-.09-1.88-.88Z"></path><path d="M213.06,542.05l1.05,1.21c-1.58.64-.44-.88-.92-1.14Z"></path><path d="M295.07,195c-19.53-5.37-39.51-5-59-7.83a4.62,4.62,0,0,0-2.16,0,206.34,206.34,0,0,0-19,8.09l12.26,2c-11.38,3-23.09,2.75-35.22,4.81,7.05,5.68,15.22,4.43,23.43,6.93-2.16.59-3.54,1-4.93,1.34s-3.12.61-4.63,1.08c-7.4,2.33-14.55,1.77-21.83-.9-5.71-2.1-11.75-3.3-17.59-5.07-7-2.13-16.63-9.88-14-19.88,1.28-4.89,4.68-8.49,7.86-12.19.24-.28.6-.46.79-.76,4.72-7.2,12.23-10.05,19.78-13,5.69-2.19,11.26-4.69,17.13-7.16-.39,1.89-2,2.53-3,3.5-2.81,2.54-5.71,5-8.56,7.47-1.15,1-2.32,2.4-1.73,3.75.5,1.17,2.22.33,3.36.19,8.13-.93,16.23-2.14,24.37-2.89a90.23,90.23,0,0,1,39.56,5c8,2.93,15.9,6.32,23.94,9.25a21.33,21.33,0,0,1,8.49,5.45C287.77,187.9,291.46,191.4,295.07,195Z"></path><path d="M552.53,162.27l-13.35,2.49c8.67,5,15.64,9.09,22.59,13.16a5.42,5.42,0,0,0,3.85.39c6.77-1.14,13.46-2.64,19.72-5.51,12.35-5.68,15.41-16.28,5.81-26-12.42-12.54-26.08-24.17-45.44-24.41-.84,0-1.68.13-3.4.27l10.53,11.52c-5.77.77-10.38-.85-14.8-2.1-15.95-4.49-29.77-.81-42.94,8.82-10.05,7.35-20.91,13.59-29.94,22.81,10.75-2.82,21.77-4.91,32.21-8.63,19.51-7,37.32-1.37,55.17,5.69l1.21.63Z"></path></g></svg>